<svg width="223" height="48" viewBox="0 0 223 48" fill="none" xmlns="http://www.w3.org/2000/svg">
<g clip-path="url(#clip0_14296_7590)">
<path fill-rule="evenodd" clip-rule="evenodd" d="M216.465 26.029C214.421 25.243 213.785 24.861 213.785 23.998C213.785 23.18 214.443 22.692 215.546 22.692C217.364 22.692 218.726 23.675 219.925 24.753L222.696 21.798C220.914 19.884 218.27 18.744 215.602 18.744C211.734 18.744 209.034 20.985 209.034 24.193C209.034 27.843 211.861 29.268 214.625 30.18C214.957 30.29 215.264 30.386 215.547 30.475C217.121 30.97 217.989 31.243 217.989 32.192C217.989 32.723 217.698 33.613 215.758 33.613C213.958 33.613 212.184 32.742 211.206 31.387L208.396 34.368C210.344 36.572 212.732 37.644 215.694 37.644C220.065 37.644 222.78 35.529 222.78 32.123C222.781 28.704 220.395 27.54 216.465 26.029ZM193.674 20.553H193.49V19.057H188.707V37.33H193.49V27.821C193.49 23.62 196.103 22.993 197.661 22.993C200.417 22.993 201.399 25.278 201.399 27.416V37.33H206.182V27.472C206.182 22.002 203.252 18.745 198.342 18.745C194.952 18.745 193.698 20.5 193.674 20.553ZM180.028 37.33H184.803V19.058H180.028V37.33ZM185.203 13.055C185.203 13.794 184.909 14.5028 184.387 15.0254C183.864 15.5479 183.155 15.8415 182.416 15.8415C181.677 15.8415 180.968 15.5479 180.446 15.0254C179.923 14.5028 179.63 13.794 179.63 13.055C179.644 12.3251 179.943 11.6298 180.464 11.1185C180.985 10.6072 181.686 10.3208 182.416 10.3208C183.146 10.3208 183.847 10.6072 184.368 11.1185C184.889 11.6298 185.189 12.3251 185.203 13.055ZM166.706 33.332C164.081 33.332 162.024 31.075 162.024 28.193C162.024 25.301 164.07 23.036 166.684 23.036C169.585 23.036 171.38 25.713 171.38 28.193C171.38 31.027 169.283 33.332 166.706 33.332ZM171.35 35.727H171.572V37.331H176.116V10.668H171.332V20.562H171.149C170.199 19.427 167.951 18.744 166.429 18.744C160.624 18.744 157.49 23.613 157.49 28.194C157.49 31.683 158.998 33.886 160.262 35.12C161.914 36.7267 164.123 37.631 166.428 37.643C167.52 37.644 169.252 37.319 171.35 35.727ZM150.823 21.197H150.705V19.056H145.836V37.33H150.705L150.697 29.104C150.697 25.806 152.335 23.562 156.461 23.562V18.744C154.003 18.782 152.011 19.528 150.823 21.197ZM137.407 31.366C137.407 32.295 135.46 33.773 133.154 33.773C131.73 33.773 130.793 32.836 130.793 31.668C130.793 30.904 131.219 29.492 133.692 29.492C135.52 29.492 137.407 30.062 137.407 30.062V31.366ZM139.296 20.073C138.013 19.228 136.232 18.744 134.407 18.744C131.395 18.744 128.923 19.825 127.439 21.791C127.763 22.143 129.823 24.324 130.223 24.74C130.973 23.694 131.689 23.153 132.749 22.823C133.163 22.6964 133.594 22.6337 134.027 22.637C134.608 22.637 135.191 22.742 135.626 22.927C136.757 23.406 137.407 24.344 137.407 25.5L137.406 26.692C137.274 26.626 135.779 25.991 133.358 25.991C129.503 25.991 126.598 28.532 126.598 31.9C126.598 35.228 129.097 37.643 132.541 37.643C134.687 37.643 136.022 36.7 137.2 35.726H137.407V37.33H141.94V25.383C141.94 23.016 141.051 21.23 139.296 20.073ZM118.504 44.426C121.65 44.426 123.777 42.267 123.777 37.968V19.058H118.987V37.772C118.987 39.431 118.308 40.252 117.163 40.252C116.609 40.252 116.073 40.091 115.572 39.805L114.767 43.784C115.948 44.247 116.912 44.426 118.504 44.426ZM124.172 13.054C124.17 13.7921 123.876 14.4996 123.354 15.0211C122.832 15.5427 122.124 15.8357 121.386 15.836C120.648 15.8357 119.94 15.5427 119.417 15.0211C118.895 14.4996 118.601 13.7921 118.6 13.054C118.6 12.3151 118.893 11.6065 119.416 11.084C119.938 10.5615 120.647 10.268 121.386 10.268C122.125 10.268 122.833 10.5615 123.356 11.084C123.878 11.6065 124.172 12.3151 124.172 13.054ZM109.339 26.029C107.296 25.243 106.66 24.861 106.66 23.998C106.66 23.18 107.317 22.692 108.42 22.692C110.239 22.692 111.601 23.675 112.799 24.753L115.57 21.798C113.789 19.884 111.144 18.744 108.477 18.744C104.608 18.744 101.908 20.985 101.908 24.193C101.908 27.843 104.735 29.268 107.5 30.18C107.832 30.29 108.139 30.386 108.421 30.475C109.995 30.97 110.863 31.243 110.863 32.192C110.863 32.723 110.573 33.613 108.633 33.613C106.832 33.613 105.059 32.742 104.08 31.387L101.27 34.368C103.218 36.572 105.606 37.644 108.568 37.644C112.94 37.644 115.654 35.529 115.654 32.123C115.655 28.704 113.269 27.54 109.339 26.029ZM86.2088 26.323C86.7518 24.134 88.3408 22.928 90.4748 22.928C92.5588 22.928 94.0378 24.097 94.5748 26.323H86.2088ZM99.2978 27.993C99.2658 22.529 95.5788 18.745 90.3088 18.745C85.0478 18.745 81.2288 22.711 81.2288 28.176C81.2288 33.75 85.1068 37.643 90.6598 37.643C93.9108 37.643 96.7318 36.45 98.4138 34.367C98.0698 33.99 95.9418 31.757 95.5628 31.376C94.6818 32.378 93.0588 33.423 91.0358 33.423C88.6108 33.423 86.7808 32.057 86.1888 29.714H99.1848C99.2618 29.367 99.2978 28.579 99.2978 27.993ZM64.4898 32.803H60.9738V15.229H64.7338C69.6458 15.229 73.2108 18.94 73.2108 24.053C73.2108 29.205 69.6248 32.803 64.4898 32.803ZM64.7478 10.67L55.5268 10.669V37.33H64.8588C73.2138 37.33 78.6138 32.116 78.6138 24.046C78.6148 16.044 73.0418 10.67 64.7478 10.67ZM35.7928 15.249V32.75L20.6058 41.501L5.41976 32.75V15.249L20.6058 6.498L35.7928 15.249ZM-0.219238 12V36L20.6058 48L41.4318 36V12L20.6058 0L-0.219238 12Z" fill="#00874E"/>
</g>
<defs>
<clipPath id="clip0_14296_7590">
<rect width="223" height="48" fill="white"/>
</clipPath>
</defs>
</svg>
