<?xml version="1.0" encoding="UTF-8"?>
<svg id="Layer_1" data-name="Layer 1" xmlns="http://www.w3.org/2000/svg" viewBox="0 0 485.19 159.12" width="679" height="273">
	<defs>
		<style>
			.cls-1 {
			fill: #000;
			}

			.cls-2 {
			fill: #ffc808;
			}

			.cls-3 {
			fill: #ffc807;
			}
		</style>
	</defs>
	<path class="cls-3" d="M51.78,63.62v-.04s0,.03,0,.04h0Z"/>
	<path class="cls-2" d="M133.87,21.25h-56.83c-7.86,0-15.53,3.39-19.77,7.67-3.67,3.69-15.7,16.37-23.97,24.93-5.11,5.29-7.82,11.34-7.82,19.63v58.48c0,4.96,4.02,8.98,8.98,8.98h56.64c6.83,0,15.7-3.42,19.86-7.57,3.69-3.68,15.88-16.44,24.11-25.05,4.23-4.44,7.79-10.24,7.79-19.66V30.24c0-4.96-4.02-8.99-8.99-8.99Z"/>
	<path class="cls-1" d="M188.65,46.69v-.28c1.93-.32,3.47-1.28,4.64-2.86,1.16-1.59,1.74-3.62,1.74-6.1,0-3.65-1.33-6.31-3.98-7.98-2.66-1.67-6.92-2.51-12.8-2.51h-12.9V61.5c.04,3.78,3.08,6.83,6.85,6.91h8.66c4.69,0,8.4-1.06,11.13-3.18,2.73-2.12,4.1-5.07,4.1-8.85,0-2.67-.58-4.8-1.74-6.41-1.16-1.61-3.06-2.7-5.68-3.29Zm-14.52-12.53h4.62c2.51,0,4.35,.34,5.51,1.03,1.16,.69,1.74,1.83,1.74,3.42,0,1.7-.53,2.92-1.6,3.66-1.07,.74-2.79,1.11-5.17,1.11h-5.1v-9.21Zm11.09,25.6c-1.15,.93-2.94,1.39-5.36,1.39h-5.73v-10.8h5.44c4.91,0,7.37,1.72,7.37,5.16,0,1.91-.58,3.33-1.73,4.25Z"/>
	<path class="cls-1" d="M259.4,39.19c-1.9-1.99-4.69-2.98-8.37-2.98-2.15,0-4.07,.39-5.75,1.17-1.49,.69-2.68,1.69-3.61,2.97v-3.55h-8.61v13.38h.02v18.23h8.62v-14.87c0-3.73,.54-6.4,1.61-8.01,1.07-1.61,2.82-2.42,5.23-2.42,1.77,0,3.06,.57,3.87,1.71,.81,1.14,1.22,2.85,1.22,5.13v18.46h8.62v-20.61c0-3.75-.95-6.62-2.86-8.61Z"/>
	<path class="cls-1" d="M223.93,38.35c-2.26-1.85-5.51-2.77-9.75-2.77s-7.82,.82-11.23,2.44l2.02,6.23c3.4-1.52,6.35-2.28,8.87-2.28,3.28,0,4.92,1.6,4.92,4.81v1.39l-5.48,.17c-4.73,.17-8.27,1.05-10.62,2.64-2.35,1.59-3.52,4.07-3.52,7.42s.87,5.67,2.61,7.41c1.74,1.73,4.13,2.6,7.17,2.6,2.47,0,4.47-.35,6.01-1.06,1.29-.59,2.55-1.61,3.78-2.99v3.48h8.62v-21.06c0-3.77-1.13-6.58-3.39-8.42Zm-5.17,15.46h-.05v2.62c-.12,1.6-.69,2.92-1.74,3.94-1.2,1.15-2.79,1.72-4.79,1.72-2.79,0-4.18-1.22-4.18-3.65,0-1.7,.61-2.96,1.84-3.79,1.23-.83,3.09-1.28,5.6-1.36l3.34-.11v.62Z"/>
	<path class="cls-1" d="M357.1,62.1c-1.71,.4-3.51,.6-5.43,.6-2.46,0-4.38-.69-5.74-2.08-1.36-1.38-2.1-3.3-2.19-5.77h13.74c3.7,0,6.68-2.69,6.68-5.99-.29-3.67-1.52-6.61-3.68-8.82-2.5-2.56-6-3.84-10.49-3.84s-8.38,1.46-11.04,4.36c-2.66,2.91-3.99,7.03-3.99,12.35s1.44,9.17,4.32,11.99c2.88,2.82,6.88,4.23,11.99,4.23,2.48,0,4.58-.18,6.31-.55,1.69-.36,3.27-.91,4.76-1.64l-1.92-5.9c-1.14,.44-2.25,.8-3.32,1.05Zm-11.37-17.98c1.04-1.17,2.48-1.75,4.32-1.75s3.3,.58,4.38,1.75c1.08,1.17,1.64,2.82,1.68,4.96h-12.16c.15-2.14,.75-3.79,1.79-4.96Z"/>
	<path class="cls-1" d="M304.66,65.49c1.91,1.99,4.7,2.99,8.38,2.99,2.15,0,4.07-.39,5.77-1.17,1.5-.69,2.69-1.7,3.62-2.98v3.56h8.63v-13.41h-.02v-18.27h-8.64v14.9c0,3.74-.54,6.42-1.62,8.03-1.07,1.62-2.83,2.42-5.24,2.42-1.77,0-3.07-.57-3.88-1.71-.81-1.14-1.22-2.86-1.22-5.14v-18.5h-8.64v20.65c0,3.76,.95,6.63,2.86,8.63Z"/>
	<path class="cls-1" d="M296.23,36.8h-8.61s0,3.58,0,3.58c-1.05-1.35-2.24-2.36-3.58-3.04-1.49-.76-3.24-1.13-5.24-1.13-3.76,0-6.72,1.46-8.88,4.36-2.16,2.91-3.24,6.95-3.24,12.13s1.06,9.15,3.17,12.03c2.12,2.88,5.04,4.32,8.78,4.32,2,0,3.77-.4,5.3-1.19,1.53-.79,2.76-1.95,3.68-3.49h.01v4.15c0,.21-.01,.41-.01,.6v6.87c.27,3.49,3.09,6.26,6.61,6.42h2.06V36.79h-.05Zm-9.69,23.6c-1.02,1.26-2.63,1.89-4.82,1.89s-3.71-.78-4.72-2.35c-1.01-1.57-1.52-3.94-1.52-7.11,0-6.39,2.03-9.58,6.09-9.58,2.32,0,4.01,.74,5.06,2.21,.41,.58,.74,1.31,.99,2.19v10.5c-.27,.93-.63,1.7-1.08,2.26Z"/>
	<path class="cls-1" d="M371.09,104.5c-2.1-2.83-4.97-4.24-8.67-4.24-1.99,0-3.71,.38-5.23,1.15-1.53,.8-2.71,1.95-3.63,3.44v-11.46c.04-1.6,.08-3.25,.11-4.85h-8.67v43.55h8.52v-3.55c1.07,1.34,2.22,2.33,3.55,3.02,1.49,.73,3.21,1.11,5.16,1.11,3.74,0,6.65-1.45,8.79-4.32s3.21-6.84,3.21-11.96-1.07-9.02-3.13-11.88Zm-11.57,21.2c-2.29,0-3.97-.73-5-2.18-.42-.57-.73-1.3-.95-2.14v-10.35c.23-.95,.61-1.68,1.03-2.25,1.03-1.22,2.6-1.87,4.77-1.87s3.67,.8,4.66,2.33c.99,1.57,1.49,3.9,1.49,7.03,0,6.3-1.99,9.44-6,9.44Z"/>
	<path class="cls-1" d="M416.18,125.6c-1.71,.4-3.51,.6-5.43,.6-2.46,0-4.38-.69-5.74-2.08-1.36-1.38-2.1-3.3-2.19-5.77h13.74c3.7,0,6.68-2.69,6.68-5.99-.29-3.67-1.52-6.61-3.68-8.82-2.5-2.56-6-3.84-10.49-3.84s-8.38,1.46-11.04,4.36c-2.66,2.91-3.99,7.03-3.99,12.35s1.44,9.17,4.32,11.99c2.88,2.82,6.88,4.23,11.99,4.23,2.48,0,4.58-.18,6.31-.55,1.69-.36,3.27-.91,4.76-1.64l-1.92-5.9c-1.14,.44-2.25,.8-3.32,1.05Zm-11.37-17.98c1.04-1.17,2.48-1.75,4.32-1.75s3.3,.58,4.38,1.75c1.08,1.17,1.64,2.82,1.68,4.96h-12.16c.15-2.14,.75-3.79,1.79-4.96Z"/>
	<path class="cls-1" d="M277.94,90.58c-.19-.5-.54-.89-.97-1.16-.93-.58-2.05-.89-3.33-.89s-2.44,.31-3.33,.89c-.43,.31-.77,.7-.97,1.2-.27,.58-.39,1.28-.39,2.13s.12,1.55,.39,2.13c.19,.5,.54,.89,.97,1.2,.89,.62,2.01,.93,3.33,.93s2.4-.31,3.33-.93c.43-.27,.77-.66,.97-1.16,.31-.58,.43-1.28,.43-2.17s-.12-1.59-.43-2.17Z"/>
	<path class="cls-1" d="M300.03,125.74c.97,0,1.9-.1,2.79-.29,.89-.19,1.78-.42,2.67-.69v6.44c-.93,.39-2.08,.72-3.45,1.01-1.37,.29-2.87,.44-4.5,.44-1.9,0-3.59-.31-5.08-.93-1.49-.62-2.67-1.69-3.54-3.22-.87-1.53-1.31-3.65-1.31-6.36v-15.27h-4.12c0-2.17,0-4.34,0-6.51h4.12c0-2.23,0-4.47,0-6.7,2.88,0,5.77-.02,8.65-.03v6.73h8.88v6.5h-8.88v15.27c0,1.2,.35,2.1,1.04,2.7,.7,.6,1.61,.9,2.73,.9Z"/>
	<path class="cls-1" d="M334.62,102.6c-2.26-1.85-5.51-2.77-9.75-2.77s-7.82,.82-11.23,2.44l2.02,6.23c3.4-1.52,6.35-2.28,8.87-2.28,3.28,0,4.92,1.6,4.92,4.81v1.39l-5.48,.17c-4.73,.17-8.27,1.05-10.62,2.64-2.35,1.59-3.52,4.07-3.52,7.42s.87,5.67,2.61,7.41c1.74,1.73,4.13,2.6,7.17,2.6,2.47,0,4.47-.35,6.01-1.06,1.29-.59,2.55-1.61,3.78-2.99v3.48h8.62v-21.06c0-3.77-1.13-6.58-3.39-8.42Zm-5.17,15.46h-.05v2.62c-.12,1.6-.69,2.92-1.74,3.94-1.2,1.15-2.79,1.72-4.79,1.72-2.79,0-4.18-1.22-4.18-3.65,0-1.7,.61-2.96,1.84-3.79,1.23-.83,3.09-1.28,5.6-1.36l3.34-.11v.62Z"/>
	<path class="cls-1" d="M236.29,129.66c1.91,1.99,4.7,2.99,8.38,2.99,2.15,0,4.07-.39,5.77-1.17,1.5-.69,2.69-1.7,3.62-2.98v3.56h8.63v-13.41h-.02v-18.27h-8.64v14.9c0,3.74-.54,6.42-1.62,8.03-1.07,1.62-2.83,2.42-5.24,2.42-1.77,0-3.07-.57-3.88-1.71-.81-1.14-1.22-2.86-1.22-5.14v-18.5h-8.64v20.65c0,3.76,.95,6.63,2.86,8.63Z"/>
	<path class="cls-1" d="M227.23,100.33h-8.61s0,3.58,0,3.58c-1.05-1.35-2.24-2.36-3.58-3.04-1.49-.76-3.24-1.13-5.24-1.13-3.76,0-6.72,1.46-8.88,4.36-2.16,2.91-3.24,6.95-3.24,12.13s1.06,9.15,3.17,12.03c2.12,2.88,5.04,4.32,8.78,4.32,2,0,3.77-.4,5.3-1.19,1.53-.79,2.76-1.95,3.68-3.49h.01v4.15c0,.21-.01,.41-.01,.6v6.87c.27,3.49,3.09,6.26,6.61,6.42h2.06v-45.62h-.05Zm-9.69,23.6c-1.02,1.26-2.63,1.89-4.82,1.89s-3.71-.78-4.72-2.35c-1.01-1.57-1.52-3.94-1.52-7.11,0-6.39,2.03-9.58,6.09-9.58,2.32,0,4.01,.74,5.06,2.21,.41,.58,.74,1.31,.99,2.19v10.5c-.27,.93-.63,1.7-1.08,2.26Z"/>
	<rect class="cls-1" x="269.35" y="100.95" width="8.59" height="31.7"/>
	<rect class="cls-1" x="379.9" y="88.53" width="8.59" height="44.12"/>
	<g>
		<path class="cls-1" d="M187.28,98.46c3.64-.1,6.58-2.98,6.78-6.59v-.66h-21.86c-3.79,.07-6.84,3.16-6.85,6.97v34.48h21.93c3.64-.1,6.58-2.98,6.78-6.59v-.61h-19.92v-9.81h12.12c3.61-.11,6.53-2.96,6.75-6.54v-.66h-18.87v-9.98h13.15Z"/>
		<path class="cls-1" d="M189.85,78.99c-.54,.54-1.26,1.2-2.15,1.97-.89,.77-1.85,1.59-2.87,2.44-1.03,.85-2.03,1.65-3.02,2.41-.99,.75-1.85,1.38-2.58,1.89h-5.75v-.75c.62-.74,1.34-1.6,2.18-2.58,.83-.99,1.65-2.01,2.47-3.08,.81-1.06,1.49-2.02,2.03-2.87h9.7v.58Z"/>
	</g>
</svg>
