<?xml version="1.0" encoding="UTF-8"?>
<svg id="PANTONE" xmlns="http://www.w3.org/2000/svg" viewBox="0 0 564.64 245.46">
  <defs>
    <style>
      .cls-1 {
        fill: #056e39;
      }

      .cls-2 {
        fill: #808285;
      }

      .cls-3 {
        fill-rule: evenodd;
      }

      .cls-3, .cls-4 {
        fill: #ffc60b;
      }
    </style>
  </defs>
  <g>
    <g>
      <path class="cls-2" d="M6.92,15.3v5.52h10.91v3.76H6.92v9.97H2.82V11.54h15.98v3.75H6.92Z" />
      <path class="cls-2" d="M28.75,11.54h4.08v23h-4.08V11.54Z" />
      <path class="cls-2" d="M43.99,11.54h4.5l12.83,17.68V11.54h4.08v23h-4.55l-12.79-17.71v17.71h-4.08V11.54Z" />
      <path class="cls-2" d="M81.95,11.54h4.47l9.1,23h-4.19l-2.58-6.02h-9.39l-2.57,6.02h-3.95l9.11-23ZM87.32,24.78l-3.27-8.53-3.29,8.53h6.55Z" />
      <path class="cls-2" d="M103.71,11.54h4.5l12.83,17.68V11.54h4.08v23h-4.55l-12.79-17.71v17.71h-4.08V11.54Z" />
      <path class="cls-2" d="M146.68,11.38c2.42,0,4.71.43,6.88,1.28l.6.24-1.28,3.5-.62-.21c-2.09-.7-3.99-1.05-5.68-1.05-1.34,0-2.58.22-3.71.66-1.14.44-2.08,1.02-2.83,1.76-.75.73-1.33,1.58-1.75,2.53-.42.95-.62,1.94-.62,2.98s.22,2.08.67,3.05c.45.96,1.07,1.81,1.88,2.54.8.73,1.81,1.3,3.03,1.73,1.22.43,2.55.64,4,.64,1.77,0,3.54-.31,5.31-.94l.6-.21,1.33,3.24-.6.26c-2.34,1-4.81,1.5-7.41,1.5-2.02,0-3.85-.31-5.5-.92-1.65-.62-3-1.46-4.07-2.54-1.07-1.07-1.89-2.32-2.47-3.75-.58-1.42-.86-2.96-.86-4.6s.29-3.21.89-4.63c.59-1.42,1.44-2.66,2.54-3.71,1.1-1.05,2.48-1.87,4.14-2.46,1.66-.59,3.51-.89,5.53-.89Z" />
      <path class="cls-2" d="M163.03,11.54h4.08v23h-4.08V11.54Z" />
      <path class="cls-2" d="M178.94,11.54h16.14v3.75h-12.04v5.52h11.15v3.76h-11.15v6.22h12.04v3.75h-16.14V11.54ZM183.12,0l8.96,4.82-1.42,2.43-9.08-4.59,1.54-2.66Z" />
      <path class="cls-2" d="M222.77,18.13c0,.73-.09,1.43-.27,2.1-.18.66-.46,1.3-.84,1.92-.38.61-.91,1.17-1.57,1.65-.67.49-1.45.86-2.36,1.13l6.94,9.62h-5.31l-6.44-8.92h-3.9v8.92h-4.08V11.54h9.79c.48,0,.93.01,1.33.04.4.03.89.09,1.47.19.58.1,1.09.24,1.54.41.45.17.91.42,1.39.76.48.33.88.73,1.2,1.17.32.45.58,1.02.78,1.7.21.69.31,1.45.31,2.31ZM209.02,15.28v6.59h3.75c.65,0,1.22-.02,1.72-.06.5-.04,1.01-.13,1.54-.27.53-.14.96-.32,1.3-.56.34-.24.62-.57.84-.99.22-.42.33-.92.33-1.49,0-2.15-1.66-3.22-4.97-3.22h-4.52Z" />
      <path class="cls-2" d="M233.44,34.54V11.54h16.14v3.75h-12.04v5.52h11.15v3.76h-11.15v6.22h12.04v3.75h-16.14Z" />
    </g>
    <rect class="cls-4" y="144.75" width="564.64" height="4.35" />
    <polyline class="cls-1" points="9.9 73.57 9.9 86.01 34.82 86.01 34.82 92.94 9.9 92.94 9.9 115.55 2.26 115.55 2.26 66.64 36.64 66.64 36.64 73.57 9.9 73.57" />
    <rect class="cls-1" x="47.01" y="73.13" width="7.61" height="42.41" />
    <path class="cls-1" d="M103.07,85.28c0,1.35-.16,2.64-.49,3.87-.33,1.22-.86,2.4-1.57,3.54-.72,1.13-1.7,2.15-2.93,3.04-1.24.89-2.71,1.59-4.39,2.1l12.96,17.72h-9.91l-12.02-16.45h-7.28v16.45h-7.61v-42.41h18.27c.9,0,1.73.02,2.49.07.75.06,1.67.17,2.75.36,1.08.19,2.04.44,2.87.76.83.32,1.7.78,2.59,1.41.9.61,1.64,1.34,2.24,2.16.59.82,1.08,1.87,1.46,3.14.39,1.25.57,2.67.57,4.25M77.44,80.03v12.15h7.01c1.2,0,2.28-.05,3.2-.12.92-.08,1.88-.25,2.87-.5.98-.25,1.8-.6,2.43-1.03.63-.44,1.15-1.05,1.57-1.82.41-.77.62-1.69.62-2.75,0-3.96-3.09-5.94-9.27-5.94h-8.43Z" />
    <path class="cls-1" d="M132.58,90.73c9.16,2.2,13.92,5.44,13.92,12.59,0,8.06-6.37,12.83-15.46,12.83-6.61,0-12.86-2.26-18.05-6.84l4.57-5.38c4.15,3.54,8.29,5.56,13.67,5.56,4.71,0,7.67-2.14,7.67-5.44,0-3.11-1.73-4.76-9.77-6.6-9.21-2.2-14.4-4.89-14.4-12.83,0-7.46,6.18-12.48,14.78-12.48,6.31,0,11.32,1.9,15.71,5.38l-4.08,5.68c-3.9-2.87-7.79-4.4-11.75-4.4-4.45,0-7.05,2.26-7.05,5.13,0,3.37,1.98,4.83,10.25,6.79" />
    <polyline class="cls-1" points="152.67 73.13 191.43 73.13 191.43 80.06 175.85 80.06 175.85 115.55 168.25 115.55 168.25 80.06 152.67 80.06 152.67 73.13" />
    <polyline class="cls-1" points="218.63 66.64 227.02 66.64 253.48 104.6 253.48 66.64 261.09 66.64 261.09 115.55 252.61 115.55 226.24 77.53 226.24 115.55 218.63 115.55 218.63 66.64" />
    <path class="cls-1" d="M286.3,73.13h8.33l16.96,42.41h-7.82l-4.79-11.1h-17.51l-4.81,11.1h-7.36l17-42.41M296.31,97.55l-6.1-15.73-6.12,15.73h12.22Z" />
    <polyline class="cls-1" points="311.9 73.13 350.66 73.13 350.66 80.06 335.09 80.06 335.09 115.55 327.48 115.55 327.48 80.06 311.9 80.06 311.9 73.13" />
    <rect class="cls-1" x="358.56" y="73.13" width="7.61" height="42.41" />
    <path class="cls-1" d="M399.22,72.69c4.37,0,8.25.84,11.65,2.53,3.41,1.7,6.07,4.16,8.04,7.39,1.95,3.23,2.92,6.99,2.92,11.26s-.95,8.19-2.87,11.54c-1.91,3.35-4.6,5.96-8.06,7.81-3.46,1.85-7.44,2.78-11.92,2.78-2.96,0-5.77-.46-8.42-1.36-2.66-.9-5.04-2.22-7.14-3.97-2.11-1.74-3.77-4-5.02-6.79-1.23-2.78-1.85-5.92-1.85-9.43,0-4.36.97-8.19,2.9-11.51,1.92-3.31,4.6-5.85,8.03-7.61,3.42-1.76,7.34-2.64,11.75-2.64M403.19,80.11c-1.41-.35-2.83-.52-4.28-.52s-2.86.18-4.22.52c-1.37.34-2.69.89-3.95,1.64-1.25.74-2.35,1.67-3.3,2.76-.95,1.09-1.7,2.44-2.27,4.04-.56,1.6-.84,3.37-.84,5.29,0,4.59,1.44,8.29,4.32,11.08,2.87,2.79,6.47,4.18,10.77,4.18,1.8,0,3.54-.29,5.21-.87,1.69-.58,3.24-1.43,4.67-2.56,1.43-1.14,2.58-2.68,3.44-4.63.87-1.95,1.3-4.17,1.3-6.66,0-2.03-.31-3.89-.92-5.57-.59-1.68-1.4-3.08-2.39-4.2-.99-1.11-2.15-2.06-3.47-2.83-1.31-.78-2.67-1.34-4.07-1.68Z" />
    <polyline class="cls-1" points="431.42 73.13 439.81 73.13 463.76 105.72 463.76 73.13 471.37 73.13 471.37 115.55 462.88 115.55 439.03 82.89 439.03 115.55 431.42 115.55 431.42 73.13" />
    <path class="cls-1" d="M496.94,73.13h8.33l16.96,42.41h-7.82l-4.8-11.1h-17.52l-4.79,11.1h-7.37l17-42.41M506.95,97.55l-6.09-15.73-6.13,15.73h12.22Z" />
    <polyline class="cls-1" points="531.28 73.13 538.89 73.13 538.89 108.66 560.63 108.66 560.63 115.55 531.28 115.55 531.28 73.13" />
    <path class="cls-3" d="M508.66,173.33l-3.72,2.52c-.54.39-1.44.39-1.97,0l-3.73-2.52c-.52-.38-.52-1,0-1.37l3.73-2.53c.53-.37,1.43-.37,1.97,0l3.72,2.53c.55.36.55.98,0,1.37M500.08,167.46l-3.72,2.52c-.54.39-1.44.39-1.97,0l-3.73-2.52c-.53-.38-.53-1,0-1.37l3.73-2.52c.53-.36,1.44-.36,1.97,0l3.72,2.52c.55.36.55.99,0,1.37M491.49,173.33l-3.72,2.52c-.54.39-1.44.39-1.97,0l-3.73-2.52c-.52-.38-.52-1,0-1.37l3.73-2.53c.53-.37,1.43-.37,1.97,0l3.72,2.53c.56.36.56.98,0,1.37M491.49,185.03l-3.72,2.52c-.54.38-1.44.38-1.97,0l-3.73-2.52c-.52-.38-.52-1,0-1.37l3.73-2.52c.53-.37,1.43-.37,1.97,0l3.72,2.52c.56.36.56.99,0,1.37M508.66,185.03l-3.72,2.53c-.54.39-1.44.39-1.97,0l-3.73-2.53c-.52-.39-.52-.99,0-1.36l3.73-2.53c.53-.38,1.43-.38,1.97,0l3.72,2.53c.55.38.55.97,0,1.36ZM500.08,177.81c.54.38.54.98,0,1.37l-3.72,2.54c-.54.36-1.44.36-1.97,0l-3.72-2.54c-.55-.38-.55-.98,0-1.37l3.72-2.53c.53-.36,1.43-.36,1.97,0l3.72,2.53ZM518.32,155.53h-2.03v-7.2h-6.96v7.2h-1.24c-24.9,0-33.64,14.63-33.64,21.48,0,11.72,9.31,16.66,9.31,16.66h58.89s9.3-4.93,9.3-16.66c0-6.85-8.71-21.48-33.63-21.48ZM497.35,210.01c0,13.96,14.19,24.46,13.72,25.18-.46.72-21.03-9.93-21.03-26.34v-11.88h-7.37v10.68c0,24.82,30.55,37.8,30.55,37.8,0,0,30.54-12.98,30.54-37.8v-10.68h-46.4v13.04Z" />
    <g>
      <path class="cls-2" d="M12.65,178.23c2.15,0,4.27.32,6.36.95l.66.2-1.33,3.76-.62-.18c-1.95-.54-3.73-.81-5.34-.81s-2.94.26-4.07.78c-1.13.52-1.69,1.18-1.69,1.99,0,.53.25.99.75,1.39.5.4,1.15.74,1.95,1.01.8.27,1.68.55,2.65.82.97.27,1.93.58,2.9.94.97.36,1.86.77,2.65,1.23.8.46,1.45,1.08,1.95,1.86.5.77.75,1.66.75,2.66,0,.65-.11,1.29-.33,1.92-.22.63-.59,1.25-1.12,1.87-.52.62-1.17,1.15-1.94,1.61-.77.46-1.75.83-2.95,1.12-1.19.29-2.53.43-4.01.43s-2.81-.14-4-.41c-1.19-.27-2.44-.67-3.77-1.19l-.6-.22,1.38-3.92.63.24c2.73.97,4.98,1.46,6.75,1.46,1.66,0,3.01-.26,4.04-.76,1.03-.51,1.55-1.18,1.55-2.01,0-.46-.16-.88-.47-1.24-.31-.37-.73-.68-1.26-.93-.53-.25-1.14-.49-1.82-.71-.69-.21-1.41-.42-2.16-.63-.75-.21-1.51-.43-2.27-.67-.75-.24-1.47-.52-2.16-.86-.69-.34-1.29-.71-1.82-1.13-.53-.42-.95-.95-1.26-1.58-.31-.63-.47-1.33-.47-2.11,0-1.94.95-3.57,2.86-4.89,1.9-1.31,4.45-1.97,7.62-1.97Z" />
      <path class="cls-2" d="M29.6,201.44v-23h16.14v3.76h-12.04v5.52h11.15v3.76h-11.15v6.22h12.04v3.75h-16.14Z" />
      <path class="cls-2" d="M68.48,178.27c2.42,0,4.71.43,6.88,1.28l.6.24-1.28,3.5-.61-.21c-2.09-.7-3.99-1.05-5.68-1.05-1.34,0-2.58.22-3.72.66-1.14.44-2.08,1.02-2.83,1.76-.75.73-1.33,1.57-1.75,2.53-.42.95-.62,1.94-.62,2.98s.22,2.08.67,3.05c.45.96,1.07,1.81,1.88,2.54.8.73,1.81,1.31,3.03,1.73,1.22.43,2.55.64,4,.64,1.77,0,3.54-.31,5.31-.94l.6-.21,1.33,3.24-.6.26c-2.34,1-4.81,1.5-7.41,1.5-2.02,0-3.85-.31-5.5-.92-1.65-.62-3-1.46-4.07-2.53-1.07-1.07-1.89-2.32-2.47-3.75-.58-1.43-.87-2.96-.87-4.6s.3-3.21.89-4.63c.59-1.43,1.44-2.66,2.54-3.71,1.1-1.05,2.48-1.87,4.14-2.46,1.66-.6,3.5-.89,5.53-.89Z" />
    </g>
  </g>
  <path class="cls-2" d="M87.68,190.17c-.81,0-1.57-.15-2.28-.46-.71-.3-1.32-.72-1.84-1.25-.52-.52-.93-1.14-1.23-1.84-.3-.7-.45-1.45-.45-2.24v-.03c0-.79.15-1.54.45-2.24.3-.7.71-1.32,1.24-1.85.53-.53,1.14-.95,1.86-1.26.71-.31,1.48-.47,2.29-.47s1.57.15,2.28.46c.71.31,1.32.72,1.84,1.25.52.53.93,1.14,1.23,1.84.3.7.45,1.45.45,2.24v.03c0,.79-.15,1.54-.45,2.24-.3.7-.71,1.32-1.24,1.85-.53.53-1.14.95-1.86,1.26-.71.31-1.48.47-2.29.47ZM87.68,189.59c.74,0,1.43-.14,2.07-.42.64-.28,1.19-.65,1.66-1.13.47-.47.83-1.03,1.1-1.66.27-.64.4-1.32.4-2.03v-.03c0-.72-.13-1.39-.39-2.03-.26-.63-.63-1.18-1.09-1.65-.47-.47-1.02-.84-1.65-1.12s-1.32-.41-2.06-.41-1.43.14-2.07.42c-.64.28-1.19.65-1.66,1.12-.47.47-.83,1.03-1.1,1.66-.27.64-.4,1.31-.4,2.03v.03c0,.72.13,1.39.39,2.02.26.63.63,1.18,1.09,1.66.47.47,1.02.84,1.65,1.12.63.27,1.32.41,2.06.41ZM85.35,181.14h2.72c.79,0,1.41.22,1.85.66.33.31.5.74.5,1.27v.03c0,.49-.13.89-.39,1.2-.26.31-.6.52-1.02.64l1.64,2.3h-1.38l-1.48-2.11h-1.27v2.11h-1.16v-6.09ZM88.02,184.11c.37,0,.67-.09.88-.26s.32-.4.32-.69v-.03c0-.31-.11-.55-.32-.71s-.51-.24-.88-.24h-1.51v1.93h1.51Z" />
</svg>
