<?xml version="1.0" encoding="UTF-8"?>
<svg id="PANTONE" xmlns="http://www.w3.org/2000/svg" viewBox="0 0 564.64 178.82">
  <defs>
    <style>
      .cls-1 {
        fill: #056e39;
      }

      .cls-2 {
        fill: #808285;
      }

      .cls-3 {
        fill-rule: evenodd;
      }

      .cls-3, .cls-4 {
        fill: #ffc60b;
      }
    </style>
  </defs>
  <polyline class="cls-1" points="531.28 6.5 538.89 6.5 538.89 42.02 560.63 42.02 560.63 48.91 531.28 48.91 531.28 6.5" />
  <g>
    <rect class="cls-4" y="78.12" width="564.64" height="4.35" />
    <polyline class="cls-1" points="9.9 6.93 9.9 19.37 34.82 19.37 34.82 26.3 9.9 26.3 9.9 48.91 2.26 48.91 2.26 0 36.64 0 36.64 6.93 9.9 6.93" />
    <rect class="cls-1" x="47.01" y="6.5" width="7.61" height="42.41" />
    <path class="cls-1" d="M103.07,18.65c0,1.35-.16,2.64-.49,3.87-.33,1.22-.86,2.4-1.57,3.54-.72,1.13-1.7,2.15-2.93,3.04-1.24.89-2.71,1.59-4.39,2.1l12.96,17.72h-9.91l-12.02-16.45h-7.28v16.45h-7.61V6.5h18.27c.9,0,1.73.02,2.49.07.75.06,1.67.17,2.75.36,1.08.19,2.04.44,2.87.76.83.32,1.7.78,2.59,1.41.9.61,1.64,1.34,2.24,2.16.59.82,1.08,1.87,1.46,3.14.39,1.25.57,2.67.57,4.25M77.44,13.39v12.15h7.01c1.2,0,2.28-.05,3.2-.12.92-.08,1.88-.25,2.87-.5.98-.25,1.8-.6,2.43-1.03.63-.44,1.15-1.05,1.57-1.82.41-.77.62-1.69.62-2.75,0-3.96-3.09-5.94-9.27-5.94h-8.43Z" />
    <path class="cls-1" d="M132.58,24.09c9.16,2.2,13.92,5.44,13.92,12.59,0,8.06-6.37,12.83-15.46,12.83-6.61,0-12.86-2.26-18.05-6.84l4.57-5.38c4.15,3.54,8.29,5.56,13.67,5.56,4.71,0,7.67-2.14,7.67-5.44,0-3.11-1.73-4.76-9.77-6.6-9.21-2.2-14.4-4.89-14.4-12.83,0-7.46,6.18-12.48,14.78-12.48,6.3,0,11.32,1.9,15.71,5.38l-4.08,5.68c-3.9-2.87-7.79-4.4-11.75-4.4-4.45,0-7.05,2.26-7.05,5.13,0,3.37,1.98,4.83,10.25,6.79" />
    <polyline class="cls-1" points="152.67 6.5 191.43 6.5 191.43 13.42 175.85 13.42 175.85 48.91 168.25 48.91 168.25 13.42 152.67 13.42 152.67 6.5" />
    <polyline class="cls-1" points="218.63 0 227.02 0 253.48 37.96 253.48 0 261.09 0 261.09 48.91 252.61 48.91 226.24 10.89 226.24 48.91 218.63 48.91 218.63 0" />
    <path class="cls-1" d="M286.3,6.5h8.33l16.96,42.41h-7.82l-4.79-11.1h-17.51l-4.81,11.1h-7.36l17-42.41M296.31,30.91l-6.1-15.73-6.12,15.73h12.22Z" />
    <polyline class="cls-1" points="311.9 6.5 350.67 6.5 350.67 13.42 335.09 13.42 335.09 48.91 327.48 48.91 327.48 13.42 311.9 13.42 311.9 6.5" />
    <rect class="cls-1" x="358.56" y="6.5" width="7.61" height="42.41" />
    <path class="cls-1" d="M399.22,6.05c4.37,0,8.25.84,11.65,2.53,3.41,1.7,6.07,4.16,8.04,7.39,1.95,3.23,2.92,6.99,2.92,11.26s-.95,8.19-2.87,11.54c-1.91,3.35-4.6,5.96-8.06,7.81-3.46,1.85-7.44,2.78-11.92,2.78-2.96,0-5.77-.46-8.42-1.36-2.66-.9-5.04-2.22-7.14-3.97-2.11-1.74-3.77-4-5.02-6.79-1.23-2.78-1.85-5.92-1.85-9.43,0-4.36.97-8.19,2.91-11.51,1.92-3.31,4.6-5.85,8.02-7.61,3.42-1.76,7.33-2.64,11.75-2.64M403.19,13.47c-1.41-.35-2.83-.52-4.28-.52s-2.85.17-4.22.52c-1.37.34-2.69.89-3.95,1.64-1.25.74-2.35,1.67-3.3,2.76-.95,1.09-1.7,2.44-2.27,4.04-.56,1.6-.84,3.37-.84,5.29,0,4.59,1.44,8.29,4.32,11.08,2.87,2.79,6.47,4.18,10.77,4.18,1.8,0,3.54-.29,5.21-.87,1.68-.58,3.24-1.43,4.67-2.56,1.43-1.14,2.58-2.68,3.44-4.63.87-1.95,1.3-4.17,1.3-6.66,0-2.03-.31-3.89-.92-5.57-.59-1.68-1.4-3.08-2.4-4.2-.99-1.11-2.15-2.06-3.47-2.83-1.32-.78-2.67-1.34-4.07-1.68Z" />
    <polyline class="cls-1" points="431.42 6.5 439.81 6.5 463.76 39.09 463.76 6.5 471.36 6.5 471.36 48.91 462.88 48.91 439.03 16.25 439.03 48.91 431.42 48.91 431.42 6.5" />
    <path class="cls-1" d="M496.94,6.5h8.33l16.97,42.41h-7.82l-4.8-11.1h-17.52l-4.79,11.1h-7.37l17-42.41M506.95,30.91l-6.09-15.73-6.13,15.73h12.22Z" />
    <path class="cls-2" d="M5.85,115.62v5.41h10.71v3.7H5.85v9.79H1.83v-22.59h15.69v3.69H5.85Z" />
    <path class="cls-2" d="M27.46,111.93h4.01v22.59h-4.01v-22.59Z" />
    <path class="cls-2" d="M43.62,111.93h4.42l12.61,17.36v-17.36h4v22.59h-4.46l-12.56-17.4v17.4h-4v-22.59Z" />
    <path class="cls-2" d="M81.32,111.93h4.38l8.93,22.59h-4.12l-2.53-5.92h-9.22l-2.52,5.92h-3.88l8.95-22.59ZM86.6,124.94l-3.21-8.38-3.23,8.38h6.44Z" />
    <path class="cls-2" d="M103.64,111.93h4.42l12.61,17.36v-17.36h4v22.59h-4.46l-12.56-17.4v17.4h-4.01v-22.59Z" />
    <path class="cls-2" d="M146.65,111.77c2.37,0,4.63.41,6.76,1.26l.59.23-1.26,3.43-.6-.21c-2.05-.68-3.91-1.03-5.58-1.03-1.32,0-2.53.22-3.65.65-1.12.43-2.05,1-2.78,1.72-.74.72-1.31,1.55-1.72,2.48-.41.93-.61,1.9-.61,2.92s.22,2.05.66,2.99c.44.95,1.06,1.78,1.85,2.5.79.71,1.78,1.29,2.98,1.7,1.2.43,2.51.63,3.93.63,1.74,0,3.47-.31,5.21-.92l.59-.21,1.3,3.18-.58.25c-2.3.98-4.73,1.47-7.29,1.47-1.98,0-3.78-.3-5.39-.91-1.62-.6-2.95-1.43-4-2.48-1.05-1.06-1.86-2.29-2.43-3.69-.57-1.4-.85-2.91-.85-4.51s.29-3.15.87-4.55c.58-1.4,1.41-2.61,2.5-3.64,1.08-1.03,2.44-1.84,4.07-2.42,1.63-.58,3.45-.87,5.43-.87Z" />
    <path class="cls-2" d="M161.99,111.93h4.01v22.59h-4.01v-22.59Z" />
    <path class="cls-2" d="M183.03,111.93h4.39l8.93,22.59h-4.12l-2.52-5.92h-9.22l-2.53,5.92h-3.88l8.95-22.59ZM188.31,124.94l-3.21-8.38-3.23,8.38h6.43Z" />
    <path class="cls-2" d="M204.44,111.93h4v18.92h11.45v3.67h-15.45v-22.59Z" />
    <path class="cls-2" d="M241.31,111.93h4.01v18.92h11.45v3.67h-15.45v-22.59Z" />
    <path class="cls-2" d="M266.99,111.93h8.1c.46,0,.86,0,1.19,0,.33,0,.76.02,1.31.07.54.04,1.02.1,1.41.19.4.08.86.19,1.37.34.51.15.95.33,1.32.53.36.21.74.48,1.13.81.38.33.7.69.93,1.1.23.41.42.89.58,1.45.15.56.23,1.19.23,1.87,0,.95-.12,1.81-.37,2.57-.25.77-.57,1.41-.97,1.92-.4.52-.9.97-1.52,1.34-.62.38-1.24.67-1.88.89-.63.21-1.36.38-2.2.5-.84.12-1.6.2-2.3.24-.69.04-1.48.05-2.38.05-.43,0-1.08-.02-1.95-.06v8.78h-4v-22.59ZM270.99,115.62v6.44c.83.05,1.57.08,2.25.08.72,0,1.34-.02,1.86-.04.53-.02,1.08-.08,1.69-.15.6-.07,1.1-.19,1.51-.35.41-.16.79-.36,1.13-.6.35-.24.61-.56.78-.94.18-.38.27-.83.27-1.33,0-.46-.08-.86-.22-1.2-.15-.34-.37-.63-.68-.84-.3-.21-.63-.4-.99-.54-.35-.15-.78-.26-1.28-.33-.5-.06-.98-.12-1.44-.14-.46-.03-.99-.04-1.59-.04h-3.29Z" />
    <path class="cls-3" d="M508.66,106.69l-3.72,2.52c-.54.39-1.44.39-1.97,0l-3.73-2.52c-.52-.38-.52-1.01,0-1.37l3.73-2.53c.53-.37,1.43-.37,1.97,0l3.72,2.53c.55.36.55.98,0,1.37M500.08,100.82l-3.72,2.52c-.54.39-1.44.39-1.97,0l-3.73-2.52c-.53-.38-.53-1.01,0-1.37l3.73-2.52c.53-.36,1.43-.36,1.97,0l3.72,2.52c.55.36.55.99,0,1.37M491.5,106.69l-3.72,2.52c-.54.39-1.44.39-1.97,0l-3.73-2.52c-.52-.38-.52-1.01,0-1.37l3.73-2.53c.53-.37,1.43-.37,1.97,0l3.72,2.53c.56.36.56.98,0,1.37M491.5,118.39l-3.72,2.53c-.54.38-1.44.38-1.97,0l-3.73-2.53c-.52-.38-.52-1,0-1.37l3.73-2.52c.53-.36,1.43-.36,1.97,0l3.72,2.52c.56.36.56.99,0,1.37M508.66,118.39l-3.72,2.54c-.54.39-1.44.39-1.97,0l-3.73-2.54c-.52-.39-.52-.99,0-1.36l3.73-2.54c.53-.38,1.43-.38,1.97,0l3.72,2.54c.55.37.55.97,0,1.36ZM500.08,111.17c.54.38.54.98,0,1.37l-3.72,2.54c-.54.36-1.44.36-1.97,0l-3.72-2.54c-.55-.38-.55-.98,0-1.37l3.72-2.53c.53-.36,1.43-.36,1.97,0l3.72,2.53ZM518.32,88.89h-2.03v-7.2h-6.96v7.2h-1.24c-24.9,0-33.64,14.63-33.64,21.48,0,11.72,9.31,16.66,9.31,16.66h58.89s9.3-4.93,9.3-16.66c0-6.85-8.71-21.48-33.63-21.48ZM497.35,143.37c0,13.96,14.19,24.46,13.72,25.18-.46.71-21.04-9.93-21.04-26.34v-11.88h-7.37v10.68c0,24.82,30.55,37.81,30.55,37.81,0,0,30.54-12.98,30.54-37.81v-10.68h-46.4v13.04Z" />
    <path class="cls-2" d="M295.98,123.15c-.81,0-1.56-.15-2.27-.45-.7-.3-1.31-.72-1.83-1.24-.52-.52-.92-1.13-1.22-1.83-.3-.7-.45-1.44-.45-2.23v-.03c0-.79.15-1.53.45-2.23.3-.7.71-1.31,1.23-1.84.52-.53,1.14-.94,1.84-1.25.71-.31,1.47-.46,2.28-.46s1.56.15,2.27.45c.7.3,1.31.72,1.83,1.24.52.52.92,1.13,1.22,1.83.3.7.45,1.44.45,2.23v.03c0,.79-.15,1.53-.45,2.23-.3.7-.71,1.31-1.23,1.84-.52.53-1.14.95-1.84,1.25-.71.31-1.47.46-2.28.46ZM295.98,122.58c.73,0,1.42-.14,2.05-.41.63-.28,1.18-.65,1.65-1.12.46-.47.83-1.02,1.09-1.65.27-.63.4-1.31.4-2.02v-.03c0-.71-.13-1.38-.39-2.01-.26-.63-.62-1.18-1.09-1.64-.46-.47-1.01-.84-1.64-1.11s-1.31-.41-2.04-.41-1.42.14-2.05.42c-.63.28-1.18.65-1.65,1.12-.46.47-.83,1.02-1.09,1.65-.27.63-.4,1.31-.4,2.02v.03c0,.71.13,1.38.39,2.01.26.63.62,1.18,1.09,1.65.46.47,1.01.84,1.64,1.11.63.27,1.31.41,2.04.41ZM293.67,114.18h2.7c.79,0,1.4.22,1.84.65.33.31.49.73.49,1.26v.03c0,.49-.13.89-.39,1.19-.26.3-.6.51-1.01.63l1.63,2.28h-1.37l-1.47-2.09h-1.26v2.09h-1.15v-6.05ZM296.32,117.14c.37,0,.66-.09.88-.26s.32-.4.32-.69v-.03c0-.31-.11-.54-.32-.7s-.51-.24-.88-.24h-1.5v1.92h1.5Z" />
  </g>
</svg>
