<?xml version="1.0" encoding="UTF-8"?>
<svg id="Layer_1" xmlns="http://www.w3.org/2000/svg" width="155" height="50" version="1.1" viewBox="0 0 155 50">
  <!-- Generator: Adobe Illustrator 29.6.1, SVG Export Plug-In . SVG Version: 2.1.1 Build 9)  -->
  <defs>
    <style>
      .st0 {
        fill: #010101;
      }

      .st1 {
        fill: #252525;
      }

      .st2 {
        fill: #fff;
      }

      .st3 {
        fill: #dd1f26;
      }
    </style>
  </defs>
  <g>
    <path class="st3" d="M-186.4,13.8c-.8.2-1.3.3-1.8,0-.4-.2-.8-.6-1-1.1l-5.1-7c-.3-.4-.6-.9-1.1-1.1-.5-.2-1.1,0-1.8,0l-16.4,4.4v30.6l16.5-4.4c.8-.2,1.3-.3,1.8,0,.4.2.7.6,1,1l5.1,7c.3.4.6.9,1.1,1,.5.2,1.1,0,1.8,0l16.5-4.4V9.3l-16.5,4.4Z"/>
    <g>
      <path d="M-150.6,15.4c.5-.3,1.6-.8,1.6-2.7s-.8-3.3-4-3.3h-3.6l-2.7,1.3v11.7h5.5c2.7,0,3.4-.5,4.1-1.2.7-.7,1.1-1.7,1.1-2.7s-.4-2.6-2-3.2ZM-156.7,11.6h3.1c1.2,0,2,.3,2,1.4s-.9,1.5-1.9,1.5h-3.2v-2.8ZM-153.4,20.1h-3.3v-3.5h3.5c1,0,2,.4,2,1.6s-.8,1.9-2.1,1.9Z"/>
      <polygon points="-85.6 20.1 -85.6 20.1 -92.8 20.1 -92.8 16.7 -87.8 16.7 -86.5 14.4 -92.8 14.4 -92.8 11.6 -87.2 11.6 -85.9 9.3 -92.5 9.3 -95.5 10.8 -95.5 22.4 -86.9 22.4 -85.6 20.1"/>
      <path d="M-111.1,20.5c.8-1,1.4-2.5,1.4-4.6,0-6.1-4.5-6.9-6.3-6.9s-.3,0-.4,0l-4.5,2.2c-.8,1-1.4,2.5-1.4,4.7,0,6.1,4.5,6.9,6.3,6.9s2.1-.1,3.3-.9l1.5,1.5,1.4-1.5-1.4-1.3ZM-113.1,18.7l-1.4-1.3-1.4,1.5,1.3,1.2c-.5.3-1,.3-1.5.3-1.5,0-3.5-.9-3.5-4.6s2.1-4.6,3.5-4.6,3.5.9,3.5,4.6-.2,2.1-.6,2.8Z"/>
      <path d="M-100.3,10.7v7.2c0,1.6-.8,2.5-2.6,2.5s-2.3-.8-2.3-2.6v-8.5h0l-2.8,1.4v7.3c0,1.3.3,2.4,1,3.2,1.2,1.3,2.9,1.6,4.1,1.6,3.3,0,5.4-1.5,5.4-4.9v-8.5h0l-2.8,1.4Z"/>
      <polygon points="-126.6 10.6 -126.6 18.4 -126.7 18.4 -131.8 9.3 -134.7 10.7 -134.7 22.4 -132.2 22.4 -132.2 13.1 -132.1 13.1 -126.8 22.4 -124.1 22.4 -124.1 9.3 -126.6 10.6"/>
      <path d="M-140.4,9.3h0l-3.8,1.9-4,11.2h2.9l.9-2.7h4.8l.8,2.7h3l-4.6-13ZM-143.7,17.4l1.7-5.2h0l1.6,5.2h-3.3Z"/>
      <polygon points="-60.3 37.7 -60.3 37.7 -67.5 37.7 -67.5 34.3 -62.5 34.3 -61.1 32 -67.5 32 -67.5 29.2 -61.9 29.2 -60.6 26.9 -67.2 26.9 -70.2 28.4 -70.2 40 -61.6 40 -60.3 37.7"/>
      <polygon points="-151.2 28.2 -151.2 36 -151.3 36 -156.4 26.9 -159.3 28.3 -159.3 40 -156.8 40 -156.8 30.7 -156.7 30.7 -151.4 40 -148.7 40 -148.7 26.9 -151.2 28.2"/>
      <path d="M-139.6,26.9h0l-3.8,1.8-4,11.2h2.9l.9-2.7h4.8l.8,2.7h3l-4.6-13ZM-142.9,35l1.7-5.2h0l1.6,5.2h-3.3Z"/>
      <path d="M-86.4,26.9h0l-3.8,1.8-4,11.2h2.9l.9-2.7h4.8l.8,2.7h3l-4.6-13ZM-89.6,35l1.7-5.2h0l1.6,5.2h-3.3Z"/>
      <polygon points="-126 26.9 -135.3 26.9 -136.6 29.2 -136.6 29.2 -132.7 29.2 -132.7 40 -130 40 -130 29.2 -127.4 29.2 -126 26.9"/>
      <polygon points="-124.9 28.3 -124.9 40 -122.2 40 -122.2 26.9 -122.2 26.9 -124.9 28.3"/>
      <path d="M-114.2,26.6c-.1,0-.3,0-.4,0l-4.5,2.2c-.8,1-1.4,2.5-1.4,4.6,0,6.1,4.5,6.9,6.3,6.9s6.3-.7,6.3-6.9-4.5-6.9-6.3-6.9ZM-114.2,38c-1.5,0-3.5-.9-3.5-4.6s2.1-4.6,3.5-4.6,3.5.9,3.5,4.6-2.1,4.6-3.5,4.6Z"/>
      <polygon points="-98 28.2 -98 36 -98.1 36 -103.2 26.9 -106.1 28.3 -106.1 40 -103.6 40 -103.6 30.7 -103.5 30.7 -98.2 40 -95.5 40 -95.5 26.9 -98 28.2"/>
      <polygon points="-71.2 37.6 -77.7 37.6 -77.7 26.9 -80.4 28.3 -80.4 40 -72.6 40 -71.2 37.6"/>
    </g>
  </g>
  <g>
    <path class="st3" d="M28.7,13.5c-.8.2-1.3.3-1.9,0-.4-.2-.8-.6-1.1-1.1l-5.2-7.1c-.3-.4-.7-.9-1.1-1.1-.6-.2-1.1,0-1.9,0L1,8.9v31.1l16.7-4.5c.8-.2,1.3-.3,1.9,0,.4.2.8.6,1.1,1.1l5.1,7.1c.3.4.6.9,1.1,1.1.6.2,1.1,0,1.9,0l16.7-4.5V9l-16.7,4.5Z"/>
    <g>
      <polygon points="64.4 10.4 64.4 18.3 64.3 18.3 59.1 9.1 56.2 10.5 56.2 22.3 58.8 22.3 58.8 12.9 58.8 12.9 64.2 22.3 67 22.3 67 9.1 64.4 10.4"/>
      <path d="M76.2,9.1h0l-3.8,1.9-4,11.3h2.9l.9-2.7h4.9l.8,2.7h3l-4.7-13.2ZM72.8,17.3l1.7-5.2h0l1.6,5.2h-3.4Z"/>
      <path d="M130.2,9.1h0l-3.9,1.9-4,11.3h2.9l.9-2.7h4.9l.8,2.7h3l-4.7-13.2ZM126.9,17.3l1.7-5.2h0l1.6,5.2h-3.4Z"/>
      <polygon points="90 9.1 80.6 9.1 79.2 11.4 79.2 11.5 83.2 11.5 83.2 22.3 86 22.3 86 11.5 88.6 11.5 90 9.1"/>
      <polygon points="91.1 10.5 91.1 22.3 93.8 22.3 93.8 9.1 93.8 9.1 91.1 10.5"/>
      <path d="M102,8.8c-.1,0-.3,0-.4,0l-4.6,2.2c-.8,1-1.4,2.5-1.4,4.7,0,6.2,4.6,7,6.4,7s6.4-.8,6.4-7-4.6-7-6.4-7ZM102,20.3c-1.5,0-3.6-.9-3.6-4.6s2.1-4.6,3.6-4.6,3.6.9,3.6,4.6-2.1,4.6-3.6,4.6Z"/>
      <polygon points="118.4 10.4 118.4 18.3 118.3 18.3 113.1 9.1 110.2 10.5 110.2 22.3 112.7 22.3 112.7 12.9 112.8 12.9 118.2 22.3 120.9 22.3 120.9 9.1 118.4 10.4"/>
      <polygon points="145.6 19.9 139 19.9 139 9.1 136.2 10.5 136.2 22.3 144.2 22.3 145.6 19.9"/>
      <path d="M65.1,33.1c.6-.3,1.6-.8,1.6-2.7s-.8-3.4-4.1-3.4h-3.6l-2.8,1.4v11.9h5.6c2.7,0,3.4-.5,4.2-1.2.7-.7,1.1-1.7,1.1-2.7s-.4-2.6-2-3.2ZM58.8,29.2h3.2c1.3,0,2,.3,2,1.4s-.9,1.5-2,1.5h-3.2v-2.9ZM62.2,37.9h-3.4v-3.5h3.5c1,0,2,.4,2,1.6s-.8,1.9-2.1,1.9Z"/>
      <polygon points="89.4 28.2 89.4 36.2 89.3 36.2 84.1 27 81.2 28.4 81.2 40.2 83.7 40.2 83.7 30.8 83.8 30.8 89.2 40.2 91.9 40.2 91.9 27 89.4 28.2"/>
      <path d="M75.3,27h0l-3.9,1.9-4,11.3h2.9l.9-2.7h4.9l.8,2.7h3l-4.7-13.2ZM72,35.2l1.7-5.2h0l1.6,5.2h-3.4Z"/>
      <polygon points="105.6 27 101.3 27.7 97 32.3 97 27 94.2 28.3 94.2 40.2 97 40.2 97 35.7 98.3 34.4 102.4 40.2 105.9 40.2 100.2 32.4 105.6 27"/>
    </g>
  </g>
  <g>
    <path class="st3" d="M41,356.4c-.8.2-1.4.3-2,0-.5-.2-.8-.7-1.1-1.1l-5.4-7.4c-.3-.4-.7-.9-1.1-1.1-.6-.2-1.2,0-2,0l-17.5,4.7v32.7l17.6-4.7c.8-.2,1.4-.3,2,0,.4.2.8.7,1.1,1.1l5.4,7.4c.3.4.7.9,1.1,1.1.6.2,1.2,0,2,0l17.6-4.7v-32.7l-17.6,4.7Z"/>
    <rect x="70" y="390.8" width="138.7" height=".9"/>
    <g>
      <path d="M79.3,358.1c.6-.3,1.7-.9,1.7-2.8s-.9-3.6-4.3-3.6h-3.8l-2.9,1.4v12.5h5.9c2.8,0,3.6-.5,4.4-1.3.7-.7,1.2-1.8,1.2-2.9s-.4-2.7-2.1-3.4ZM72.7,354.1h3.3c1.3,0,2.1.3,2.1,1.5s-.9,1.5-2.1,1.5h-3.4v-3ZM76.3,363.2h-3.6v-3.7h3.7c1,0,2.1.5,2.1,1.7s-.8,2-2.2,2Z"/>
      <polygon points="148.6 363.1 148.6 363.1 140.9 363.1 140.9 359.5 146.2 359.5 147.7 357 140.9 357 140.9 354.1 146.8 354.1 148.3 351.7 141.2 351.7 138 353.2 138 365.6 147.2 365.6 148.6 363.1"/>
      <path d="M121.3,363.6c.9-1.1,1.5-2.7,1.5-5,0-6.5-4.8-7.3-6.7-7.3s-.3,0-.4,0l-4.8,2.3c-.9,1.1-1.5,2.7-1.5,5,0,6.5,4.8,7.3,6.7,7.3s2.2-.2,3.6-.9l1.6,1.6,1.5-1.6-1.5-1.4ZM119.3,361.6l-1.5-1.4-1.5,1.6,1.4,1.3c-.5.3-1.1.4-1.6.4-1.6,0-3.8-1-3.8-4.9s2.2-4.9,3.8-4.9,3.8,1,3.8,4.9-.3,2.3-.6,3Z"/>
      <path d="M132.9,353.1v7.7c0,1.7-.8,2.7-2.8,2.7s-2.5-.9-2.5-2.8v-9h0l-3,1.4v7.8c0,1.4.3,2.5,1.1,3.4,1.2,1.4,3.1,1.7,4.4,1.7,3.5,0,5.7-1.6,5.7-5.2v-9h0l-3,1.4Z"/>
      <polygon points="104.8 353 104.8 361.3 104.8 361.3 99.3 351.7 96.2 353.2 96.2 365.6 98.9 365.6 98.9 355.6 99 355.6 104.6 365.6 107.5 365.6 107.5 351.7 104.8 353"/>
      <path d="M90.1,351.7h0l-4,2-4.3,11.9h3.1l1-2.9h5.1l.9,2.9h3.2l-4.9-13.9ZM86.6,360.3l1.8-5.5h0l1.7,5.5h-3.5Z"/>
      <polygon points="175.6 381.9 175.6 381.9 167.9 381.9 167.9 378.3 173.2 378.3 174.7 375.8 167.9 375.8 167.9 372.9 173.8 372.9 175.3 370.4 168.2 370.4 165 372 165 384.3 174.2 384.3 175.6 381.9"/>
      <polygon points="78.6 371.7 78.6 380.1 78.5 380.1 73 370.4 70 371.9 70 384.3 72.7 384.3 72.7 374.4 72.7 374.4 78.4 384.3 81.3 384.3 81.3 370.4 78.6 371.7"/>
      <path d="M91,370.4h0l-4,2-4.3,11.9h3.1l1-2.9h5.1l.9,2.9h3.2l-4.9-13.9ZM87.5,379.1l1.8-5.5h0l1.7,5.5h-3.5Z"/>
      <path d="M147.8,370.4h0l-4,2-4.3,11.9h3.1l1-2.9h5.1l.9,2.9h3.2l-4.9-13.9ZM144.3,379.1l1.8-5.5h0l1.7,5.5h-3.5Z"/>
      <polygon points="105.5 370.4 95.6 370.4 94.2 372.9 94.2 372.9 98.4 372.9 98.4 384.3 101.3 384.3 101.3 372.9 104 372.9 105.5 370.4"/>
      <polygon points="106.6 371.8 106.6 384.3 109.5 384.3 109.5 370.4 109.5 370.4 106.6 371.8"/>
      <path d="M118.1,370.1c-.1,0-.3,0-.4,0l-4.8,2.3c-.9,1.1-1.4,2.7-1.4,5,0,6.5,4.8,7.3,6.7,7.3s6.7-.8,6.7-7.3-4.8-7.3-6.7-7.3ZM118.1,382.2c-1.6,0-3.8-1-3.8-4.9s2.2-4.9,3.8-4.9,3.8,1,3.8,4.9-2.2,4.9-3.8,4.9Z"/>
      <polygon points="135.3 371.7 135.3 380.1 135.3 380.1 129.8 370.4 126.7 371.9 126.7 384.3 129.4 384.3 129.4 374.4 129.4 374.4 135.1 384.3 138 384.3 138 370.4 135.3 371.7"/>
      <polygon points="163.9 381.8 157 381.8 157 370.4 154.1 371.8 154.1 384.3 162.4 384.3 163.9 381.8"/>
    </g>
    <g>
      <path d="M69.5,403.9c0-3.6,2.2-6,5.4-6s4.4,1.5,4.9,4.1h-1.8c-.5-1.6-1.5-2.5-3.2-2.5s-3.5,1.7-3.5,4.4,1.3,4.3,3.6,4.3,2.7-.9,3.2-2.6h1.8c-.4,2.5-2.2,4.1-4.9,4.1s-5.4-2.4-5.4-5.9Z"/>
      <path d="M81,403.9c0-3.6,2.2-6,5.3-6s5.3,2.4,5.3,6-2.2,5.9-5.3,5.9-5.3-2.3-5.3-5.9ZM89.9,403.9c0-2.7-1.3-4.4-3.6-4.4s-3.5,1.6-3.5,4.4,1.3,4.3,3.5,4.3,3.6-1.6,3.6-4.3Z"/>
      <path d="M93.4,405.5v-7.3h1.7v7.3c0,1.8.8,2.8,2.4,2.8s2.4-.9,2.4-2.8v-7.3h1.7v7.3c0,2.9-1.4,4.3-4.1,4.3s-4.1-1.5-4.1-4.3Z"/>
      <path d="M103.9,398.2h4.3c2.3,0,3.5,1.3,3.5,3.1s-.7,2.3-1.6,2.7c.9.3,1.5,1,1.5,2.2v2.1c0,.5,0,.9.3,1.2h0s-1.8,0-1.8,0c-.2-.2-.3-.5-.3-1v-2.5c0-.9-.4-1.3-1.3-1.3h-2.9v4.7h-1.7v-11.4ZM109.9,401.6c0-1.1-.7-1.8-1.8-1.8h-2.5v3.6h2.5c1.1,0,1.8-.7,1.8-1.8Z"/>
      <path d="M116,399.7h-3.1v-1.5h7.9v1.5h-3.1v9.9h-1.7v-9.9Z"/>
      <path d="M124.3,398.2h2l4.2,11.4h-1.8l-1-2.9h-4.7l-1,2.9h-1.8l4.2-11.4ZM127.1,405.3l-1.8-5.2-1.8,5.2h3.6Z"/>
      <path d="M130.8,404c0-3.6,2.2-6,5.4-6s4.3,1.5,4.8,4h-1.8c-.5-1.5-1.5-2.4-3-2.4-2.2,0-3.6,1.6-3.6,4.4s1.3,4.3,3.6,4.3,3-.9,3.2-3.2h-3.8v-1.5h5.5v6h-1.4l-.2-1.7c-.6,1.2-1.9,1.9-3.5,1.9-2.9,0-5.1-2.2-5.1-5.9Z"/>
      <path d="M143.5,398.2h6.9v1.5h-5.2v3.3h4.9v1.5h-4.9v3.5h5.5v1.5h-7.2v-11.4Z"/>
      <path d="M156.2,398.2h3.7c3.1,0,5.2,2.2,5.2,5.7s-2,5.7-5.2,5.7h-3.7v-11.4ZM163.3,403.9c0-2.7-1.3-4.2-3.7-4.2h-1.8v8.3h1.8c2.4,0,3.7-1.5,3.7-4.2Z"/>
      <path d="M167,398.2h1.7v11.4h-1.7v-11.4Z"/>
      <path d="M171.3,398.2h4.3c2.3,0,3.5,1.3,3.5,3.1s-.7,2.3-1.6,2.7c.9.3,1.5,1,1.5,2.2v2.1c0,.5,0,.9.3,1.2h0s-1.8,0-1.8,0c-.2-.2-.3-.5-.3-1v-2.5c0-.9-.4-1.3-1.3-1.3h-2.9v4.7h-1.7v-11.4ZM177.4,401.6c0-1.1-.7-1.8-1.8-1.8h-2.5v3.6h2.5c1.1,0,1.8-.7,1.8-1.8Z"/>
      <path d="M181.4,398.2h6.9v1.5h-5.2v3.3h4.9v1.5h-4.9v3.5h5.5v1.5h-7.2v-11.4Z"/>
      <path d="M189.8,403.9c0-3.6,2.2-6,5.4-6s4.4,1.5,4.9,4.1h-1.8c-.5-1.6-1.5-2.5-3.2-2.5s-3.5,1.7-3.5,4.4,1.3,4.3,3.6,4.3,2.7-.9,3.2-2.6h1.8c-.4,2.5-2.2,4.1-4.9,4.1s-5.4-2.4-5.4-5.9Z"/>
      <path d="M203.9,399.7h-3.1v-1.5h7.9v1.5h-3.1v9.9h-1.7v-9.9Z"/>
    </g>
  </g>
  <g>
    <g>
      <polygon points="557.8 354.5 557.8 362.7 557.7 362.7 552.3 353.2 549.3 354.7 549.3 366.9 552 366.9 552 357.1 552 357.1 557.6 366.9 560.4 366.9 560.4 353.2 557.8 354.5"/>
      <path d="M570,353.2h0l-4,1.9-4.2,11.7h3l1-2.8h5l.9,2.8h3.1l-4.8-13.7ZM566.5,361.7l1.8-5.4h0l1.7,5.4h-3.5Z"/>
      <path d="M625.8,353.2h0l-4,1.9-4.2,11.7h3l.9-2.8h5l.9,2.8h3.1l-4.8-13.7ZM622.4,361.7l1.8-5.4h0l1.7,5.4h-3.5Z"/>
      <polygon points="584.2 353.2 574.5 353.2 573.1 355.6 573.1 355.6 577.2 355.6 577.2 366.9 580.1 366.9 580.1 355.6 582.8 355.6 584.2 353.2"/>
      <polygon points="585.3 354.6 585.3 366.9 588.2 366.9 588.2 353.2 588.2 353.2 585.3 354.6"/>
      <path d="M596.6,352.8c-.1,0-.3,0-.4,0l-4.7,2.3c-.8,1.1-1.4,2.6-1.4,4.9,0,6.4,4.8,7.2,6.6,7.2s6.6-.8,6.6-7.2-4.8-7.2-6.6-7.2ZM596.6,364.8c-1.5,0-3.7-1-3.7-4.8s2.2-4.8,3.7-4.8,3.7,1,3.7,4.8-2.2,4.8-3.7,4.8Z"/>
      <polygon points="613.6 354.5 613.6 362.7 613.5 362.7 608.1 353.2 605.1 354.7 605.1 366.9 607.8 366.9 607.8 357.1 607.8 357.1 613.4 366.9 616.2 366.9 616.2 353.2 613.6 354.5"/>
      <polygon points="641.7 364.4 634.9 364.4 634.9 353.2 632 354.6 632 366.9 640.2 366.9 641.7 364.4"/>
      <path d="M558.5,377.9c.6-.3,1.7-.8,1.7-2.8s-.9-3.5-4.2-3.5h-3.8l-2.9,1.4v12.3h5.8c2.8,0,3.5-.5,4.3-1.2.7-.7,1.2-1.7,1.2-2.8s-.4-2.7-2.1-3.3ZM552,374h3.3c1.3,0,2.1.3,2.1,1.5s-.9,1.5-2,1.5h-3.3v-3ZM555.5,382.9h-3.5v-3.7h3.6c1,0,2.1.5,2.1,1.7s-.8,2-2.2,2Z"/>
      <polygon points="583.6 372.9 583.6 381.2 583.5 381.2 578.1 371.6 575.1 373.1 575.1 385.3 577.8 385.3 577.8 375.6 577.8 375.6 583.4 385.3 586.2 385.3 586.2 371.6 583.6 372.9"/>
      <path d="M569.1,371.6h0l-4,1.9-4.2,11.7h3l1-2.8h5l.9,2.8h3.1l-4.8-13.7ZM565.7,380.1l1.8-5.4h0l1.7,5.4h-3.5Z"/>
      <polygon points="600.4 371.6 596 372.4 591.5 377.2 591.5 371.6 588.6 373 588.6 385.3 591.5 385.3 591.5 380.7 592.8 379.3 597 385.3 600.7 385.3 594.8 377.2 600.4 371.6"/>
    </g>
    <path class="st3" d="M520.9,357.8c-.8.2-1.4.3-1.9,0-.4-.2-.8-.7-1.1-1.1l-5.3-7.3c-.3-.4-.7-.9-1.1-1.1-.6-.2-1.1,0-1.9,0l-17.2,4.6v32.1l17.3-4.6c.8-.2,1.4-.3,1.9,0,.4.2.8.7,1.1,1.1l5.3,7.3c.3.4.7.9,1.1,1.1.6.2,1.1,0,1.9,0l17.3-4.6v-32.1l-17.3,4.6Z"/>
    <rect x="549.3" y="391.7" width="145.5" height=".9"/>
    <g>
      <path d="M549.3,399h3.7c3.1,0,5.1,2.2,5.1,5.6s-2,5.6-5.1,5.6h-3.7v-11.2ZM556.3,404.6c0-2.6-1.2-4.1-3.6-4.1h-1.7v8.2h1.7c2.4,0,3.6-1.5,3.6-4.1Z"/>
      <path d="M560,399h1.7v11.2h-1.7v-11.2Z"/>
      <path d="M564.2,399h4.2c2.2,0,3.4,1.3,3.4,3.1s-.6,2.3-1.6,2.6c.9.2,1.5,1,1.5,2.2v2.1c0,.5,0,.9.3,1.2h0s-1.7,0-1.7,0c-.2-.2-.3-.5-.3-.9v-2.5c0-.8-.4-1.2-1.3-1.2h-2.9v4.7h-1.7v-11.2ZM570.1,402.3c0-1.1-.7-1.8-1.8-1.8h-2.5v3.5h2.5c1.1,0,1.8-.7,1.8-1.8Z"/>
      <path d="M574.1,399h6.8v1.5h-5.1v3.2h4.8v1.5h-4.8v3.5h5.4v1.5h-7.1v-11.2Z"/>
      <path d="M582.3,404.6c0-3.5,2.1-5.9,5.3-5.9s4.4,1.5,4.8,4h-1.7c-.5-1.6-1.4-2.5-3.1-2.5s-3.5,1.6-3.5,4.3,1.3,4.3,3.5,4.3,2.7-.9,3.1-2.5h1.7c-.4,2.5-2.2,4.1-4.8,4.1s-5.3-2.4-5.3-5.8Z"/>
      <path d="M596.3,400.5h-3v-1.5h7.7v1.5h-3v9.7h-1.7v-9.7Z"/>
      <path d="M606.1,399h4.2c2,0,3.2,1.2,3.2,2.8s-.6,2-1.6,2.5c1.4.4,2.1,1.3,2.1,2.7s-1.3,3.2-3.1,3.2h-4.7v-11.2ZM611.7,402.1c0-1-.6-1.7-1.9-1.7h-2v3.3h2c1.3,0,1.9-.6,1.9-1.6ZM612.1,406.9c0-1-.6-1.8-1.7-1.8h-2.6v3.5h2.6c1.1,0,1.7-.8,1.7-1.8Z"/>
      <path d="M615.8,399h4.2c2.2,0,3.4,1.3,3.4,3.1s-.6,2.3-1.6,2.6c.9.2,1.5,1,1.5,2.2v2.1c0,.5,0,.9.3,1.2h0s-1.7,0-1.7,0c-.2-.2-.3-.5-.3-.9v-2.5c0-.8-.4-1.2-1.3-1.2h-2.9v4.7h-1.7v-11.2ZM621.7,402.3c0-1.1-.7-1.8-1.8-1.8h-2.5v3.5h2.5c1.1,0,1.8-.7,1.8-1.8Z"/>
      <path d="M624.9,404.6c0-3.5,2.1-5.9,5.2-5.9s5.3,2.3,5.3,5.9-2.1,5.8-5.3,5.8-5.2-2.3-5.2-5.8ZM633.6,404.6c0-2.7-1.3-4.3-3.5-4.3s-3.5,1.6-3.5,4.3,1.3,4.3,3.5,4.3,3.5-1.6,3.5-4.3Z"/>
      <path d="M637.2,399h1.7v5.7l4.4-5.7h2.1l-3.5,4.4,4.1,6.8h-2l-3.2-5.4-1.8,2.3v3.1h-1.7v-11.2Z"/>
      <path d="M647.2,399h6.8v1.5h-5.1v3.2h4.8v1.5h-4.8v3.5h5.4v1.5h-7.1v-11.2Z"/>
      <path d="M656.1,399h4.2c2.2,0,3.4,1.3,3.4,3.1s-.6,2.3-1.6,2.6c.9.2,1.5,1,1.5,2.2v2.1c0,.5,0,.9.3,1.2h0s-1.7,0-1.7,0c-.2-.2-.3-.5-.3-.9v-2.5c0-.8-.4-1.2-1.3-1.2h-2.9v4.7h-1.7v-11.2ZM662,402.3c0-1.1-.7-1.8-1.8-1.8h-2.5v3.5h2.5c1.1,0,1.8-.7,1.8-1.8Z"/>
      <path d="M669,399h1.9l4.1,11.2h-1.8l-1-2.8h-4.6l-1,2.8h-1.8l4.1-11.2ZM671.7,405.9l-1.8-5.1-1.8,5.1h3.6Z"/>
      <path d="M675.3,404.6c0-3.5,2.1-5.9,5.3-5.9s4.3,1.5,4.7,3.9h-1.7c-.5-1.5-1.4-2.4-3-2.4-2.2,0-3.5,1.6-3.5,4.3s1.3,4.3,3.5,4.3,3-.9,3.2-3.1h-3.8v-1.5h5.4v5.9h-1.4l-.2-1.7c-.6,1.2-1.8,1.9-3.5,1.9-2.8,0-5.1-2.2-5.1-5.8Z"/>
      <path d="M687.8,399h6.8v1.5h-5.1v3.2h4.8v1.5h-4.8v3.5h5.4v1.5h-7.1v-11.2Z"/>
    </g>
  </g>
  <g>
    <path class="st3" d="M445.5,105c-.8.2-1.4.3-1.9,0-.4-.2-.8-.7-1.1-1.1l-5.4-7.3c-.3-.4-.7-.9-1.1-1.1-.6-.2-1.1,0-1.9,0l-17.3,4.6v32.2l17.3-4.6c.8-.2,1.4-.3,1.9,0,.4.2.8.7,1.1,1.1l5.3,7.3c.3.4.7.9,1.1,1.1.6.2,1.1,0,1.9,0l17.3-4.6v-32.2l-17.3,4.6Z"/>
    <g>
      <g>
        <path d="M592,100.2h0l-4,1.9-4.2,11.7h3l1-2.8h5l.9,2.8h3.1l-4.8-13.7ZM588.5,108.7l1.8-5.4h0l1.7,5.4h-3.5Z"/>
        <path d="M581.3,106.5c.6-.3,1.7-.8,1.7-2.8s-.9-3.5-4.2-3.5h-3.8l-2.9,1.4v12.3h5.8c2.8,0,3.5-.5,4.3-1.2.7-.7,1.2-1.7,1.2-2.8s-.4-2.7-2.1-3.3ZM574.9,102.5h3.3c1.3,0,2.1.3,2.1,1.5s-.9,1.5-2,1.5h-3.4v-3ZM578.4,111.5h-3.5v-3.7h3.6c1,0,2.1.5,2.1,1.7s-.8,2-2.2,2Z"/>
        <polygon points="606.5 101.5 606.5 109.7 606.4 109.7 601 100.2 598 101.7 598 113.9 600.7 113.9 600.7 104.1 600.7 104.1 606.3 113.9 609.1 113.9 609.1 100.2 606.5 101.5"/>
        <polygon points="623.5 100.2 619.1 101 614.6 105.8 614.6 100.2 611.8 101.6 611.8 113.9 614.6 113.9 614.6 109.2 616 107.9 620.2 113.9 623.9 113.9 618 105.8 623.5 100.2"/>
        <path d="M494.7,100.2h0l-4,1.9-4.2,11.7h3l1-2.8h5l.9,2.8h3.1l-4.8-13.7ZM491.2,108.7l1.8-5.4h0l1.7,5.4h-3.5Z"/>
        <path d="M550.6,100.2h0l-4,1.9-4.2,11.7h3l1-2.8h5l.9,2.8h3.1l-4.8-13.7ZM547.1,108.7l1.8-5.4h0l1.7,5.4h-3.5Z"/>
        <polygon points="508.9 100.2 499.2 100.2 497.8 102.6 497.8 102.6 501.9 102.6 501.9 113.9 504.8 113.9 504.8 102.6 507.5 102.6 508.9 100.2"/>
        <polygon points="510 101.6 510 113.9 512.9 113.9 512.9 100.2 512.9 100.2 510 101.6"/>
        <path d="M521.4,99.8c-.1,0-.3,0-.4,0l-4.7,2.3c-.8,1.1-1.4,2.6-1.4,4.9,0,6.4,4.8,7.2,6.6,7.2s6.6-.8,6.6-7.2-4.8-7.2-6.6-7.2ZM521.4,111.8c-1.5,0-3.7-1-3.7-4.8s2.2-4.8,3.7-4.8,3.7,1,3.7,4.8-2.2,4.8-3.7,4.8Z"/>
        <polygon points="482.5 101.5 482.5 109.7 482.4 109.7 477 100.2 474 101.7 474 113.9 476.6 113.9 476.6 104.1 476.7 104.1 482.3 113.9 485.1 113.9 485.1 100.2 482.5 101.5"/>
        <polygon points="538.3 101.5 538.3 109.7 538.3 109.7 532.9 100.2 529.8 101.7 529.8 113.9 532.5 113.9 532.5 104.1 532.6 104.1 538.1 113.9 541 113.9 541 100.2 538.3 101.5"/>
        <polygon points="566.5 111.4 559.7 111.4 559.7 100.2 556.8 101.6 556.8 113.9 565 113.9 566.5 111.4"/>
        <g>
          <path d="M511.5,118.8h0l-4,1.9-4.2,11.7h3l.9-2.8h5.1l.9,2.8h3.1l-4.8-13.7ZM508.1,127.3l1.8-5.4h0l1.7,5.4h-3.5Z"/>
          <path d="M558.6,118.8h0l-4,1.9-4.2,11.7h3l1-2.8h5.1l.9,2.8h3.1l-4.8-13.7ZM555.2,127.3l1.8-5.4h0l1.7,5.4h-3.5Z"/>
          <path d="M536.9,130.3c-2.4,0-3.4-2.2-3.4-4.7,0-3.9,2-4.8,3.4-4.8,2.4,0,2.8,1.5,3,2.4h2.9c-.1-2-1.8-4.8-5.9-4.8s-.1,0-.2,0l-4.7,2.3c-.9,1.2-1.4,2.8-1.4,4.9,0,4.7,2.6,7.2,6.3,7.2s5.4-2.1,5.9-5.1h-2.9c-.3,1.7-1.4,2.6-3,2.6Z"/>
          <polygon points="484.8 120.1 484.8 132.4 487.7 132.4 487.7 118.8 487.7 118.8 484.8 120.1"/>
          <polygon points="544.7 120.1 544.7 132.4 547.5 132.4 547.5 118.8 547.5 118.8 544.7 120.1"/>
          <polygon points="482.9 124.3 476.8 124.3 476.8 121.2 482.3 121.2 483.7 118.8 477 118.8 474 120.2 474 132.4 476.8 132.4 476.8 126.7 481.5 126.7 482.9 124.3"/>
          <polygon points="499.3 120.1 499.3 128.3 499.3 128.3 493.9 118.8 490.8 120.2 490.8 132.4 493.5 132.4 493.5 122.7 493.5 122.7 499.1 132.4 502 132.4 502 118.8 499.3 120.1"/>
          <polygon points="526 120.1 526 128.3 526 128.3 520.5 118.8 517.5 120.2 517.5 132.4 520.2 132.4 520.2 122.7 520.2 122.7 525.8 132.4 528.7 132.4 528.7 118.8 526 120.1"/>
          <polygon points="575.2 130 568.4 130 568.4 118.8 565.5 120.2 565.5 132.4 573.8 132.4 575.2 130"/>
        </g>
      </g>
      <rect x="474" y="138.9" width="171.1" height=".9"/>
      <g>
        <path d="M474.2,146.2h1.8l2,9.1,2.5-9.1h1.9l2.4,9,2-9h1.8l-2.8,11.2h-2l-2.4-9-2.5,9h-2l-2.7-11.2Z"/>
        <path d="M489.8,146.2h6.8v1.5h-5.2v3.2h4.8v1.5h-4.8v3.5h5.4v1.5h-7.1v-11.2Z"/>
        <path d="M501.6,146.2h1.9l4.1,11.2h-1.8l-1-2.8h-4.6l-1,2.8h-1.8l4.1-11.2ZM504.4,153.2l-1.8-5.1-1.8,5.1h3.6Z"/>
        <path d="M508.9,146.2h1.7v9.7h4.9v1.5h-6.5v-11.2Z"/>
        <path d="M517.5,147.7h-3v-1.5h7.8v1.5h-3v9.7h-1.7v-9.7Z"/>
        <path d="M523.8,146.2h1.7v4.7h5v-4.7h1.7v11.2h-1.7v-5h-5v5h-1.7v-11.2Z"/>
        <path d="M538.2,146.2h2.5l3.3,9.4,3.3-9.4h2.5v11.2h-1.7v-9.2l-3.3,9.2h-1.7l-3.3-9.2v9.2h-1.6v-11.2Z"/>
        <path d="M555.2,146.2h1.9l4.1,11.2h-1.8l-1-2.8h-4.6l-1,2.8h-1.8l4.1-11.2ZM557.9,153.2l-1.8-5.1-1.8,5.1h3.6Z"/>
        <path d="M562.5,146.2h2l4.9,8.9v-8.9h1.6v11.2h-2l-4.9-8.9v8.9h-1.6v-11.2Z"/>
        <path d="M576.4,146.2h1.9l4.1,11.2h-1.8l-1-2.8h-4.6l-1,2.8h-1.8l4.1-11.2ZM579.1,153.2l-1.8-5.1-1.8,5.1h3.6Z"/>
        <path d="M582.7,151.9c0-3.5,2.1-5.9,5.3-5.9s4.3,1.5,4.7,3.9h-1.7c-.5-1.5-1.4-2.4-3-2.4-2.2,0-3.5,1.6-3.5,4.3s1.3,4.3,3.5,4.3,3-.9,3.2-3.2h-3.8v-1.5h5.4v5.9h-1.4l-.2-1.7c-.6,1.2-1.8,1.9-3.5,1.9-2.8,0-5.1-2.2-5.1-5.8Z"/>
        <path d="M595.2,146.2h6.8v1.5h-5.2v3.2h4.8v1.5h-4.8v3.5h5.4v1.5h-7.1v-11.2Z"/>
        <path d="M604.2,146.2h2.5l3.3,9.4,3.3-9.4h2.5v11.2h-1.7v-9.2l-3.3,9.2h-1.7l-3.3-9.2v9.2h-1.6v-11.2Z"/>
        <path d="M618.3,146.2h6.8v1.5h-5.2v3.2h4.8v1.5h-4.8v3.5h5.4v1.5h-7.1v-11.2Z"/>
        <path d="M627.3,146.2h2l4.9,8.9v-8.9h1.6v11.2h-2l-4.9-8.9v8.9h-1.6v-11.2Z"/>
        <path d="M640.4,147.7h-3v-1.5h7.8v1.5h-3v9.7h-1.7v-9.7Z"/>
      </g>
    </g>
  </g>
  <g>
    <path class="st3" d="M695.4,105.6c-.7.2-1.3.3-1.8,0-.4-.2-.7-.6-1-1l-5-6.8c-.3-.4-.6-.9-1-1-.5-.2-1.1,0-1.8,0l-16,4.3v29.8l16.1-4.3c.7-.2,1.3-.3,1.8,0,.4.2.7.6,1,1l4.9,6.8c.3.4.6.8,1,1,.5.2,1.1,0,1.8,0l16-4.3v-29.8l-16,4.3Z"/>
    <g>
      <g>
        <g>
          <g>
            <path d="M740.2,118.4h0l-3.7,1.8-3.9,10.9h2.8l.9-2.6h4.7l.8,2.6h2.9l-4.5-12.7ZM737,126.3l1.6-5h0l1.6,5h-3.2Z"/>
            <path d="M730.3,124.3c.5-.3,1.6-.8,1.6-2.6s-.8-3.3-3.9-3.3h-3.5l-2.7,1.3v11.4h5.4c2.6,0,3.3-.4,4-1.1.7-.6,1.1-1.6,1.1-2.6s-.4-2.5-2-3.1ZM724.3,120.6h3c1.2,0,1.9.3,1.9,1.4s-.8,1.4-1.9,1.4h-3.1v-2.8ZM727.6,128.9h-3.2v-3.4h3.4c1,0,1.9.4,1.9,1.5s-.7,1.9-2,1.9Z"/>
            <polygon points="793.8 128.9 793.8 128.9 786.7 128.9 786.7 125.6 791.6 125.6 792.9 123.3 786.7 123.3 786.7 120.7 792.2 120.7 793.4 118.4 787 118.4 784.1 119.8 784.1 131.1 792.5 131.1 793.8 128.9"/>
            <path d="M768.7,129.3c.8-1,1.3-2.4,1.3-4.5,0-6-4.4-6.7-6.1-6.7s-.3,0-.4,0l-4.4,2.1c-.8,1-1.3,2.4-1.3,4.5,0,6,4.4,6.7,6.1,6.7s2-.1,3.3-.8l1.5,1.4,1.4-1.4-1.4-1.3ZM766.8,127.5l-1.3-1.3-1.4,1.4,1.3,1.2c-.5.2-1,.3-1.4.3-1.4,0-3.4-.9-3.4-4.4s2-4.4,3.4-4.4,3.4.9,3.4,4.4-.2,2.1-.6,2.7Z"/>
            <path d="M779.4,119.7v7c0,1.5-.7,2.4-2.6,2.4s-2.3-.8-2.3-2.5v-8.2h0l-2.7,1.3v7.1c0,1.3.3,2.3,1,3.1,1.1,1.3,2.9,1.5,4,1.5,3.2,0,5.2-1.4,5.2-4.8v-8.3h0l-2.7,1.3Z"/>
            <polygon points="753.6 119.6 753.6 127.3 753.6 127.3 748.5 118.4 745.7 119.8 745.7 131.1 748.2 131.1 748.2 122.1 748.2 122.1 753.4 131.1 756.1 131.1 756.1 118.4 753.6 119.6"/>
          </g>
          <g>
            <path d="M819.1,118.4h0l-3.7,1.8-3.9,10.9h2.8l.9-2.6h4.7l.8,2.6h2.9l-4.5-12.7ZM815.9,126.3l1.6-5h0l1.6,5h-3.2Z"/>
            <path d="M871,118.4h0l-3.7,1.8-3.9,10.9h2.8l.9-2.6h4.7l.8,2.6h2.9l-4.5-12.7ZM867.8,126.3l1.6-5h0l1.6,5h-3.2Z"/>
            <polygon points="896.4 128.9 896.4 128.9 889.4 128.9 889.4 125.6 894.2 125.6 895.5 123.3 889.4 123.3 889.4 120.7 894.8 120.7 896.1 118.4 889.6 118.4 886.8 119.8 886.8 131.1 895.1 131.1 896.4 128.9"/>
            <polygon points="832.3 118.4 823.3 118.4 822 120.6 822 120.7 825.9 120.7 825.9 131.1 828.5 131.1 828.5 120.7 831.1 120.7 832.3 118.4"/>
            <polygon points="833.4 119.7 833.4 131.1 836.1 131.1 836.1 118.4 836 118.4 833.4 119.7"/>
            <path d="M843.9,118.1c-.1,0-.2,0-.4,0l-4.4,2.1c-.8,1-1.3,2.4-1.3,4.5,0,6,4.4,6.7,6.1,6.7s6.1-.7,6.1-6.7-4.4-6.7-6.1-6.7ZM843.9,129.2c-1.4,0-3.4-.9-3.4-4.4s2-4.4,3.4-4.4,3.4.9,3.4,4.4-2,4.4-3.4,4.4Z"/>
            <polygon points="807.8 119.6 807.8 127.3 807.8 127.3 802.7 118.4 799.9 119.8 799.9 131.1 802.4 131.1 802.4 122.1 802.5 122.1 807.6 131.1 810.3 131.1 810.3 118.4 807.8 119.6"/>
            <polygon points="859.6 119.6 859.6 127.3 859.6 127.3 854.5 118.4 851.8 119.8 851.8 131.1 854.2 131.1 854.2 122.1 854.3 122.1 859.4 131.1 862.1 131.1 862.1 118.4 859.6 119.6"/>
            <polygon points="885.7 128.8 879.4 128.8 879.4 118.4 876.8 119.7 876.8 131.1 884.4 131.1 885.7 128.8"/>
          </g>
        </g>
        <g>
          <path d="M756.6,101.3h0l-3.7,1.8-3.9,10.9h2.8l.9-2.6h4.7l.8,2.6h2.9l-4.5-12.7ZM753.4,109.2l1.6-5h0l1.6,5h-3.2Z"/>
          <path d="M780.1,112c-2.2,0-3.1-2.1-3.1-4.3,0-3.6,1.9-4.4,3.1-4.4,2.2,0,2.6,1.4,2.8,2.2h2.7c-.1-1.9-1.7-4.5-5.5-4.5s-.1,0-.1,0l-4.4,2.1c-.8,1.1-1.3,2.6-1.3,4.6,0,4.4,2.4,6.7,5.8,6.7s5-1.9,5.5-4.7h-2.7c-.3,1.6-1.3,2.4-2.8,2.4Z"/>
          <polygon points="826.4 111.7 826.4 111.7 819.3 111.7 819.3 108.4 824.2 108.4 825.5 106.2 819.3 106.2 819.3 103.5 824.8 103.5 826.1 101.3 819.6 101.3 816.7 102.7 816.7 114 825.1 114 826.4 111.7"/>
          <polygon points="802.1 111.7 802.1 111.7 795.1 111.7 795.1 108.4 800 108.4 801.3 106.2 795.1 106.2 795.1 103.5 800.5 103.5 801.8 101.3 795.4 101.3 792.5 102.7 792.5 114 800.8 114 802.1 111.7"/>
          <path d="M806.5,101.3l-2.5,1.2v11.5h2.6v-5h.9s2.4,0,2.4,0c.5,0,1.1,0,1.4.7.2.5.6,3.6.7,4.2h3c-.1-.2-.2-.3-.4-.9,0-.4-.2-1.3-.4-2.4-.2-1.4-.6-2.7-2-2.9.5-.2,2.1-.8,2.1-3.2s-.3-1.8-1.1-2.5c-1-.9-2.5-.9-3.9-.9h-2.8ZM806.5,106.7v-3.3h1.1s1.7,0,1.7,0c.8,0,1.3,0,1.7.3.2.1.6.5.6,1.3s-.5,1.2-.7,1.4c-.4.3-1,.3-1.3.3h-3.2Z"/>
          <polygon points="731.8 102.6 731.8 114 734.5 114 734.5 101.3 734.5 101.3 731.8 102.6"/>
          <polygon points="787.3 102.6 787.3 114 790 114 790 101.3 790 101.3 787.3 102.6"/>
          <polygon points="730 106.4 724.4 106.4 724.4 103.5 729.5 103.5 730.8 101.3 724.5 101.3 721.8 102.6 721.8 114 724.4 114 724.4 108.6 728.7 108.6 730 106.4"/>
          <polygon points="745.3 102.5 745.3 110.1 745.2 110.1 740.2 101.3 737.4 102.6 737.4 114 739.9 114 739.9 104.9 739.9 104.9 745.1 114 747.7 114 747.7 101.3 745.3 102.5"/>
          <polygon points="770 102.5 770 110.1 769.9 110.1 764.9 101.3 762.1 102.6 762.1 114 764.6 114 764.6 104.9 764.6 104.9 769.8 114 772.5 114 772.5 101.3 770 102.5"/>
          <path d="M794,98.2h2.9l1.7,2.1h-1.9l-2.6-2.1Z"/>
        </g>
      </g>
      <rect x="721.8" y="137.1" width="174.6" height=".8"/>
      <g>
        <path d="M721.7,149.1c0-3.3,2-5.4,4.9-5.4s4,1.4,4.4,3.6h-1.6c-.4-1.4-1.3-2.2-2.8-2.2-2,0-3.3,1.5-3.3,4s1.2,4,3.3,4,2.8-.8,2.9-2.9h-3.5v-1.4h5v5.5h-1.3v-1.5c-.7,1.1-1.8,1.8-3.4,1.8-2.6,0-4.7-2-4.7-5.4Z"/>
        <path d="M733.2,143.9h6.3v1.4h-4.8v3h4.5v1.4h-4.5v3.2h5v1.4h-6.5v-10.4Z"/>
        <path d="M740.7,150.8h1.5c0,1.4.8,2.3,2.3,2.3s2-.6,2-1.6-.4-1.3-1.6-1.6l-1.4-.4c-1.6-.5-2.6-1.3-2.6-2.8s1.4-3,3.4-3,3.4,1.3,3.5,3.2h-1.5c0-1.2-.7-1.9-1.9-1.9s-1.8.6-1.8,1.5.5,1.2,1.4,1.5l1.4.4c1.9.6,2.6,1.6,2.6,3s-1.3,3.1-3.7,3.1-3.7-1.4-3.7-3.7Z"/>
        <path d="M751.8,145.3h-2.8v-1.4h7.2v1.4h-2.8v9h-1.6v-9Z"/>
        <path d="M757.7,143.9h1.6v10.4h-1.6v-10.4Z"/>
        <path d="M761,149.1c0-3.3,2-5.4,4.9-5.4s4.9,2.2,4.9,5.4-2,5.4-4.9,5.4-4.9-2.1-4.9-5.4ZM769.1,149.1c0-2.5-1.2-4-3.3-4s-3.2,1.5-3.2,4,1.2,4,3.2,4,3.3-1.5,3.3-4Z"/>
        <path d="M772.5,143.9h1.9l4.5,8.3v-8.3h1.5v10.4h-1.9l-4.5-8.3v8.3h-1.5v-10.4Z"/>
        <path d="M786,143.9h3.4c2.9,0,4.7,2,4.7,5.2s-1.9,5.2-4.7,5.2h-3.4v-10.4ZM792.5,149.1c0-2.4-1.2-3.8-3.4-3.8h-1.6v7.6h1.6c2.2,0,3.4-1.4,3.4-3.8Z"/>
        <path d="M795.9,143.9h6.3v1.4h-4.8v3h4.5v1.4h-4.5v3.2h5v1.4h-6.5v-10.4Z"/>
        <path d="M807.5,143.9h3.6c2,0,3.2,1.3,3.2,3.2s-1.2,3.1-3.2,3.1h-2.1v4.1h-1.6v-10.4ZM812.7,147c0-1.2-.6-1.8-1.9-1.8h-1.7v3.5h1.7c1.3,0,1.9-.6,1.9-1.7Z"/>
        <path d="M817.7,143.9h1.8l3.8,10.4h-1.7l-.9-2.6h-4.3l-.9,2.6h-1.6l3.8-10.4ZM820.3,150.3l-1.7-4.7-1.7,4.7h3.3Z"/>
        <path d="M825.5,145.3h-2.8v-1.4h7.2v1.4h-2.8v9h-1.6v-9Z"/>
        <path d="M831.4,143.9h3.9c2.1,0,3.2,1.2,3.2,2.9s-.6,2.1-1.5,2.4c.9.2,1.4.9,1.4,2v1.9c0,.5,0,.8.3,1.1h0s-1.6,0-1.6,0c-.2-.2-.3-.4-.3-.9v-2.3c0-.8-.4-1.1-1.2-1.1h-2.7v4.3h-1.6v-10.4ZM836.9,146.9c0-1-.6-1.7-1.7-1.7h-2.3v3.3h2.3c1,0,1.7-.6,1.7-1.6Z"/>
        <path d="M840.6,143.9h1.6v10.4h-1.6v-10.4Z"/>
        <path d="M844.6,143.9h2.4l3.1,8.7,3.1-8.7h2.3v10.4h-1.5v-8.5l-3.1,8.5h-1.6l-3.1-8.6v8.6h-1.5v-10.4Z"/>
        <path d="M857.1,149.1c0-3.3,2-5.4,4.9-5.4s4.9,2.2,4.9,5.4-2,5.4-4.9,5.4-4.9-2.1-4.9-5.4ZM865.2,149.1c0-2.5-1.2-4-3.3-4s-3.2,1.5-3.2,4,1.2,4,3.2,4,3.3-1.5,3.3-4Z"/>
        <path d="M868.6,143.9h1.6v10.4h-1.6v-10.4Z"/>
        <path d="M872.5,143.9h1.9l4.5,8.3v-8.3h1.5v10.4h-1.9l-4.5-8.3v8.3h-1.5v-10.4Z"/>
        <path d="M882.8,143.9h6.3v1.4h-4.8v3h4.5v1.4h-4.5v3.2h5v1.4h-6.5v-10.4Z"/>
      </g>
    </g>
  </g>
  <g>
    <g>
      <polygon points="1219.8 359 1219.8 364.9 1219.7 364.9 1215.9 358 1213.7 359.1 1213.7 367.8 1215.6 367.8 1215.6 360.8 1215.6 360.8 1219.6 367.8 1221.7 367.8 1221.7 358 1219.8 359"/>
      <path d="M1228.5,358h0l-2.9,1.4-3,8.4h2.2l.7-2h3.6l.6,2h2.2l-3.5-9.8ZM1226,364.1l1.3-3.9h0l1.2,3.9h-2.5Z"/>
      <path d="M1268.6,358h0l-2.9,1.4-3,8.4h2.2l.7-2h3.6l.6,2h2.2l-3.5-9.8ZM1266.1,364.1l1.3-3.9h0l1.2,3.9h-2.5Z"/>
      <polygon points="1238.7 358 1231.8 358 1230.8 359.8 1230.8 359.8 1233.7 359.8 1233.7 367.8 1235.8 367.8 1235.8 359.8 1237.7 359.8 1238.7 358"/>
      <polygon points="1239.6 359 1239.6 367.8 1241.6 367.8 1241.6 358 1241.6 358 1239.6 359"/>
      <path d="M1247.7,357.8c0,0-.2,0-.3,0l-3.4,1.7c-.6.8-1,1.9-1,3.5,0,4.6,3.4,5.2,4.7,5.2s4.7-.6,4.7-5.2-3.4-5.2-4.7-5.2ZM1247.7,366.4c-1.1,0-2.7-.7-2.7-3.4s1.6-3.4,2.7-3.4,2.7.7,2.7,3.4-1.6,3.4-2.7,3.4Z"/>
      <polygon points="1259.8 359 1259.8 364.9 1259.8 364.9 1255.9 358 1253.7 359.1 1253.7 367.8 1255.6 367.8 1255.6 360.8 1255.7 360.8 1259.7 367.8 1261.7 367.8 1261.7 358 1259.8 359"/>
      <polygon points="1280 366.1 1275.1 366.1 1275.1 358 1273 359 1273 367.8 1278.9 367.8 1280 366.1"/>
      <path d="M1220.3,375.8c.4-.2,1.2-.6,1.2-2s-.6-2.5-3-2.5h-2.7l-2.1,1v8.8h4.2c2,0,2.5-.3,3.1-.9.5-.5.8-1.2.8-2s-.3-1.9-1.5-2.4ZM1215.7,373h2.3c.9,0,1.5.2,1.5,1.1s-.6,1.1-1.4,1.1h-2.4v-2.1ZM1218.2,379.4h-2.5v-2.6h2.6c.7,0,1.5.3,1.5,1.2s-.6,1.4-1.6,1.4Z"/>
      <polygon points="1238.3 372.2 1238.3 378.1 1238.3 378.1 1234.4 371.3 1232.2 372.3 1232.2 381.1 1234.1 381.1 1234.1 374.1 1234.2 374.1 1238.2 381.1 1240.2 381.1 1240.2 371.3 1238.3 372.2"/>
      <path d="M1227.9,371.3h0l-2.9,1.4-3,8.4h2.2l.7-2h3.6l.6,2h2.2l-3.5-9.8ZM1225.4,377.4l1.3-3.9h0l1.2,3.9h-2.5Z"/>
      <polygon points="1250.4 371.3 1247.2 371.8 1244 375.3 1244 371.3 1241.9 372.3 1241.9 381.1 1244 381.1 1244 377.8 1244.9 376.8 1248 381.1 1250.6 381.1 1246.4 375.3 1250.4 371.3"/>
    </g>
    <path class="st3" d="M1193.3,361.4c-.6.1-1,.2-1.4,0-.3-.1-.6-.5-.8-.8l-3.8-5.3c-.2-.3-.5-.7-.8-.8-.4-.2-.8,0-1.4,0l-12.4,3.3v23.1l12.4-3.3c.6-.1,1-.2,1.4,0,.3.1.6.5.8.8l3.8,5.2c.2.3.5.7.8.8.4.2.8,0,1.4,0l12.4-3.3v-23l-12.4,3.3Z"/>
    <rect x="1213.7" y="385.7" width="118.1" height=".6"/>
    <g>
      <path d="M1213.7,390.9h2.8c1.6,0,2.4,1,2.4,2.4s-.9,2.4-2.4,2.4h-1.6v3.2h-1.2v-8ZM1217.7,393.3c0-.9-.5-1.4-1.5-1.4h-1.3v2.7h1.3c1,0,1.5-.5,1.5-1.3Z"/>
      <path d="M1220.2,390.9h3c1.6,0,2.5.9,2.5,2.2s-.5,1.6-1.1,1.9c.7.2,1,.7,1,1.6v1.5c0,.4,0,.6.2.8h0s-1.2,0-1.2,0c-.1-.1-.2-.3-.2-.7v-1.8c0-.6-.3-.9-.9-.9h-2.1v3.3h-1.2v-8ZM1224.5,393.2c0-.8-.5-1.3-1.3-1.3h-1.8v2.5h1.8c.8,0,1.3-.5,1.3-1.3Z"/>
      <path d="M1227.4,390.9h1.2v8h-1.2v-8Z"/>
      <path d="M1233.7,398.9h-1.4l-2.8-8h1.3l2.2,6.6,2.2-6.6h1.3l-2.8,8Z"/>
      <path d="M1239.1,390.9h1.4l2.9,8h-1.3l-.7-2h-3.3l-.7,2h-1.3l2.9-8ZM1241,395.9l-1.3-3.7-1.3,3.7h2.6Z"/>
      <path d="M1245.1,392h-2.2v-1.1h5.6v1.1h-2.2v7h-1.2v-7Z"/>
      <path d="M1249.6,390.9h4.9v1.1h-3.7v2.3h3.5v1.1h-3.5v2.5h3.9v1.1h-5.1v-8Z"/>
      <path d="M1258.6,390.9h3c1.5,0,2.3.9,2.3,2s-.4,1.4-1.2,1.8c1,.3,1.5,1,1.5,1.9s-.9,2.3-2.2,2.3h-3.4v-8ZM1262.6,393.1c0-.7-.4-1.2-1.4-1.2h-1.4v2.4h1.5c.9,0,1.4-.4,1.4-1.2ZM1262.9,396.6c0-.7-.4-1.3-1.2-1.3h-1.9v2.5h1.9c.8,0,1.2-.6,1.2-1.3Z"/>
      <path d="M1267.6,390.9h1.4l2.9,8h-1.3l-.7-2h-3.3l-.7,2h-1.3l2.9-8ZM1269.6,395.9l-1.3-3.7-1.3,3.7h2.6Z"/>
      <path d="M1272.8,390.9h1.5l3.5,6.4v-6.4h1.2v8h-1.4l-3.5-6.4v6.4h-1.2v-8Z"/>
      <path d="M1280.7,390.9h1.2v4.1l3.1-4.1h1.5l-2.5,3.2,2.9,4.9h-1.4l-2.3-3.8-1.3,1.6v2.2h-1.2v-8Z"/>
      <path d="M1287.9,390.9h1.2v8h-1.2v-8Z"/>
      <path d="M1290.9,390.9h1.5l3.5,6.4v-6.4h1.2v8h-1.4l-3.5-6.4v6.4h-1.2v-8Z"/>
      <path d="M1298.4,394.9c0-2.5,1.5-4.2,3.8-4.2s3.1,1.1,3.4,2.8h-1.2c-.3-1.1-1-1.7-2.1-1.7-1.6,0-2.5,1.2-2.5,3.1s.9,3.1,2.5,3.1,2.1-.6,2.3-2.3h-2.7v-1.1h3.9v4.3h-1v-1.2c-.6.8-1.4,1.4-2.6,1.4-2,0-3.6-1.6-3.6-4.2Z"/>
      <path d="M1309.3,393.4v-1.1c1.1,0,1.7-.5,1.9-1.4h1.1v8h-1.2v-6.3c-.3.5-.9.8-1.8.8Z"/>
      <path d="M1313.7,396.8c0-1,.6-1.8,1.6-2.1-.8-.3-1.3-1-1.3-1.8,0-1.4,1-2.2,2.5-2.2s2.5.9,2.5,2.2-.5,1.5-1.3,1.8c1,.3,1.6,1.1,1.6,2.1s-1,2.2-2.7,2.2-2.7-.9-2.7-2.2ZM1317.9,396.7c0-.8-.6-1.4-1.5-1.4s-1.5.5-1.5,1.4.6,1.3,1.5,1.3,1.5-.5,1.5-1.3ZM1317.7,393c0-.8-.5-1.2-1.3-1.2s-1.3.5-1.3,1.2.5,1.2,1.3,1.2,1.3-.5,1.3-1.2Z"/>
      <path d="M1320.2,396.7h1.2c0,.8.5,1.4,1.4,1.4s1.5-.7,1.5-1.8-.5-1.7-1.4-1.7-1.1.3-1.4.9h-1.2l.5-4.6h4.3v1.1h-3.3l-.3,2.4c.4-.6,1-.9,1.7-.9,1.3,0,2.3,1,2.3,2.7s-1,2.9-2.8,2.9-2.5-.9-2.5-2.4Z"/>
      <path d="M1326.5,396.9h1.2c.1.6.6,1.1,1.3,1.1,1.1,0,1.7-1.2,1.8-3-.4.7-1.1,1.2-2,1.2-1.4,0-2.4-1.2-2.4-2.7s1.1-2.8,2.7-2.8,2.8,1.6,2.8,4.1-1,4.3-2.9,4.3-2.4-1-2.4-2.2ZM1330.5,393.4c0-1-.6-1.7-1.5-1.7s-1.5.6-1.5,1.6.7,1.7,1.5,1.7,1.5-.7,1.5-1.7Z"/>
    </g>
  </g>
  <g>
    <path class="st3" d="M1083.3,2.1c-.8.2-1.4.3-2,0-.5-.2-.8-.7-1.1-1.2l-5.6-7.6c-.3-.5-.7-1-1.2-1.2-.6-.2-1.2,0-2,0l-18,4.8V30.7l18.1-4.8c.8-.2,1.4-.3,2,0,.5.2.8.7,1.1,1.1l5.6,7.6c.3.5.7.9,1.1,1.1.6.2,1.2,0,2-.1l18-4.8V-2.8l-18,4.8Z"/>
    <g>
      <path d="M1122.8,4.3c.6-.3,1.7-.9,1.7-2.9s-.9-3.7-4.4-3.7h-3.9l-3,1.5v12.8h6c2.9,0,3.7-.5,4.5-1.3.8-.7,1.2-1.8,1.2-2.9s-.5-2.8-2.2-3.5ZM1116.1.2h3.4c1.4,0,2.2.4,2.2,1.5s-.9,1.6-2.1,1.6h-3.5V.2ZM1119.7,9.5h-3.7v-3.8h3.8c1.1,0,2.1.5,2.1,1.7s-.8,2.1-2.3,2.1Z"/>
      <polygon points="1193.9 9.4 1193.9 9.4 1186 9.4 1186 5.7 1191.5 5.7 1192.9 3.2 1186 3.2 1186 .2 1192.1 .2 1193.6 -2.3 1186.3 -2.3 1183.1 -.7 1183.1 12 1192.4 12 1193.9 9.4"/>
      <path d="M1165.9,9.9c.9-1.1,1.5-2.7,1.5-5.1,0-6.7-5-7.5-6.9-7.5s-.3,0-.4,0l-4.9,2.4c-.9,1.1-1.5,2.7-1.5,5.1,0,6.7,5,7.5,6.9,7.5s2.3-.2,3.7-1l1.7,1.6,1.6-1.6-1.5-1.5ZM1163.8,7.9l-1.5-1.4-1.5,1.6,1.4,1.4c-.5.3-1.1.4-1.6.4-1.6,0-3.9-1-3.9-5s2.3-5,3.9-5,3.9,1,3.9,5-.3,2.3-.7,3.1Z"/>
      <path d="M1177.8-.8v7.9c0,1.7-.8,2.7-2.9,2.7s-2.5-.9-2.5-2.9V-2.3h0l-3,1.5v8c0,1.4.3,2.6,1.1,3.5,1.3,1.4,3.2,1.7,4.5,1.7,3.6,0,5.9-1.6,5.9-5.4V-2.3h0l-3,1.5Z"/>
      <polygon points="1149 -.9 1149 7.6 1148.9 7.6 1143.3 -2.3 1140.1 -.8 1140.1 12 1142.9 12 1142.9 1.8 1143 1.8 1148.8 12 1151.8 12 1151.8 -2.3 1149 -.9"/>
      <path d="M1133.9-2.3h0l-4.2,2-4.4,12.2h3.1l1-2.9h5.3l.9,2.9h3.2l-5-14.3ZM1130.3,6.6l1.8-5.6h0l1.8,5.6h-3.6Z"/>
      <polygon points="1221.6 28.7 1221.6 28.7 1213.7 28.7 1213.7 25 1219.2 25 1220.6 22.5 1213.7 22.5 1213.7 19.5 1219.8 19.5 1221.3 17 1214 17 1210.8 18.5 1210.8 31.2 1220.2 31.2 1221.6 28.7"/>
      <polygon points="1122 18.3 1122 26.9 1122 26.9 1116.3 17 1113.2 18.5 1113.2 31.2 1116 31.2 1116 21 1116 21 1121.8 31.2 1124.8 31.2 1124.8 17 1122 18.3"/>
      <path d="M1134.8,17h0l-4.2,2-4.4,12.2h3.1l1-2.9h5.3l.9,2.9h3.2l-5-14.3ZM1131.2,25.8l1.8-5.6h0l1.8,5.6h-3.6Z"/>
      <path d="M1193,17h0l-4.2,2-4.4,12.2h3.1l1-2.9h5.3l.9,2.9h3.2l-5-14.3ZM1189.4,25.8l1.8-5.6h0l1.8,5.6h-3.6Z"/>
      <polygon points="1149.6 17 1139.5 17 1138 19.5 1138 19.5 1142.3 19.5 1142.3 31.2 1145.3 31.2 1145.3 19.5 1148.2 19.5 1149.6 17"/>
      <polygon points="1150.8 18.4 1150.8 31.2 1153.8 31.2 1153.8 17 1153.8 17 1150.8 18.4"/>
      <path d="M1162.6,16.6c-.1,0-.3,0-.4,0l-4.9,2.4c-.9,1.1-1.5,2.7-1.5,5.1,0,6.7,5,7.5,6.9,7.5s6.9-.8,6.9-7.5-5-7.5-6.9-7.5ZM1162.6,29.1c-1.6,0-3.9-1-3.9-5s2.3-5,3.9-5,3.9,1,3.9,5-2.3,5-3.9,5Z"/>
      <polygon points="1180.3 18.3 1180.3 26.9 1180.2 26.9 1174.6 17 1171.4 18.5 1171.4 31.2 1174.2 31.2 1174.2 21 1174.2 21 1180.1 31.2 1183 31.2 1183 17 1180.3 18.3"/>
      <polygon points="1209.6 28.6 1202.5 28.6 1202.5 17 1199.5 18.4 1199.5 31.2 1208.1 31.2 1209.6 28.6"/>
    </g>
    <g>
      <path d="M1113.2,45.5h1.7v11.7h-1.7v-11.7Z"/>
      <path d="M1117.4,45.5h2.1l5.1,9.3v-9.3h1.7v11.7h-2.1l-5.1-9.3v9.3h-1.7v-11.7Z"/>
      <path d="M1133.7,57.2h-2l-4.1-11.7h1.9l3.2,9.6,3.3-9.6h1.8l-4.1,11.7Z"/>
      <path d="M1139.1,45.5h7.1v1.6h-5.4v3.4h5v1.6h-5v3.6h5.6v1.6h-7.4v-11.7Z"/>
      <path d="M1147.5,53.3h1.7c0,1.5.8,2.6,2.6,2.6s2.2-.6,2.2-1.8-.4-1.5-1.8-1.8l-1.6-.4c-1.8-.5-2.9-1.5-2.9-3.2s1.5-3.4,3.8-3.4,3.8,1.4,3.9,3.6h-1.7c0-1.3-.8-2.1-2.1-2.1s-2.1.7-2.1,1.7.5,1.3,1.6,1.7l1.6.5c2.2.6,3,1.8,3,3.3s-1.4,3.5-4.1,3.5-4.2-1.6-4.2-4.1Z"/>
      <path d="M1160,47h-3.2v-1.6h8.1v1.6h-3.2v10.1h-1.7v-10.1Z"/>
      <path d="M1166.6,45.5h1.7v11.7h-1.7v-11.7Z"/>
      <path d="M1170.3,53.3h1.7c0,1.5.8,2.6,2.6,2.6s2.2-.6,2.2-1.8-.4-1.5-1.8-1.8l-1.6-.4c-1.8-.5-2.9-1.5-2.9-3.2s1.5-3.4,3.8-3.4,3.8,1.4,3.9,3.6h-1.7c0-1.3-.8-2.1-2.1-2.1s-2.1.7-2.1,1.7.5,1.3,1.6,1.7l1.6.5c2.2.6,3,1.8,3,3.3s-1.4,3.5-4.1,3.5-4.2-1.6-4.2-4.1Z"/>
      <path d="M1179.9,53.3h1.7c0,1.5.8,2.6,2.6,2.6s2.2-.6,2.2-1.8-.4-1.5-1.8-1.8l-1.6-.4c-1.8-.5-2.9-1.5-2.9-3.2s1.5-3.4,3.8-3.4,3.8,1.4,3.9,3.6h-1.7c0-1.3-.8-2.1-2.1-2.1s-2.1.7-2.1,1.7.5,1.3,1.6,1.7l1.6.5c2.2.6,3,1.8,3,3.3s-1.4,3.5-4.1,3.5-4.2-1.6-4.2-4.1Z"/>
      <path d="M1190.3,45.5h7.1v1.6h-5.4v3.4h5v1.6h-5v3.6h5.6v1.6h-7.4v-11.7Z"/>
      <path d="M1199.6,45.5h2.6l3.4,9.8,3.4-9.8h2.6v11.7h-1.7v-9.6l-3.5,9.6h-1.8l-3.5-9.6v9.6h-1.7v-11.7Z"/>
      <path d="M1214.2,45.5h7.1v1.6h-5.4v3.4h5v1.6h-5v3.6h5.6v1.6h-7.4v-11.7Z"/>
      <path d="M1223.6,45.5h2.1l5.1,9.3v-9.3h1.7v11.7h-2.1l-5.1-9.3v9.3h-1.7v-11.7Z"/>
      <path d="M1237.3,47h-3.2v-1.6h8.1v1.6h-3.2v10.1h-1.7v-10.1Z"/>
      <path d="M1243,53.3h1.7c0,1.5.9,2.6,2.6,2.6s2.2-.6,2.2-1.8-.4-1.5-1.8-1.8l-1.6-.4c-1.8-.5-2.9-1.5-2.9-3.2s1.5-3.4,3.8-3.4,3.8,1.4,3.9,3.6h-1.7c0-1.3-.8-2.1-2.1-2.1s-2.1.7-2.1,1.7.5,1.3,1.6,1.7l1.6.5c2.2.6,3,1.8,3,3.3s-1.4,3.5-4.1,3.5-4.2-1.6-4.2-4.1Z"/>
    </g>
    <rect x="1113.2" y="37.9" width="138.2" height=".9"/>
  </g>
  <g>
    <g>
      <path d="M1328,45.2h1.8v11.7h-1.8v-11.7Z"/>
      <path d="M1332.4,45.2h2.1l5.1,9.3v-9.3h1.7v11.7h-2.1l-5.1-9.3v9.3h-1.7v-11.7Z"/>
      <path d="M1348.8,56.9h-2l-4.1-11.7h1.9l3.2,9.7,3.3-9.7h1.8l-4.1,11.7Z"/>
      <path d="M1354.2,45.2h7.1v1.6h-5.4v3.4h5.1v1.6h-5.1v3.6h5.6v1.6h-7.4v-11.7Z"/>
      <path d="M1362.7,53h1.7c0,1.5.9,2.6,2.6,2.6s2.2-.6,2.2-1.8-.4-1.5-1.8-1.9l-1.6-.5c-1.9-.5-2.9-1.5-2.9-3.2s1.5-3.4,3.8-3.4,3.9,1.4,3.9,3.6h-1.7c0-1.4-.8-2.1-2.2-2.1s-2.1.7-2.1,1.7.5,1.3,1.6,1.7l1.6.5c2.2.6,3,1.8,3,3.3s-1.4,3.5-4.1,3.5-4.2-1.6-4.2-4.2Z"/>
      <path d="M1375.2,46.8h-3.2v-1.6h8.1v1.6h-3.2v10.2h-1.8v-10.2Z"/>
      <path d="M1381.7,45.2h2.7l3.5,9.8,3.5-9.8h2.6v11.7h-1.7v-9.6l-3.5,9.6h-1.8l-3.5-9.7v9.7h-1.7v-11.7Z"/>
      <path d="M1396.5,45.2h7.1v1.6h-5.4v3.4h5.1v1.6h-5.1v3.6h5.6v1.6h-7.4v-11.7Z"/>
      <path d="M1405.9,45.2h2.1l5.1,9.3v-9.3h1.7v11.7h-2.1l-5.1-9.3v9.3h-1.7v-11.7Z"/>
      <path d="M1419.7,46.8h-3.2v-1.6h8.1v1.6h-3.2v10.2h-1.8v-10.2Z"/>
      <path d="M1425.4,53h1.7c0,1.5.9,2.6,2.6,2.6s2.2-.6,2.2-1.8-.4-1.5-1.8-1.9l-1.6-.5c-1.9-.5-2.9-1.5-2.9-3.2s1.5-3.4,3.8-3.4,3.9,1.4,3.9,3.6h-1.7c0-1.4-.8-2.1-2.2-2.1s-2.1.7-2.1,1.7.5,1.3,1.6,1.7l1.6.5c2.2.6,3,1.8,3,3.3s-1.4,3.5-4.1,3.5-4.2-1.6-4.2-4.2Z"/>
    </g>
    <g>
      <polygon points="1337 -1.4 1337 7.2 1337 7.2 1331.3 -2.8 1328.1 -1.2 1328.1 11.6 1330.9 11.6 1330.9 1.3 1331 1.3 1336.8 11.6 1339.8 11.6 1339.8 -2.8 1337 -1.4"/>
      <path d="M1349.8-2.8h0l-4.2,2-4.4,12.3h3.1l1-3h5.3l.9,3h3.3l-5-14.3ZM1346.2,6.1l1.8-5.7h0l1.8,5.7h-3.6Z"/>
      <path d="M1408.3-2.8h0l-4.2,2-4.4,12.3h3.2l1-3h5.3l.9,3h3.2l-5-14.3ZM1404.7,6.1l1.8-5.7h0l1.8,5.7h-3.6Z"/>
      <polygon points="1364.7 -2.8 1354.5 -2.8 1353.1 -.2 1353.1 -.2 1357.4 -.2 1357.4 11.6 1360.4 11.6 1360.4 -.2 1363.2 -.2 1364.7 -2.8"/>
      <polygon points="1365.9 -1.3 1365.9 11.6 1368.9 11.6 1368.9 -2.8 1368.9 -2.8 1365.9 -1.3"/>
      <path d="M1377.7-3.1c-.1,0-.3,0-.4,0l-5,2.4c-.9,1.1-1.5,2.8-1.5,5.1,0,6.7,5,7.5,6.9,7.5s6.9-.8,6.9-7.5-5-7.5-6.9-7.5ZM1377.7,9.4c-1.6,0-3.9-1-3.9-5s2.3-5,3.9-5,3.9,1,3.9,5-2.3,5-3.9,5Z"/>
      <polygon points="1395.4 -1.4 1395.4 7.2 1395.4 7.2 1389.7 -2.8 1386.6 -1.2 1386.6 11.6 1389.4 11.6 1389.4 1.3 1389.4 1.3 1395.3 11.6 1398.2 11.6 1398.2 -2.8 1395.4 -1.4"/>
      <polygon points="1424.9 9 1417.8 9 1417.8 -2.8 1414.8 -1.3 1414.8 11.6 1423.4 11.6 1424.9 9"/>
      <path d="M1337.8,23.2c.6-.3,1.8-.9,1.8-2.9s-.9-3.7-4.4-3.7h-3.9l-3,1.5v12.8h6.1c2.9,0,3.7-.5,4.5-1.3.8-.7,1.2-1.8,1.2-3s-.5-2.8-2.2-3.5ZM1331,19h3.4c1.4,0,2.2.4,2.2,1.5s-.9,1.6-2.1,1.6h-3.5v-3.1ZM1334.7,28.4h-3.7v-3.8h3.8c1.1,0,2.2.5,2.2,1.7s-.8,2.1-2.3,2.1Z"/>
      <polygon points="1364.1 17.9 1364.1 26.5 1364 26.5 1358.3 16.6 1355.2 18.1 1355.2 30.9 1358 30.9 1358 20.7 1358 20.7 1363.9 30.9 1366.8 30.9 1366.8 16.6 1364.1 17.9"/>
      <path d="M1348.9,16.6h0l-4.2,2-4.4,12.3h3.2l1-3h5.3l.9,3h3.3l-5-14.3ZM1345.3,25.5l1.8-5.7h0l1.8,5.7h-3.6Z"/>
      <polygon points="1381.7 16.6 1377 17.4 1372.3 22.4 1372.3 16.6 1369.3 18 1369.3 30.9 1372.3 30.9 1372.3 26 1373.7 24.6 1378.2 30.9 1382 30.9 1375.8 22.4 1381.7 16.6"/>
    </g>
    <path class="st3" d="M1298.4,2.1c-.8.2-1.4.3-2,0-.5-.2-.8-.7-1.2-1.2l-5.6-7.7c-.3-.5-.7-1-1.2-1.2-.6-.2-1.2,0-2,0l-18.1,4.8V30.8l18.1-4.8c.8-.2,1.4-.3,2,0,.5.2.8.7,1.1,1.2l5.6,7.7c.3.5.7,1,1.2,1.1.6.2,1.2,0,2-.1l18.1-4.8V-2.8l-18.1,4.9Z"/>
    <rect x="1328.1" y="37.6" width="105.7" height=".9"/>
  </g>
  <g>
    <path class="st3" d="M1007.8,361.3c-.6.1-1,.2-1.4,0-.3-.1-.6-.5-.8-.8l-3.8-5.3c-.2-.3-.5-.7-.8-.8-.4-.2-.8,0-1.4,0l-12.4,3.3v23.1l12.4-3.3c.6-.1,1-.2,1.4,0,.3.1.6.5.8.8l3.8,5.3c.2.3.5.7.8.8.4.2.8,0,1.4,0l12.4-3.3v-23.1l-12.4,3.3Z"/>
    <rect x="1028.3" y="385.6" width="110.7" height=".6"/>
    <g>
      <path d="M1034.8,362.5c.4-.2,1.2-.6,1.2-2s-.6-2.5-3-2.5h-2.7l-2.1,1v8.8h4.2c2,0,2.5-.3,3.1-.9.5-.5.8-1.2.8-2s-.3-1.9-1.5-2.4ZM1030.2,359.7h2.4c.9,0,1.5.2,1.5,1.1s-.6,1.1-1.4,1.1h-2.4v-2.1ZM1032.7,366.1h-2.5v-2.6h2.6c.7,0,1.5.3,1.5,1.2s-.6,1.4-1.6,1.4Z"/>
      <polygon points="1083.8 366.1 1083.8 366.1 1078.4 366.1 1078.4 363.5 1082.2 363.5 1083.2 361.8 1078.4 361.8 1078.4 359.7 1082.6 359.7 1083.6 358 1078.6 358 1076.4 359.1 1076.4 367.8 1082.8 367.8 1083.8 366.1"/>
      <path d="M1064.6,366.4c.6-.8,1-1.9,1-3.5,0-4.6-3.4-5.2-4.7-5.2s-.2,0-.3,0l-3.4,1.6c-.6.8-1,1.9-1,3.5,0,4.6,3.4,5.2,4.7,5.2s1.6-.1,2.5-.7l1.2,1.1,1.1-1.1-1.1-1ZM1063.1,365l-1-1-1.1,1.1,1,.9c-.4.2-.8.3-1.1.3-1.1,0-2.7-.7-2.7-3.4s1.6-3.4,2.7-3.4,2.7.7,2.7,3.4-.2,1.6-.5,2.1Z"/>
      <path d="M1072.7,359v5.4c0,1.2-.6,1.9-2,1.9s-1.8-.6-1.8-2v-6.4h0l-2.1,1v5.5c0,1,.2,1.8.8,2.4.9,1,2.2,1.2,3.1,1.2,2.5,0,4-1.1,4-3.7v-6.4h0l-2.1,1Z"/>
      <polygon points="1052.9 358.9 1052.9 364.8 1052.9 364.8 1049 358 1046.8 359 1046.8 367.8 1048.7 367.8 1048.7 360.8 1048.7 360.8 1052.8 367.8 1054.8 367.8 1054.8 358 1052.9 358.9"/>
      <path d="M1042.5,358h0l-2.9,1.4-3,8.4h2.2l.7-2h3.6l.6,2h2.2l-3.5-9.8ZM1040,364.1l1.3-3.9h0l1.2,3.9h-2.5Z"/>
      <polygon points="1102.9 379.3 1102.9 379.3 1097.4 379.3 1097.4 376.8 1101.2 376.8 1102.2 375 1097.4 375 1097.4 373 1101.6 373 1102.6 371.2 1097.6 371.2 1095.4 372.3 1095.4 381.1 1101.9 381.1 1102.9 379.3"/>
      <polygon points="1034.3 372.2 1034.3 378.1 1034.3 378.1 1030.4 371.2 1028.3 372.3 1028.3 381.1 1030.2 381.1 1030.2 374.1 1030.2 374.1 1034.2 381.1 1036.3 381.1 1036.3 371.2 1034.3 372.2"/>
      <path d="M1043.1,371.2h0l-2.9,1.4-3,8.4h2.2l.7-2h3.6l.6,2h2.2l-3.5-9.8ZM1040.6,377.3l1.3-3.9h0l1.2,3.9h-2.5Z"/>
      <path d="M1083.2,371.2h0l-2.9,1.4-3,8.4h2.2l.7-2h3.6l.6,2h2.2l-3.5-9.8ZM1080.7,377.3l1.3-3.9h0l1.2,3.9h-2.5Z"/>
      <polygon points="1053.3 371.2 1046.4 371.2 1045.4 373 1045.4 373 1048.3 373 1048.3 381.1 1050.4 381.1 1050.4 373 1052.3 373 1053.3 371.2"/>
      <polygon points="1054.1 372.2 1054.1 381.1 1056.2 381.1 1056.2 371.2 1056.2 371.2 1054.1 372.2"/>
      <path d="M1062.3,371c0,0-.2,0-.3,0l-3.4,1.7c-.6.8-1,1.9-1,3.5,0,4.6,3.4,5.2,4.7,5.2s4.7-.6,4.7-5.2-3.4-5.2-4.7-5.2ZM1062.3,379.6c-1.1,0-2.7-.7-2.7-3.4s1.6-3.4,2.7-3.4,2.7.7,2.7,3.4-1.6,3.4-2.7,3.4Z"/>
      <polygon points="1074.4 372.2 1074.4 378.1 1074.4 378.1 1070.5 371.2 1068.3 372.3 1068.3 381.1 1070.3 381.1 1070.3 374.1 1070.3 374.1 1074.3 381.1 1076.3 381.1 1076.3 371.2 1074.4 372.2"/>
      <polygon points="1094.6 379.3 1089.7 379.3 1089.7 371.2 1087.7 372.2 1087.7 381.1 1093.6 381.1 1094.6 379.3"/>
    </g>
    <g>
      <path d="M1028,394.9c0-2.5,1.5-4.2,3.8-4.2s3.1,1.1,3.4,2.8h-1.2c-.3-1.1-1-1.7-2.2-1.7-1.6,0-2.5,1.2-2.5,3.1s.9,3.1,2.5,3.1,2.1-.6,2.3-2.3h-2.7v-1.1h3.9v4.3h-1v-1.2c-.6.8-1.4,1.4-2.6,1.4-2,0-3.6-1.6-3.6-4.2Z"/>
      <path d="M1036.9,390.9h4.9v1.1h-3.7v2.3h3.5v1.1h-3.5v2.5h3.9v1.1h-5.1v-8Z"/>
      <path d="M1042.7,396.2h1.2c0,1,.6,1.8,1.8,1.8s1.5-.4,1.5-1.2-.3-1-1.2-1.3l-1.1-.3c-1.3-.4-2-1-2-2.2s1.1-2.3,2.6-2.3,2.6,1,2.7,2.5h-1.2c0-.9-.6-1.4-1.5-1.4s-1.4.5-1.4,1.2.4.9,1.1,1.1l1.1.3c1.5.4,2,1.2,2,2.3s-1,2.4-2.8,2.4-2.9-1.1-2.9-2.8Z"/>
      <path d="M1051.3,392h-2.2v-1.1h5.6v1.1h-2.2v7h-1.2v-7Z"/>
      <path d="M1055.8,390.9h1.2v8h-1.2v-8Z"/>
      <path d="M1058.4,394.9c0-2.5,1.5-4.2,3.8-4.2s3.8,1.7,3.8,4.2-1.5,4.2-3.8,4.2-3.8-1.6-3.8-4.2ZM1064.7,394.9c0-1.9-.9-3.1-2.5-3.1s-2.5,1.2-2.5,3.1.9,3.1,2.5,3.1,2.5-1.1,2.5-3.1Z"/>
      <path d="M1067.3,390.9h1.5l3.5,6.4v-6.4h1.2v8h-1.4l-3.5-6.4v6.4h-1.2v-8Z"/>
      <path d="M1077.8,390.9h2.8c1.6,0,2.5,1,2.5,2.4s-.9,2.4-2.5,2.4h-1.6v3.2h-1.2v-8ZM1081.8,393.3c0-.9-.5-1.4-1.5-1.4h-1.3v2.7h1.3c1,0,1.5-.5,1.5-1.3Z"/>
      <path d="M1084.3,390.9h3c1.6,0,2.5.9,2.5,2.2s-.5,1.6-1.1,1.9c.7.2,1,.7,1,1.6v1.5c0,.4,0,.6.2.8h0s-1.2,0-1.2,0c-.1-.1-.2-.3-.2-.7v-1.8c0-.6-.3-.9-.9-.9h-2.1v3.3h-1.2v-8ZM1088.5,393.2c0-.8-.5-1.3-1.3-1.3h-1.8v2.6h1.8c.8,0,1.3-.5,1.3-1.3Z"/>
      <path d="M1091.4,390.9h1.2v8h-1.2v-8Z"/>
      <path d="M1097.8,398.9h-1.4l-2.8-8h1.3l2.2,6.6,2.3-6.6h1.3l-2.8,8Z"/>
      <path d="M1101.5,390.9h4.9v1.1h-3.7v2.3h3.5v1.1h-3.5v2.5h3.9v1.1h-5.1v-8ZM1104.1,388.8h1.5l-1.1,1.3h-1l.6-1.3Z"/>
      <path d="M1107.9,390.9h4.9v1.1h-3.7v2.3h3.5v1.1h-3.5v2.5h3.9v1.1h-5.1v-8Z"/>
      <path d="M1116.3,393.4v-1.1c1.1,0,1.7-.5,1.9-1.4h1.1v8h-1.2v-6.3c-.3.5-.9.8-1.8.8Z"/>
      <path d="M1120.8,396.8c0-1,.6-1.8,1.6-2.1-.8-.3-1.3-1-1.3-1.8,0-1.4,1-2.2,2.5-2.2s2.5.9,2.5,2.2-.5,1.5-1.3,1.8c1,.3,1.6,1.1,1.6,2.1s-1,2.3-2.7,2.3-2.7-.9-2.7-2.3ZM1125,396.7c0-.9-.6-1.4-1.5-1.4s-1.5.5-1.5,1.4.6,1.3,1.5,1.3,1.5-.5,1.5-1.3ZM1124.8,393c0-.8-.5-1.2-1.3-1.2s-1.3.5-1.3,1.2.5,1.2,1.3,1.2,1.3-.5,1.3-1.2Z"/>
      <path d="M1127.3,396.7h1.2c0,.8.5,1.4,1.4,1.4s1.5-.7,1.5-1.8-.5-1.7-1.4-1.7-1.1.3-1.4.9h-1.2l.5-4.6h4.3v1.1h-3.3l-.3,2.4c.4-.6,1-.9,1.7-.9,1.3,0,2.3,1,2.3,2.7s-1,2.9-2.8,2.9-2.5-.9-2.6-2.4Z"/>
      <path d="M1133.6,396.9h1.2c.1.6.6,1.1,1.3,1.1,1.1,0,1.7-1.2,1.8-3-.4.7-1.1,1.2-2,1.2-1.4,0-2.4-1.2-2.4-2.7s1.1-2.8,2.7-2.8,2.8,1.6,2.8,4.1-1,4.3-2.9,4.3-2.4-1-2.5-2.2ZM1137.6,393.4c0-1-.6-1.7-1.5-1.7s-1.5.6-1.5,1.6.7,1.7,1.5,1.7,1.5-.7,1.5-1.7Z"/>
    </g>
  </g>
  <g>
    <path class="st3" d="M1403.1,367.4c-.8.2-1.3.3-1.9,0-.4-.2-.8-.6-1.1-1.1l-5.1-7c-.3-.4-.7-.9-1.1-1.1-.5-.2-1.1,0-1.9,0l-16.6,4.4v30.9l16.6-4.4c.8-.2,1.3-.3,1.9,0,.4.2.8.6,1.1,1.1l5.1,7c.3.4.6.9,1.1,1.1.5.2,1.1,0,1.9,0l16.6-4.4v-30.8l-16.6,4.5Z"/>
    <path class="st0" d="M1521.4,367.2h0l-6.5,3.2-6.9,19.3h4.9l1.6-4.6h8.3l1.4,4.6h5.1l-7.9-22.5ZM1515.7,381.2l2.9-8.9h0l2.8,8.9h-5.7Z"/>
    <path class="st0" d="M1503.9,377.6c.9-.5,2.8-1.4,2.8-4.6s-1.4-5.8-6.9-5.8h-6.2l-4.7,2.3v20.2h9.5c4.6,0,5.8-.8,7.1-2,1.2-1.2,1.9-2.8,1.9-4.6s-.7-4.4-3.5-5.4ZM1493.3,371.1h5.4c2.1,0,3.4.6,3.4,2.4s-1.5,2.5-3.3,2.5h-5.5v-4.9ZM1499,385.8h-5.8v-6h6c1.7,0,3.4.8,3.4,2.7s-1.3,3.3-3.6,3.3Z"/>
    <path class="st0" d="M1545.2,369.4v13.5h0l-8.9-15.6-5,2.4v20h4.4v-16h0l9.2,16h4.7v-22.5l-4.4,2.1Z"/>
    <path class="st0" d="M1573.2,367.2l-7.3,1.3-7.4,7.8v-9.1l-4.7,2.3v20.2h4.7v-7.6l2.2-2.3,6.9,9.9h6l-9.7-13.3,9.2-9.2Z"/>
    <path class="st0" d="M1464.3,367.2h0l-6.5,3.2-6.9,19.3h4.9l1.6-4.6h8.3l1.4,4.6h5.1l-7.9-22.5ZM1458.6,381.2l2.9-8.9h0l2.8,8.9h-5.7Z"/>
    <path class="st0" d="M1487.7,367.2h-16l-2.3,3.9h0s6.8,0,6.8,0v18.5h4.7v-18.5h4.5l2.3-4Z"/>
    <path class="st0" d="M1444.2,369.4v13.5h0l-8.9-15.6-4.9,2.4v20h4.4v-16h0l9.2,16h4.7v-22.5l-4.4,2.1Z"/>
  </g>
  <g>
    <path class="st2" d="M-44-113.7c-.5.1-.9.2-1.3,0-.3-.1-.5-.5-.8-.8l-3.7-5c-.2-.3-.5-.6-.8-.8-.4-.2-.8,0-1.3,0l-11.9,3.2v22.1l11.9-3.2c.5-.1.9-.2,1.3,0,.3.1.5.5.8.8l3.7,5c.2.3.5.6.8.8.4.1.8,0,1.3,0l11.9-3.2v-22.1l-11.9,3.2Z"/>
    <rect class="st2" x="-24.4" y="-90.3" width="106.2" height=".6"/>
    <g>
      <path class="st2" d="M-18.1-112.5c.4-.2,1.2-.6,1.2-1.9s-.6-2.4-2.9-2.4h-2.6l-2,1v8.5h4c1.9,0,2.4-.3,3-.9.5-.5.8-1.2.8-1.9s-.3-1.8-1.5-2.3ZM-22.5-115.3h2.3c.9,0,1.4.2,1.4,1s-.6,1-1.4,1h-2.3v-2.1ZM-20.1-109.1h-2.4v-2.5h2.5c.7,0,1.4.3,1.4,1.1s-.6,1.4-1.5,1.4Z"/>
      <polygon class="st2" points="28.9 -109.1 28.9 -109.1 23.6 -109.1 23.6 -111.6 27.3 -111.6 28.2 -113.2 23.6 -113.2 23.6 -115.2 27.7 -115.2 28.6 -116.9 23.8 -116.9 21.7 -115.8 21.7 -107.5 27.9 -107.5 28.9 -109.1"/>
      <path class="st2" d="M10.4-108.8c.6-.7,1-1.8,1-3.4,0-4.4-3.3-5-4.5-5s-.2,0-.3,0l-3.2,1.6c-.6.7-1,1.8-1,3.4,0,4.4,3.3,5,4.5,5s1.5-.1,2.4-.6l1.1,1.1,1-1.1-1-1ZM9-110.2l-1-.9-1,1.1.9.9c-.4.2-.7.2-1.1.2-1.1,0-2.6-.7-2.6-3.3s1.5-3.3,2.6-3.3,2.6.7,2.6,3.3-.2,1.5-.4,2Z"/>
      <path class="st2" d="M18.2-115.9v5.2c0,1.1-.6,1.8-1.9,1.8s-1.7-.6-1.7-1.9v-6.1h0l-2,1v5.3c0,.9.2,1.7.7,2.3.8.9,2.1,1.1,3,1.1,2.4,0,3.9-1.1,3.9-3.5v-6.1h0l-2,1Z"/>
      <polygon class="st2" points="-.8 -116 -.8 -110.3 -.8 -110.3 -4.6 -116.9 -6.6 -115.9 -6.6 -107.5 -4.8 -107.5 -4.8 -114.2 -4.8 -114.2 -.9 -107.5 1 -107.5 1 -116.9 -.8 -116"/>
      <path class="st2" d="M-10.8-116.9h0l-2.7,1.3-2.9,8.1h2.1l.7-1.9h3.5l.6,1.9h2.1l-3.3-9.4ZM-13.2-111l1.2-3.7h0l1.2,3.7h-2.4Z"/>
      <polygon class="st2" points="47.2 -96.4 47.2 -96.4 41.9 -96.4 41.9 -98.9 45.6 -98.9 46.5 -100.5 41.9 -100.5 41.9 -102.5 46 -102.5 46.9 -104.2 42.1 -104.2 40 -103.1 40 -94.7 46.2 -94.7 47.2 -96.4"/>
      <polygon class="st2" points="-18.6 -103.3 -18.6 -97.6 -18.6 -97.6 -22.4 -104.2 -24.4 -103.2 -24.4 -94.7 -22.6 -94.7 -22.6 -101.5 -22.6 -101.5 -18.7 -94.7 -16.8 -94.7 -16.8 -104.2 -18.6 -103.3"/>
      <path class="st2" d="M-10.2-104.2h0l-2.7,1.3-2.9,8.1h2.1l.7-1.9h3.5l.6,1.9h2.1l-3.3-9.4ZM-12.6-98.3l1.2-3.7h0l1.2,3.7h-2.4Z"/>
      <path class="st2" d="M28.3-104.2h0l-2.7,1.3-2.9,8.1h2.1l.7-1.9h3.5l.6,1.9h2.1l-3.3-9.4ZM25.9-98.3l1.2-3.7h0l1.2,3.7h-2.4Z"/>
      <polygon class="st2" points="-.4 -104.2 -7.1 -104.2 -8 -102.5 -8 -102.5 -5.2 -102.5 -5.2 -94.7 -3.2 -94.7 -3.2 -102.5 -1.3 -102.5 -.4 -104.2"/>
      <polygon class="st2" points=".4 -103.2 .4 -94.7 2.4 -94.7 2.4 -104.2 2.4 -104.2 .4 -103.2"/>
      <path class="st2" d="M8.2-104.4c0,0-.2,0-.3,0l-3.3,1.6c-.6.7-1,1.8-1,3.4,0,4.4,3.3,5,4.5,5s4.5-.5,4.5-5-3.3-5-4.5-5ZM8.2-96.2c-1.1,0-2.6-.7-2.6-3.3s1.5-3.3,2.6-3.3,2.6.7,2.6,3.3-1.5,3.3-2.6,3.3Z"/>
      <polygon class="st2" points="19.9 -103.3 19.9 -97.6 19.8 -97.6 16.1 -104.2 14 -103.2 14 -94.7 15.9 -94.7 15.9 -101.5 15.9 -101.5 19.7 -94.7 21.7 -94.7 21.7 -104.2 19.9 -103.3"/>
      <polygon class="st2" points="39.2 -96.5 34.6 -96.5 34.6 -104.2 32.6 -103.2 32.6 -94.7 38.3 -94.7 39.2 -96.5"/>
    </g>
    <g>
      <path class="st2" d="M-24.7-81.4c0-2.4,1.5-4,3.6-4s2.9,1,3.3,2.7h-1.2c-.3-1-1-1.6-2.1-1.6-1.5,0-2.4,1.1-2.4,3s.9,2.9,2.4,2.9,2-.6,2.2-2.2h-2.6v-1h3.7v4.1h-1v-1.1c-.5.8-1.4,1.3-2.5,1.3-1.9,0-3.5-1.5-3.5-4Z"/>
      <path class="st2" d="M-16.1-85.3h4.7v1h-3.5v2.2h3.3v1h-3.3v2.4h3.7v1h-4.9v-7.7Z"/>
      <path class="st2" d="M-10.6-80.2h1.1c0,1,.6,1.7,1.7,1.7s1.5-.4,1.5-1.2-.3-1-1.2-1.2l-1-.3c-1.2-.3-1.9-1-1.9-2.1s1-2.2,2.5-2.2,2.5.9,2.6,2.4h-1.1c0-.9-.5-1.4-1.4-1.4s-1.4.4-1.4,1.1.3.9,1.1,1.1l1.1.3c1.4.4,1.9,1.2,1.9,2.2s-.9,2.3-2.7,2.3-2.8-1.1-2.8-2.7Z"/>
      <path class="st2" d="M-2.3-84.3h-2.1v-1H.9v1H-1.2v6.7h-1.2v-6.7Z"/>
      <path class="st2" d="M2-85.3h1.2v7.7h-1.2v-7.7Z"/>
      <path class="st2" d="M4.5-81.5c0-2.4,1.5-4,3.6-4s3.6,1.6,3.6,4-1.5,4-3.6,4-3.6-1.6-3.6-4ZM10.6-81.5c0-1.8-.9-3-2.4-3s-2.4,1.1-2.4,3,.9,2.9,2.4,2.9,2.4-1.1,2.4-2.9Z"/>
      <path class="st2" d="M13-85.3h1.4l3.3,6.1v-6.1h1.1v7.7h-1.4l-3.4-6.1v6.1h-1.1v-7.7Z"/>
      <path class="st2" d="M23.1-85.3h2.7c1.5,0,2.4,1,2.4,2.3s-.9,2.3-2.4,2.3h-1.5v3.1h-1.2v-7.7ZM26.9-83c0-.9-.5-1.3-1.4-1.3h-1.3v2.6h1.3c1,0,1.4-.4,1.4-1.3Z"/>
      <path class="st2" d="M29.3-85.3h2.9c1.5,0,2.4.9,2.4,2.1s-.4,1.6-1.1,1.8c.6.2,1,.7,1,1.5v1.4c0,.4,0,.6.2.8h0s-1.2,0-1.2,0c-.1-.1-.2-.3-.2-.6v-1.7c0-.6-.3-.8-.9-.8h-2v3.2h-1.2v-7.7ZM33.4-83.1c0-.8-.5-1.2-1.2-1.2h-1.7v2.4h1.7c.8,0,1.2-.5,1.2-1.2Z"/>
      <path class="st2" d="M36.2-85.3h1.2v7.7h-1.2v-7.7Z"/>
      <path class="st2" d="M42.3-77.6h-1.3l-2.7-7.7h1.2l2.1,6.4,2.2-6.4h1.2l-2.7,7.7Z"/>
      <path class="st2" d="M45.8-85.3h4.7v1h-3.5v2.2h3.3v1h-3.3v2.4h3.7v1h-4.9v-7.7ZM48.3-87.3h1.4l-1.1,1.2h-1l.6-1.2Z"/>
      <path class="st2" d="M52-85.3h4.7v1h-3.5v2.2h3.3v1h-3.3v2.4h3.7v1h-4.9v-7.7Z"/>
      <path class="st2" d="M60.1-82.9v-1.1c1,0,1.6-.5,1.8-1.4h1v7.7h-1.1v-6c-.3.5-.9.7-1.7.7Z"/>
      <path class="st2" d="M64.3-79.6c0-1,.6-1.7,1.5-2-.8-.3-1.3-.9-1.3-1.7,0-1.3.9-2.1,2.4-2.1s2.4.8,2.4,2.1-.5,1.5-1.3,1.7c.9.3,1.5,1,1.5,2s-1,2.2-2.6,2.2-2.6-.8-2.6-2.2ZM68.4-79.7c0-.8-.6-1.3-1.5-1.3s-1.5.5-1.5,1.3.6,1.3,1.5,1.3,1.5-.5,1.5-1.3ZM68.2-83.3c0-.7-.5-1.2-1.3-1.2s-1.3.4-1.3,1.2.5,1.2,1.3,1.2,1.3-.4,1.3-1.2Z"/>
      <path class="st2" d="M70.6-79.8h1.1c0,.7.5,1.3,1.4,1.3s1.5-.6,1.5-1.7-.5-1.7-1.4-1.7-1.1.3-1.4.9h-1.1l.5-4.4h4.1v1.1h-3.2l-.3,2.3c.4-.5,1-.8,1.6-.8,1.3,0,2.2,1,2.2,2.6s-1,2.8-2.6,2.8-2.4-.9-2.4-2.3Z"/>
      <path class="st2" d="M76.6-79.5h1.1c.1.6.5,1.1,1.2,1.1,1.1,0,1.7-1.2,1.7-2.9-.3.7-1,1.1-1.9,1.1-1.4,0-2.3-1.2-2.3-2.6s1.1-2.7,2.6-2.7,2.6,1.5,2.6,3.9-1,4.1-2.8,4.1-2.3-1-2.4-2.1ZM80.5-82.9c0-.9-.6-1.6-1.4-1.6s-1.4.6-1.4,1.6.6,1.7,1.4,1.7,1.4-.7,1.4-1.6Z"/>
    </g>
  </g>
  <g>
    <g>
      <polygon class="st2" points="131.2 -115.1 131.2 -109.7 131.2 -109.7 127.6 -116 125.7 -115 125.7 -107 127.4 -107 127.4 -113.4 127.4 -113.4 131.1 -107 133 -107 133 -116 131.2 -115.1"/>
      <path class="st2" d="M139.2-116h0l-2.6,1.3-2.7,7.7h2l.6-1.8h3.3l.6,1.8h2l-3.2-9ZM137-110.4l1.1-3.5h0l1.1,3.5h-2.3Z"/>
      <path class="st2" d="M175.9-116h0l-2.6,1.3-2.7,7.7h2l.6-1.8h3.3l.6,1.8h2l-3.2-9ZM173.6-110.4l1.1-3.5h0l1.1,3.5h-2.3Z"/>
      <polygon class="st2" points="148.6 -116 142.2 -116 141.3 -114.4 141.3 -114.4 144 -114.4 144 -107 145.9 -107 145.9 -114.4 147.7 -114.4 148.6 -116"/>
      <polygon class="st2" points="149.3 -115 149.3 -107 151.2 -107 151.2 -116 151.2 -116 149.3 -115"/>
      <path class="st2" d="M156.7-116.2c0,0-.2,0-.3,0l-3.1,1.5c-.6.7-.9,1.7-.9,3.2,0,4.2,3.1,4.7,4.3,4.7s4.3-.5,4.3-4.7-3.1-4.7-4.3-4.7ZM156.7-108.3c-1,0-2.4-.6-2.4-3.1s1.4-3.1,2.4-3.1,2.4.6,2.4,3.1-1.4,3.1-2.4,3.1Z"/>
      <polygon class="st2" points="167.8 -115.1 167.8 -109.7 167.8 -109.7 164.3 -116 162.3 -115 162.3 -107 164 -107 164 -113.4 164.1 -113.4 167.7 -107 169.6 -107 169.6 -116 167.8 -115.1"/>
      <polygon class="st2" points="186.3 -108.6 181.8 -108.6 181.8 -116 180 -115 180 -107 185.4 -107 186.3 -108.6"/>
      <path class="st2" d="M131.7-99.7c.4-.2,1.1-.5,1.1-1.8s-.6-2.3-2.8-2.3h-2.5l-1.9.9v8h3.8c1.8,0,2.3-.3,2.8-.8.5-.5.8-1.1.8-1.8s-.3-1.8-1.4-2.2ZM127.5-102.3h2.1c.9,0,1.4.2,1.4,1s-.6,1-1.3,1h-2.2v-2ZM129.8-96.4h-2.3v-2.4h2.4c.7,0,1.3.3,1.3,1.1s-.5,1.3-1.4,1.3Z"/>
      <polygon class="st2" points="148.2 -103 148.2 -97.6 148.1 -97.6 144.6 -103.8 142.6 -102.9 142.6 -94.9 144.4 -94.9 144.4 -101.3 144.4 -101.3 148 -94.9 149.9 -94.9 149.9 -103.8 148.2 -103"/>
      <path class="st2" d="M138.7-103.8h0l-2.6,1.3-2.7,7.7h2l.6-1.8h3.3l.6,1.8h2l-3.2-9ZM136.4-98.3l1.1-3.5h0l1.1,3.5h-2.3Z"/>
      <polygon class="st2" points="159.2 -103.8 156.3 -103.3 153.4 -100.2 153.4 -103.8 151.5 -102.9 151.5 -94.9 153.4 -94.9 153.4 -97.9 154.2 -98.8 157 -94.9 159.4 -94.9 155.5 -100.2 159.2 -103.8"/>
    </g>
    <path class="st2" d="M107-112.9c-.5.1-.9.2-1.3,0-.3-.1-.5-.4-.7-.7l-3.5-4.8c-.2-.3-.4-.6-.7-.7-.4-.1-.8,0-1.3,0l-11.3,3v21.1l11.4-3c.5-.1.9-.2,1.3,0,.3.1.5.4.7.7l3.5,4.8c.2.3.4.6.7.7.4.1.8,0,1.3,0l11.3-3v-21.1l-11.3,3Z"/>
    <rect class="st2" x="125.7" y="-90.7" width="108.1" height=".6"/>
    <g>
      <path class="st2" d="M125.7-85.9h2.6c1.4,0,2.2.9,2.2,2.2s-.8,2.2-2.2,2.2h-1.5v2.9h-1.1v-7.4ZM129.3-83.7c0-.8-.4-1.2-1.4-1.2h-1.2v2.5h1.2c.9,0,1.4-.4,1.4-1.2Z"/>
      <path class="st2" d="M131.6-85.9h2.8c1.5,0,2.2.8,2.2,2s-.4,1.5-1,1.7c.6.2,1,.6,1,1.4v1.4c0,.3,0,.6.2.8h0s-1.1,0-1.1,0c-.1-.1-.2-.3-.2-.6v-1.6c0-.6-.3-.8-.8-.8h-1.9v3.1h-1.1v-7.4ZM135.5-83.7c0-.7-.4-1.2-1.2-1.2h-1.6v2.3h1.6c.7,0,1.2-.4,1.2-1.2Z"/>
      <path class="st2" d="M138.2-85.9h1.1v7.4h-1.1v-7.4Z"/>
      <path class="st2" d="M144-78.5h-1.3l-2.6-7.4h1.2l2,6.1,2.1-6.1h1.1l-2.6,7.4Z"/>
      <path class="st2" d="M148.9-85.9h1.3l2.7,7.4h-1.2l-.6-1.8h-3l-.7,1.8h-1.1l2.7-7.4ZM150.7-81.3l-1.2-3.3-1.2,3.3h2.3Z"/>
      <path class="st2" d="M154.4-84.9h-2v-1h5.1v1h-2v6.4h-1.1v-6.4Z"/>
      <path class="st2" d="M158.5-85.9h4.5v1h-3.4v2.1h3.2v1h-3.2v2.3h3.5v1h-4.6v-7.4Z"/>
      <path class="st2" d="M166.7-85.9h2.7c1.3,0,2.1.8,2.1,1.9s-.4,1.3-1.1,1.6c.9.3,1.4.9,1.4,1.8s-.8,2.1-2.1,2.1h-3.1v-7.4ZM170.4-83.8c0-.7-.4-1.1-1.3-1.1h-1.3v2.2h1.3c.9,0,1.2-.4,1.2-1.1ZM170.7-80.7c0-.7-.4-1.2-1.1-1.2h-1.7v2.3h1.7c.7,0,1.1-.5,1.1-1.2Z"/>
      <path class="st2" d="M175-85.9h1.3l2.7,7.4h-1.2l-.6-1.8h-3l-.7,1.8h-1.1l2.7-7.4ZM176.8-81.3l-1.2-3.3-1.2,3.3h2.3Z"/>
      <path class="st2" d="M179.7-85.9h1.3l3.2,5.8v-5.8h1.1v7.4h-1.3l-3.2-5.8v5.8h-1.1v-7.4Z"/>
      <path class="st2" d="M187-85.9h1.1v3.8l2.9-3.8h1.4l-2.3,2.9,2.7,4.4h-1.3l-2.1-3.5-1.2,1.5v2h-1.1v-7.4Z"/>
      <path class="st2" d="M193.5-85.9h1.1v7.4h-1.1v-7.4Z"/>
      <path class="st2" d="M196.3-85.9h1.3l3.2,5.8v-5.8h1.1v7.4h-1.3l-3.2-5.8v5.8h-1.1v-7.4Z"/>
      <path class="st2" d="M203.1-82.2c0-2.3,1.4-3.9,3.5-3.9s2.8,1,3.1,2.6h-1.1c-.3-1-.9-1.6-2-1.6-1.4,0-2.3,1.1-2.3,2.8s.9,2.8,2.3,2.8,1.9-.6,2.1-2.1h-2.5v-1h3.5v3.9h-.9v-1.1c-.5.8-1.3,1.2-2.4,1.2-1.9,0-3.3-1.4-3.3-3.8Z"/>
      <path class="st2" d="M213.1-83.6v-1c1,0,1.6-.4,1.7-1.3h1v7.4h-1.1v-5.7c-.3.5-.8.7-1.7.7Z"/>
      <path class="st2" d="M217.1-80.5c0-.9.5-1.6,1.4-1.9-.8-.3-1.2-.9-1.2-1.7,0-1.3.9-2,2.3-2s2.3.8,2.3,2-.5,1.4-1.2,1.7c.9.3,1.4,1,1.4,1.9s-1,2.1-2.5,2.1-2.5-.8-2.5-2.1ZM221-80.6c0-.8-.5-1.3-1.4-1.3s-1.4.5-1.4,1.3.5,1.2,1.4,1.2,1.4-.5,1.4-1.2ZM220.8-84c0-.7-.5-1.1-1.2-1.1s-1.2.4-1.2,1.1.5,1.1,1.2,1.1,1.2-.4,1.2-1.1Z"/>
      <path class="st2" d="M223.1-80.6h1.1c0,.7.4,1.2,1.3,1.2s1.4-.6,1.4-1.6-.5-1.6-1.3-1.6-1,.3-1.3.8h-1.1l.5-4.2h3.9v1h-3l-.3,2.2c.4-.5.9-.8,1.5-.8,1.2,0,2.1.9,2.1,2.5s-.9,2.6-2.5,2.6-2.3-.8-2.3-2.2Z"/>
      <path class="st2" d="M228.9-80.4h1.1c.1.6.5,1,1.2,1,1,0,1.6-1.1,1.6-2.8-.3.6-1,1.1-1.8,1.1-1.3,0-2.2-1.1-2.2-2.5s1-2.5,2.5-2.5,2.5,1.5,2.5,3.7-.9,3.9-2.6,3.9-2.2-.9-2.2-2ZM232.5-83.6c0-.9-.6-1.5-1.4-1.5s-1.3.6-1.3,1.5.6,1.6,1.3,1.6,1.3-.6,1.3-1.5Z"/>
    </g>
  </g>
  <g>
    <g>
      <rect x="469.2" y="7.3" width="38.6" height=".3"/>
      <g>
        <path class="st3" d="M458.7-5.3c-.3,0-.5.1-.7,0-.2,0-.3-.2-.4-.4l-2-2.7c-.1-.2-.3-.3-.4-.4-.2,0-.4,0-.7,0l-6.4,1.7V4.9l6.4-1.7c.3,0,.5-.1.7,0,.2,0,.3.2.4.4l2,2.7c.1.2.2.3.4.4.2,0,.4,0,.7,0l6.4-1.7V-7.1l-6.4,1.7Z"/>
        <g>
          <path d="M472.6-4.7c.2-.1.6-.3.6-1s-.3-1.3-1.6-1.3h-1.4l-1.1.5V-2h2.2c1,0,1.3-.2,1.6-.5.3-.3.4-.6.4-1s-.2-1-.8-1.2ZM470.3-6.2h1.2c.5,0,.8.1.8.5s-.3.6-.8.6h-1.2v-1.1ZM471.6-2.9h-1.3v-1.4h1.4c.4,0,.8.2.8.6s-.3.7-.8.7Z"/>
          <polygon points="498 -2.9 498 -2.9 495.2 -2.9 495.2 -4.2 497.1 -4.2 497.7 -5.1 495.2 -5.1 495.2 -6.2 497.4 -6.2 497.9 -7.1 495.3 -7.1 494.1 -6.5 494.1 -2 497.5 -2 498 -2.9"/>
          <path d="M488-2.7c.3-.4.5-1,.5-1.8,0-2.4-1.8-2.7-2.4-2.7s-.1,0-.2,0l-1.8.9c-.3.4-.5,1-.5,1.8,0,2.4,1.8,2.7,2.4,2.7s.8,0,1.3-.3l.6.6.6-.6-.6-.5ZM487.3-3.4l-.5-.5-.5.6.5.5c-.2,0-.4.1-.6.1-.6,0-1.4-.4-1.4-1.8s.8-1.8,1.4-1.8,1.4.4,1.4,1.8,0,.8-.2,1.1Z"/>
          <path d="M492.3-6.5v2.8c0,.6-.3,1-1,1s-.9-.3-.9-1v-3.3h0l-1.1.5v2.8c0,.5.1.9.4,1.2.5.5,1.1.6,1.6.6,1.3,0,2.1-.6,2.1-1.9v-3.3h0l-1.1.5Z"/>
          <polygon points="482 -6.6 482 -3.5 482 -3.5 480 -7.1 478.8 -6.5 478.8 -2 479.8 -2 479.8 -5.6 479.8 -5.6 481.9 -2 483 -2 483 -7.1 482 -6.6"/>
          <path d="M476.6-7.1h0l-1.5.7-1.6,4.4h1.1l.4-1h1.9l.3,1h1.2l-1.8-5.1ZM475.3-3.9l.7-2h0l.6,2h-1.3Z"/>
          <polygon class="st1" points="507.9 4 507.9 4 505.1 4 505.1 2.7 507 2.7 507.5 1.8 505.1 1.8 505.1 .7 507.2 .7 507.8 -.2 505.2 -.2 504 .4 504 4.9 507.4 4.9 507.9 4"/>
          <polygon points="472.4 .3 472.4 3.3 472.4 3.3 470.3 -.2 469.2 .3 469.2 4.9 470.2 4.9 470.2 1.3 470.2 1.3 472.3 4.9 473.4 4.9 473.4 -.2 472.4 .3"/>
          <path d="M476.9-.2h0l-1.5.7-1.6,4.4h1.1l.4-1h1.9l.3,1h1.2l-1.8-5.1ZM475.6,3l.7-2h0l.6,2h-1.3Z"/>
          <path d="M497.7-.2h0l-1.5.7-1.6,4.4h1.1l.4-1h1.9l.3,1h1.2l-1.8-5.1ZM496.4,3l.7-2h0l.6,2h-1.3Z"/>
          <polygon points="482.2 -.2 478.6 -.2 478.1 .7 478.1 .7 479.6 .7 479.6 4.9 480.7 4.9 480.7 .7 481.7 .7 482.2 -.2"/>
          <polygon points="482.6 .3 482.6 4.9 483.7 4.9 483.7 -.2 483.7 -.2 482.6 .3"/>
          <path d="M486.8-.3s0,0-.2,0l-1.8.9c-.3.4-.5,1-.5,1.8,0,2.4,1.8,2.7,2.4,2.7s2.4-.3,2.4-2.7-1.8-2.7-2.4-2.7ZM486.8,4.1c-.6,0-1.4-.4-1.4-1.8s.8-1.8,1.4-1.8,1.4.4,1.4,1.8-.8,1.8-1.4,1.8Z"/>
          <polygon points="493.1 .3 493.1 3.3 493.1 3.3 491.1 -.2 490 .3 490 4.9 491 4.9 491 1.3 491 1.3 493.1 4.9 494.1 4.9 494.1 -.2 493.1 .3"/>
          <polygon points="503.6 4 501.1 4 501.1 -.2 500 .3 500 4.9 503.1 4.9 503.6 4"/>
        </g>
      </g>
    </g>
    <g>
      <path d="M470.8,10h.7l1.5,4.2h-.7l-.4-1h-1.7l-.4,1h-.7l1.5-4.2ZM471.8,12.6l-.7-1.9-.7,1.9h1.3Z"/>
      <path d="M473.2,12.7h.6c0,.5.3.9.9.9s.8-.2.8-.6-.2-.5-.6-.7l-.6-.2c-.7-.2-1-.5-1-1.1s.5-1.2,1.4-1.2,1.4.5,1.4,1.3h-.6c0-.5-.3-.7-.8-.7s-.7.2-.7.6.2.5.6.6l.6.2c.8.2,1.1.6,1.1,1.2s-.5,1.2-1.5,1.2-1.5-.6-1.5-1.5Z"/>
      <path d="M476.7,12.7h.6c0,.5.3.9.9.9s.8-.2.8-.6-.2-.5-.6-.7l-.6-.2c-.7-.2-1-.5-1-1.1s.5-1.2,1.4-1.2,1.4.5,1.4,1.3h-.6c0-.5-.3-.7-.8-.7s-.7.2-.7.6.2.5.6.6l.6.2c.8.2,1.1.6,1.1,1.2s-.5,1.2-1.5,1.2-1.5-.6-1.5-1.5Z"/>
      <path d="M480.3,12.6v-2.7h.6v2.7c0,.7.3,1,.9,1s.9-.3.9-1v-2.7h.6v2.7c0,1-.5,1.6-1.5,1.6s-1.5-.5-1.5-1.6Z"/>
      <path d="M484.2,10h1.6c.8,0,1.3.5,1.3,1.1s-.2.8-.6,1c.3,0,.5.4.5.8v.8c0,.2,0,.3.1.4h0s-.6,0-.6,0c0,0-.1-.2-.1-.3v-.9c0-.3-.2-.5-.5-.5h-1.1v1.7h-.6v-4.2ZM486.4,11.2c0-.4-.2-.7-.7-.7h-.9v1.3h.9c.4,0,.7-.3.7-.7Z"/>
      <path d="M488.9,10h.7l1.5,4.2h-.7l-.4-1h-1.7l-.4,1h-.7l1.5-4.2ZM488.6,12.6h1.3l-.7-1.9-.7,1.9"/>
      <path d="M491.7,10h.8l1.8,3.3v-3.3h.6v4.2h-.7l-1.8-3.3v3.3h-.6v-4.2Z"/>
      <path d="M495.5,12.1c0-1.3.8-2.2,2-2.2s1.6.6,1.8,1.5h-.6c-.2-.6-.5-.9-1.2-.9s-1.3.6-1.3,1.6.5,1.6,1.3,1.6,1-.3,1.2-.9h.6c-.1.9-.8,1.5-1.8,1.5s-2-.9-2-2.2Z"/>
      <path d="M499.9,10h2.5v.6h-1.9v1.2h1.8v.6h-1.8v1.3h2v.6h-2.6v-4.2Z"/>
      <path d="M502.9,12.7h.6c0,.5.3.9.9.9s.8-.2.8-.6-.2-.5-.6-.7l-.6-.2c-.7-.2-1-.5-1-1.1s.5-1.2,1.4-1.2,1.4.5,1.4,1.3h-.6c0-.5-.3-.7-.8-.7s-.7.2-.7.6.2.5.6.6l.6.2c.8.2,1.1.6,1.1,1.2s-.5,1.2-1.5,1.2-1.5-.6-1.5-1.5Z"/>
    </g>
  </g>
  <g>
    <g>
      <polygon points="747 -21.1 747 -10.8 747 -10.8 740.1 -22.8 736.3 -20.9 736.3 -5.5 739.7 -5.5 739.7 -17.8 739.7 -17.8 746.8 -5.5 750.4 -5.5 750.4 -22.8 747 -21.1"/>
      <path d="M762.4-22.8h0l-5,2.5-5.3,14.8h3.8l1.2-3.6h6.4l1.1,3.6h3.9l-6.1-17.3ZM758.1-12.1l2.2-6.8h0l2.1,6.8h-4.4Z"/>
      <path d="M833-22.8h0l-5,2.5-5.3,14.8h3.8l1.2-3.6h6.4l1.1,3.6h3.9l-6.1-17.3ZM828.6-12.1l2.2-6.8h0l2.1,6.8h-4.4Z"/>
      <polygon points="780.4 -22.8 768.1 -22.8 766.4 -19.7 766.4 -19.7 771.6 -19.7 771.6 -5.5 775.2 -5.5 775.2 -19.7 778.6 -19.7 780.4 -22.8"/>
      <polygon points="781.8 -21 781.8 -5.5 785.5 -5.5 785.5 -22.8 785.5 -22.8 781.8 -21"/>
      <path d="M796.1-23.2c-.2,0-.3,0-.5,0l-6,2.9c-1.1,1.4-1.8,3.3-1.8,6.2,0,8.1,6,9.1,8.3,9.1s8.3-1,8.3-9.1-6-9.1-8.3-9.1ZM796.1-8.1c-1.9,0-4.7-1.2-4.7-6s2.7-6,4.7-6,4.7,1.2,4.7,6-2.7,6-4.7,6Z"/>
      <polygon points="817.5 -21.1 817.5 -10.8 817.5 -10.8 810.6 -22.8 806.8 -20.9 806.8 -5.5 810.2 -5.5 810.2 -17.8 810.2 -17.8 817.3 -5.5 820.9 -5.5 820.9 -22.8 817.5 -21.1"/>
      <polygon points="853 -8.6 844.5 -8.6 844.5 -22.8 840.9 -21 840.9 -5.5 851.2 -5.5 853 -8.6"/>
      <path d="M747.9,8.5c.7-.4,2.1-1.1,2.1-3.5s-1.1-4.4-5.3-4.4h-4.8l-3.6,1.8v15.5h7.3c3.5,0,4.5-.6,5.5-1.6.9-.9,1.5-2.2,1.5-3.6s-.6-3.4-2.7-4.2ZM739.8,3.5h4.1c1.6,0,2.6.4,2.6,1.9s-1.1,1.9-2.6,1.9h-4.2v-3.8ZM744.2,14.8h-4.4v-4.6h4.6c1.3,0,2.6.6,2.6,2.1s-1,2.5-2.8,2.5Z"/>
      <polygon points="779.6 2.2 779.6 12.6 779.6 12.6 772.7 .5 768.9 2.4 768.9 17.8 772.3 17.8 772.3 5.5 772.3 5.5 779.4 17.8 783 17.8 783 .5 779.6 2.2"/>
      <path d="M761.3.5h0l-5,2.5-5.3,14.8h3.8l1.2-3.6h6.4l1.1,3.6h3.9l-6.1-17.3ZM757,11.3l2.2-6.8h0l2.1,6.8h-4.4Z"/>
      <polygon points="800.9 .5 795.3 1.5 789.6 7.6 789.6 .5 786 2.3 786 17.8 789.6 17.8 789.6 12 791.3 10.2 796.6 17.8 801.3 17.8 793.8 7.6 800.9 .5"/>
    </g>
    <path class="st3" d="M700.4-16.9c-1,.2-1.7.4-2.4.1-.6-.2-1-.8-1.4-1.4l-6.8-9.3c-.4-.6-.9-1.2-1.4-1.4-.7-.3-1.5-.1-2.4.1l-21.8,5.8V17.7l21.9-5.8c1-.2,1.7-.4,2.5-.1.5.2,1,.8,1.4,1.4l6.7,9.2c.4.6.8,1.1,1.4,1.4.7.3,1.4.1,2.4-.1l21.8-5.8V-22.8l-21.8,5.9Z"/>
    <rect x="736.3" y="25.9" width="116.7" height="1.1"/>
    <g>
      <path d="M736.2,35.1h2.1v14.2h-2.1v-14.2Z"/>
      <path d="M741.5,35.1h2.6l6.1,11.3v-11.3h2.1v14.2h-2.5l-6.2-11.3v11.3h-2.1v-14.2Z"/>
      <path d="M754.5,44.5h2.1c0,1.8,1,3.2,3.1,3.2s2.7-.8,2.7-2.2-.5-1.8-2.1-2.2l-1.9-.5c-2.2-.6-3.5-1.8-3.5-3.8s1.9-4.1,4.6-4.1,4.7,1.7,4.7,4.4h-2.1c0-1.6-1-2.5-2.6-2.5s-2.5.8-2.5,2.1.6,1.6,2,2l2,.6c2.6.8,3.6,2.2,3.6,4s-1.7,4.2-5,4.2-5-1.9-5.1-5Z"/>
      <path d="M766.9,44.1v-9h2.1v9c0,2.3,1,3.4,3,3.4s3-1.1,3-3.4v-9h2.1v9c0,3.6-1.7,5.4-5.1,5.4s-5.1-1.8-5.1-5.4Z"/>
      <path d="M779.9,35.1h5.4c2.8,0,4.3,1.6,4.3,3.9s-.8,2.9-2,3.3c1.2.3,1.8,1.2,1.8,2.8v2.6c0,.7,0,1.1.4,1.5h0c0,0-2.2,0-2.2,0-.3-.2-.3-.6-.3-1.2v-3.1c0-1.1-.5-1.6-1.6-1.6h-3.7v5.9h-2.1v-14.2ZM787.4,39.2c0-1.4-.8-2.3-2.3-2.3h-3.1v4.5h3.1c1.4,0,2.3-.9,2.3-2.2Z"/>
      <path d="M796.2,35.1h2.4l5.2,14.2h-2.3l-1.2-3.6h-5.8l-1.3,3.6h-2.2l5.2-14.2ZM799.7,43.9l-2.3-6.4-2.3,6.4h4.5Z"/>
      <path d="M805.4,35.1h2.6l6.1,11.3v-11.3h2.1v14.2h-2.5l-6.2-11.3v11.3h-2.1v-14.2Z"/>
      <path d="M818.5,42.2c0-4.4,2.7-7.4,6.7-7.4s5.5,1.9,6.1,5.1h-2.2c-.6-2-1.8-3.1-3.9-3.1s-4.4,2.1-4.4,5.4,1.6,5.4,4.4,5.4,3.4-1.1,3.9-3.2h2.2c-.5,3.1-2.7,5.1-6.1,5.1s-6.7-3-6.7-7.3Z"/>
      <path d="M833.5,35.1h8.6v1.9h-6.5v4.1h6.1v1.9h-6.1v4.4h6.8v1.9h-8.9v-14.2Z"/>
    </g>
  </g>
  <g>
    <path class="st3" d="M1844.6-2.4c-.7.2-1.3.3-1.8,0-.4-.2-.7-.6-1-1l-5.1-6.9c-.3-.4-.6-.9-1.1-1-.5-.2-1.1,0-1.8,0l-16.3,4.4v30.4l16.4-4.4c.8-.2,1.3-.3,1.8,0,.4.2.7.6,1,1l5,6.9c.3.4.6.9,1,1,.5.2,1.1,0,1.8,0l16.3-4.4V-6.7l-16.4,4.4Z"/>
    <g>
      <g>
        <polygon points="1879.5 -5.5 1879.5 2.3 1879.5 2.3 1874.3 -6.7 1871.5 -5.4 1871.5 6.2 1874 6.2 1874 -3 1874 -3 1879.3 6.2 1882 6.2 1882 -6.7 1879.5 -5.5"/>
        <path d="M1891-6.7h0l-3.8,1.8-4,11.1h2.8l.9-2.7h4.8l.8,2.7h2.9l-4.6-12.9ZM1887.8,1.3l1.7-5.1h0l1.6,5.1h-3.3Z"/>
        <path d="M1943.9-6.7h0l-3.8,1.8-4,11.1h2.8l.9-2.7h4.8l.8,2.7h2.9l-4.6-12.9ZM1940.6,1.3l1.7-5.1h0l1.6,5.1h-3.3Z"/>
        <polygon points="1904.5 -6.7 1895.3 -6.7 1894 -4.5 1894 -4.5 1897.9 -4.5 1897.9 6.2 1900.6 6.2 1900.6 -4.5 1903.2 -4.5 1904.5 -6.7"/>
        <polygon points="1905.6 -5.4 1905.6 6.2 1908.3 6.2 1908.3 -6.7 1908.3 -6.7 1905.6 -5.4"/>
        <path d="M1916.3-7.1c-.1,0-.3,0-.4,0l-4.5,2.2c-.8,1-1.3,2.5-1.3,4.6,0,6.1,4.5,6.8,6.2,6.8s6.2-.7,6.2-6.8-4.5-6.8-6.2-6.8ZM1916.3,4.2c-1.5,0-3.5-.9-3.5-4.5s2.1-4.5,3.5-4.5,3.5.9,3.5,4.5-2.1,4.5-3.5,4.5Z"/>
        <polygon points="1932.3 -5.5 1932.3 2.3 1932.2 2.3 1927.1 -6.7 1924.3 -5.4 1924.3 6.2 1926.8 6.2 1926.8 -3 1926.8 -3 1932.1 6.2 1934.8 6.2 1934.8 -6.7 1932.3 -5.5"/>
        <polygon points="1958.9 3.8 1952.5 3.8 1952.5 -6.7 1949.8 -5.4 1949.8 6.2 1957.5 6.2 1958.9 3.8"/>
        <path d="M1880.2,16.7c.5-.3,1.6-.8,1.6-2.6s-.8-3.3-4-3.3h-3.6l-2.7,1.3v11.6h5.5c2.6,0,3.4-.5,4.1-1.2.7-.7,1.1-1.6,1.1-2.7s-.4-2.5-2-3.1ZM1874.1,12.9h3.1c1.2,0,2,.3,2,1.4s-.8,1.4-1.9,1.4h-3.2v-2.8ZM1877.4,21.4h-3.3v-3.5h3.4c1,0,1.9.4,1.9,1.6s-.8,1.9-2.1,1.9Z"/>
        <polygon points="1903.9 11.9 1903.9 19.7 1903.9 19.7 1898.8 10.7 1895.9 12.1 1895.9 23.6 1898.4 23.6 1898.4 14.4 1898.5 14.4 1903.7 23.6 1906.4 23.6 1906.4 10.7 1903.9 11.9"/>
        <path d="M1890.2,10.7h0l-3.8,1.8-4,11.1h2.8l.9-2.7h4.8l.8,2.7h2.9l-4.6-12.9ZM1887,18.7l1.7-5.1h0l1.6,5.1h-3.3Z"/>
        <polygon points="1919.8 10.7 1915.6 11.5 1911.4 16 1911.4 10.7 1908.7 12 1908.7 23.6 1911.4 23.6 1911.4 19.3 1912.7 18 1916.7 23.6 1920.1 23.6 1914.6 16 1919.8 10.7"/>
      </g>
      <rect x="1871.5" y="29.7" width="128.5" height=".8"/>
      <g>
        <g>
          <path d="M1871,57.6h1.6c0,1.4.8,2.4,2.4,2.4s2-.6,2-1.6-.4-1.3-1.6-1.7l-1.4-.4c-1.7-.5-2.6-1.4-2.6-2.9s1.4-3.1,3.5-3.1,3.5,1.3,3.5,3.3h-1.6c0-1.2-.7-1.9-1.9-1.9s-1.9.6-1.9,1.6.5,1.2,1.5,1.5l1.5.4c2,.6,2.7,1.6,2.7,3s-1.3,3.2-3.7,3.2-3.8-1.5-3.8-3.7Z"/>
          <path d="M1880.4,50.6h6.5v1.4h-4.9v3.1h4.6v1.4h-4.6v3.3h5.1v1.4h-6.7v-10.6Z"/>
          <path d="M1888.8,50.6h4c2.1,0,3.2,1.2,3.2,2.9s-.6,2.2-1.5,2.5c.9.2,1.4.9,1.4,2.1v2c0,.5,0,.8.3,1.1h0s-1.6,0-1.6,0c-.2-.2-.3-.5-.3-.9v-2.4c0-.8-.4-1.2-1.2-1.2h-2.7v4.4h-1.6v-10.6ZM1894.5,53.7c0-1-.6-1.7-1.7-1.7h-2.3v3.4h2.3c1.1,0,1.7-.6,1.7-1.7Z"/>
          <path d="M1902.4,61.2h-1.8l-3.7-10.6h1.7l2.9,8.7,3-8.7h1.7l-3.7,10.6Z"/>
          <path d="M1907.3,50.6h1.6v10.6h-1.6v-10.6Z"/>
          <path d="M1910.8,55.9c0-3.3,2-5.5,5-5.5s4.1,1.4,4.5,3.8h-1.6c-.4-1.5-1.4-2.3-3-2.3s-3.3,1.5-3.3,4.1,1.2,4,3.3,4,2.5-.8,3-2.4h1.6c-.3,2.4-2,3.9-4.5,3.9s-5-2.3-5-5.5Z"/>
          <path d="M1921.9,50.6h6.5v1.4h-4.9v3.1h4.6v1.4h-4.6v3.3h5.1v1.4h-6.7v-10.6Z"/>
          <path d="M1929.6,57.6h1.6c0,1.4.8,2.4,2.4,2.4s2-.6,2-1.6-.4-1.3-1.6-1.7l-1.4-.4c-1.7-.5-2.6-1.4-2.6-2.9s1.4-3.1,3.5-3.1,3.5,1.3,3.5,3.3h-1.6c0-1.2-.7-1.9-1.9-1.9s-1.9.6-1.9,1.6.5,1.2,1.5,1.5l1.5.4c2,.6,2.7,1.6,2.7,3s-1.3,3.2-3.7,3.2-3.8-1.5-3.8-3.7Z"/>
        </g>
        <g>
          <path d="M1875.4,36.6h1.8l3.9,10.6h-1.7l-.9-2.7h-4.3l-.9,2.7h-1.7l3.9-10.6ZM1878,43.1l-1.7-4.8-1.7,4.8h3.4Z"/>
          <path d="M1882.3,36.6h3.5c2.9,0,4.8,2.1,4.8,5.3s-1.9,5.3-4.8,5.3h-3.5v-10.6ZM1888.9,41.9c0-2.5-1.2-3.9-3.4-3.9h-1.6v7.7h1.6c2.2,0,3.4-1.4,3.4-3.9Z"/>
          <path d="M1896.5,47.2h-1.8l-3.7-10.6h1.7l2.9,8.7,3-8.7h1.7l-3.7,10.6Z"/>
          <path d="M1901.5,36.6h1.6v10.6h-1.6v-10.6Z"/>
          <path d="M1904.8,43.6h1.6c0,1.4.8,2.4,2.4,2.4s2-.6,2-1.6-.4-1.3-1.6-1.7l-1.4-.4c-1.7-.5-2.6-1.4-2.6-2.9s1.4-3.1,3.5-3.1,3.5,1.3,3.5,3.3h-1.6c0-1.2-.7-1.9-1.9-1.9s-1.9.6-1.9,1.6.5,1.2,1.5,1.5l1.5.4c2,.6,2.7,1.6,2.7,3s-1.3,3.2-3.7,3.2-3.8-1.5-3.8-3.7Z"/>
          <path d="M1913.6,41.9c0-3.3,2-5.5,5-5.5s5,2.2,5,5.5-2,5.5-5,5.5-5-2.2-5-5.5ZM1921.9,41.9c0-2.5-1.2-4.1-3.3-4.1s-3.3,1.5-3.3,4.1,1.2,4,3.3,4,3.3-1.5,3.3-4Z"/>
          <path d="M1925.3,36.6h4c2.1,0,3.2,1.2,3.2,2.9s-.6,2.2-1.5,2.5c.9.2,1.4.9,1.4,2.1v2c0,.5,0,.8.3,1.1h0s-1.6,0-1.6,0c-.2-.2-.3-.5-.3-.9v-2.4c0-.8-.4-1.2-1.2-1.2h-2.7v4.4h-1.6v-10.6ZM1930.9,39.7c0-1-.6-1.7-1.7-1.7h-2.3v3.4h2.3c1.1,0,1.7-.6,1.7-1.7Z"/>
          <path d="M1938,36.6h4c1.9,0,3,1.2,3,2.7s-.6,1.9-1.5,2.3c1.4.4,2,1.3,2,2.6s-1.2,3-3,3h-4.4v-10.6ZM1943.3,39.5c0-1-.6-1.6-1.8-1.6h-1.9v3.1h1.9c1.2,0,1.8-.6,1.8-1.6ZM1943.7,44.1c0-.9-.6-1.7-1.6-1.7h-2.5v3.4h2.5c1.1,0,1.6-.8,1.6-1.7Z"/>
          <path d="M1949.9,36.6h1.8l3.9,10.6h-1.7l-.9-2.7h-4.3l-.9,2.7h-1.7l3.9-10.6ZM1952.5,43.1l-1.7-4.8-1.7,4.8h3.4Z"/>
          <path d="M1956.8,36.6h1.9l4.6,8.4v-8.4h1.6v10.6h-1.9l-4.6-8.4v8.4h-1.6v-10.6Z"/>
          <path d="M1967.2,36.6h1.6v5.4l4.1-5.4h2l-3.4,4.2,3.8,6.4h-1.9l-3-5.1-1.7,2.2v2.9h-1.6v-10.6Z"/>
          <path d="M1976.7,36.6h1.6v10.6h-1.6v-10.6Z"/>
          <path d="M1980.7,36.6h1.9l4.6,8.4v-8.4h1.6v10.6h-1.9l-4.6-8.4v8.4h-1.6v-10.6Z"/>
          <path d="M1990.5,41.9c0-3.3,2-5.6,5-5.6s4,1.4,4.5,3.7h-1.6c-.4-1.4-1.4-2.2-2.8-2.2-2.1,0-3.3,1.5-3.3,4.1s1.3,4,3.3,4,2.8-.8,3-3h-3.6v-1.4h5.1v5.6h-1.3v-1.6c-.7,1.1-1.9,1.8-3.4,1.8-2.7,0-4.8-2.1-4.8-5.5Z"/>
        </g>
      </g>
    </g>
  </g>
  <g>
    <path class="st3" d="M1584.2,12.3c-.7.2-1.2.3-1.7,0-.4-.2-.7-.6-1-1l-4.8-6.6c-.3-.4-.6-.8-1-1-.5-.2-1,0-1.7,0l-15.4,4.1v28.8l15.5-4.1c.7-.2,1.2-.3,1.7,0,.4.2.7.6,1,1l4.8,6.6c.3.4.6.8,1,1,.5.2,1,0,1.7,0l15.5-4.1V8.1l-15.5,4.2Z"/>
    <g>
      <rect x="1609.6" y="24.9" width="141.8" height=".8"/>
      <g>
        <path d="M1617.8-4c.5-.3,1.5-.7,1.5-2.5s-.8-3.1-3.8-3.1h-3.4l-2.6,1.3V2.6h5.2c2.5,0,3.2-.4,3.9-1.1.6-.6,1.1-1.6,1.1-2.5s-.4-2.4-1.9-3ZM1612.1-7.5h2.9c1.2,0,1.9.3,1.9,1.3s-.8,1.4-1.8,1.4h-3v-2.7ZM1615.2.5h-3.1v-3.3h3.3c.9,0,1.8.4,1.8,1.5s-.7,1.8-2,1.8Z"/>
        <polygon points="1678.9 .5 1678.9 .5 1672.1 .5 1672.1 -2.7 1676.8 -2.7 1678 -4.9 1672.1 -4.9 1672.1 -7.5 1677.3 -7.5 1678.6 -9.6 1672.3 -9.6 1669.6 -8.3 1669.6 2.6 1677.6 2.6 1678.9 .5"/>
        <path d="M1654.9.9c.7-1,1.3-2.4,1.3-4.4,0-5.7-4.3-6.4-5.9-6.4s-.2,0-.4,0l-4.2,2.1c-.8,1-1.3,2.4-1.3,4.4,0,5.7,4.3,6.4,5.9,6.4s2-.1,3.1-.8l1.4,1.4,1.3-1.4-1.3-1.3ZM1653-.9l-1.3-1.2-1.3,1.4,1.2,1.2c-.5.2-1,.3-1.4.3-1.4,0-3.3-.9-3.3-4.3s1.9-4.3,3.3-4.3,3.3.9,3.3,4.3-.2,2-.6,2.6Z"/>
        <path d="M1665-8.4V-1.6c0,1.5-.7,2.3-2.5,2.3s-2.2-.8-2.2-2.5v-7.9h0l-2.6,1.3V-1.5c0,1.2.3,2.2,1,3,1.1,1.2,2.8,1.5,3.9,1.5,3.1,0,5-1.4,5-4.6v-8h0l-2.6,1.3Z"/>
        <polygon points="1640.3 -8.5 1640.3 -1.1 1640.3 -1.1 1635.4 -9.6 1632.7 -8.3 1632.7 2.6 1635.1 2.6 1635.1 -6.1 1635.2 -6.1 1640.1 2.6 1642.7 2.6 1642.7 -9.6 1640.3 -8.5"/>
        <path d="M1627.4-9.6h0l-3.6,1.7-3.7,10.5h2.7l.9-2.5h4.5l.8,2.5h2.8l-4.3-12.2ZM1624.3-2l1.6-4.8h0l1.5,4.8h-3.1Z"/>
        <polygon points="1702.6 17 1702.6 17 1695.9 17 1695.9 13.8 1700.6 13.8 1701.8 11.6 1695.9 11.6 1695.9 9.1 1701.1 9.1 1702.3 6.9 1696.1 6.9 1693.3 8.2 1693.3 19.1 1701.4 19.1 1702.6 17"/>
        <polygon points="1617.2 8.1 1617.2 15.4 1617.2 15.4 1612.3 6.9 1609.6 8.2 1609.6 19.1 1612 19.1 1612 10.4 1612 10.4 1617 19.1 1619.6 19.1 1619.6 6.9 1617.2 8.1"/>
        <path d="M1628.1,6.9h0l-3.6,1.7-3.7,10.5h2.7l.9-2.5h4.5l.8,2.5h2.8l-4.3-12.2ZM1625,14.5l1.6-4.8h0l1.5,4.8h-3.1Z"/>
        <path d="M1678.1,6.9h0l-3.6,1.7-3.7,10.5h2.7l.9-2.5h4.5l.8,2.5h2.8l-4.3-12.2ZM1675,14.5l1.6-4.8h0l1.5,4.8h-3.1Z"/>
        <polygon points="1640.9 6.9 1632.2 6.9 1630.9 9.1 1630.9 9.1 1634.6 9.1 1634.6 19.1 1637.2 19.1 1637.2 9.1 1639.6 9.1 1640.9 6.9"/>
        <polygon points="1641.9 8.1 1641.9 19.1 1644.4 19.1 1644.4 6.9 1644.4 6.9 1641.9 8.1"/>
        <path d="M1652,6.6c-.1,0-.2,0-.4,0l-4.2,2.1c-.7,1-1.3,2.4-1.3,4.4,0,5.7,4.3,6.4,5.9,6.4s5.9-.7,5.9-6.4-4.3-6.4-5.9-6.4ZM1652,17.3c-1.4,0-3.3-.9-3.3-4.3s1.9-4.3,3.3-4.3,3.3.9,3.3,4.3-1.9,4.3-3.3,4.3Z"/>
        <polygon points="1667.2 8.1 1667.2 15.4 1667.1 15.4 1662.3 6.9 1659.6 8.2 1659.6 19.1 1662 19.1 1662 10.4 1662 10.4 1667 19.1 1669.5 19.1 1669.5 6.9 1667.2 8.1"/>
        <polygon points="1692.3 16.9 1686.3 16.9 1686.3 6.9 1683.7 8.1 1683.7 19.1 1691.1 19.1 1692.3 16.9"/>
      </g>
      <g>
        <g>
          <path d="M1613.3,44.6h1.7l3.7,10h-1.6l-.9-2.5h-4.1l-.9,2.5h-1.6l3.7-10ZM1615.8,50.9l-1.6-4.6-1.6,4.6h3.2Z"/>
          <path d="M1619.5,51.1v-6.4h1.5v6.4c0,1.6.7,2.4,2.1,2.4s2.1-.8,2.1-2.4v-6.4h1.5v6.4c0,2.5-1.2,3.8-3.6,3.8s-3.6-1.3-3.6-3.8Z"/>
          <path d="M1631.7,50.7l-2.4,3.9h-1.8l3.3-5.1-3.1-4.9h1.8l2.2,3.7,2.3-3.7h1.8l-3.1,4.9,3.3,5.1h-1.8l-2.4-3.9Z"/>
          <path d="M1639.7,49.7c0-3.1,1.9-5.2,4.7-5.2s3.9,1.4,4.3,3.6h-1.5c-.4-1.4-1.3-2.2-2.8-2.2s-3.1,1.5-3.1,3.9,1.1,3.8,3.2,3.8,2.4-.8,2.8-2.3h1.5c-.3,2.2-1.9,3.6-4.3,3.6s-4.8-2.1-4.8-5.2Z"/>
          <path d="M1649.8,49.7c0-3.2,1.9-5.2,4.7-5.2s4.7,2.1,4.7,5.2-1.9,5.2-4.7,5.2-4.7-2.1-4.7-5.2ZM1657.7,49.7c0-2.4-1.1-3.9-3.1-3.9s-3.1,1.4-3.1,3.9,1.1,3.8,3.1,3.8,3.1-1.4,3.1-3.8Z"/>
          <path d="M1660.9,44.6h1.8l4.3,8v-8h1.5v10h-1.8l-4.4-8v8h-1.5v-10Z"/>
          <path d="M1670.1,51.3h1.5c0,1.3.7,2.2,2.2,2.2s1.9-.6,1.9-1.6-.4-1.3-1.5-1.6l-1.3-.4c-1.6-.5-2.5-1.3-2.5-2.7s1.3-2.9,3.3-2.9,3.3,1.2,3.3,3.1h-1.5c0-1.2-.7-1.8-1.8-1.8s-1.8.6-1.8,1.5.4,1.1,1.4,1.4l1.4.4c1.9.5,2.5,1.5,2.5,2.9s-1.2,3-3.5,3-3.6-1.4-3.6-3.6Z"/>
          <path d="M1679,44.6h6.1v1.3h-4.6v2.9h4.3v1.3h-4.3v3.1h4.8v1.3h-6.3v-10Z"/>
          <path d="M1687.1,44.6h1.5v10h-1.5v-10Z"/>
          <path d="M1690.9,44.6h1.5v8.7h4.3v1.3h-5.8v-10Z"/>
          <path d="M1698.2,44.6h1.5v8.7h4.3v1.3h-5.8v-10Z"/>
          <path d="M1705.5,44.6h6.1v1.3h-4.6v2.9h4.3v1.3h-4.3v3.1h4.8v1.3h-6.3v-10Z"/>
          <path d="M1713.5,44.6h3.8c2,0,3.1,1.1,3.1,2.8s-.6,2-1.4,2.4c.8.2,1.3.9,1.3,2v1.9c0,.5,0,.8.3,1h0s-1.6,0-1.6,0c-.2-.2-.2-.4-.2-.8v-2.2c0-.8-.4-1.1-1.1-1.1h-2.6v4.2h-1.5v-10ZM1718.8,47.6c0-1-.6-1.6-1.6-1.6h-2.2v3.2h2.2c1,0,1.6-.6,1.6-1.6Z"/>
          <path d="M1721.7,51.3h1.5c0,1.3.7,2.2,2.2,2.2s1.9-.6,1.9-1.6-.4-1.3-1.5-1.6l-1.3-.4c-1.6-.5-2.5-1.3-2.5-2.7s1.3-2.9,3.3-2.9,3.3,1.2,3.3,3.1h-1.5c0-1.2-.7-1.8-1.8-1.8s-1.8.6-1.8,1.5.4,1.1,1.4,1.4l1.4.4c1.9.5,2.5,1.5,2.5,2.9s-1.2,3-3.5,3-3.6-1.4-3.6-3.6Z"/>
        </g>
        <g>
          <path d="M1610.1,38.1h1.5c0,1.3.7,2.2,2.2,2.2s1.9-.6,1.9-1.6-.4-1.3-1.5-1.6l-1.3-.4c-1.6-.5-2.5-1.3-2.5-2.7s1.3-2.9,3.3-2.9,3.3,1.2,3.3,3.1h-1.5c0-1.2-.7-1.8-1.8-1.8s-1.8.6-1.8,1.5.4,1.1,1.4,1.4l1.4.4c1.9.5,2.5,1.5,2.5,2.9s-1.2,3-3.5,3-3.6-1.4-3.6-3.6Z"/>
          <path d="M1619,31.4h6.1v1.3h-4.6v2.9h4.3v1.3h-4.3v3.1h4.8v1.3h-6.3v-10Z"/>
          <path d="M1627,31.4h3.8c2,0,3.1,1.1,3.1,2.8s-.6,2-1.4,2.4c.8.2,1.3.9,1.3,2v1.9c0,.5,0,.8.3,1h0s-1.6,0-1.6,0c-.2-.2-.2-.4-.2-.8v-2.2c0-.8-.4-1.1-1.1-1.1h-2.6v4.2h-1.5v-10ZM1632.4,34.3c0-1-.6-1.6-1.6-1.6h-2.2v3.2h2.2c1,0,1.6-.6,1.6-1.6Z"/>
          <path d="M1639.9,41.4h-1.7l-3.5-10h1.6l2.8,8.3,2.8-8.3h1.6l-3.5,10Z"/>
          <path d="M1644.6,31.4h1.5v10h-1.5v-10Z"/>
          <path d="M1647.8,36.4c0-3.1,1.9-5.2,4.7-5.2s3.9,1.4,4.3,3.6h-1.5c-.4-1.4-1.3-2.2-2.8-2.2s-3.1,1.5-3.1,3.9,1.1,3.8,3.2,3.8,2.4-.8,2.8-2.3h1.5c-.3,2.2-1.9,3.6-4.3,3.6s-4.8-2.1-4.8-5.2Z"/>
          <path d="M1658.4,31.4h6.1v1.3h-4.6v2.9h4.3v1.3h-4.3v3.1h4.8v1.3h-6.3v-10Z"/>
          <path d="M1665.6,38.1h1.5c0,1.3.7,2.2,2.2,2.2s1.9-.6,1.9-1.6-.4-1.3-1.5-1.6l-1.3-.4c-1.6-.5-2.5-1.3-2.5-2.7s1.3-2.9,3.3-2.9,3.3,1.2,3.3,3.1h-1.5c0-1.2-.7-1.8-1.8-1.8s-1.8.6-1.8,1.5.4,1.1,1.4,1.4l1.4.4c1.9.5,2.5,1.5,2.5,2.9s-1.2,3-3.5,3-3.6-1.4-3.6-3.6Z"/>
          <path d="M1677.6,31.4h3.7c1.8,0,2.8,1.1,2.8,2.5s-.5,1.8-1.4,2.2c1.3.4,1.9,1.2,1.9,2.4s-1.1,2.9-2.8,2.9h-4.2v-10ZM1682.6,34.2c0-.9-.5-1.5-1.7-1.5h-1.8v3h1.8c1.2,0,1.7-.6,1.7-1.5ZM1683,38.5c0-.9-.5-1.6-1.6-1.6h-2.4v3.2h2.4c1,0,1.6-.7,1.6-1.6Z"/>
          <path d="M1688.9,31.4h1.7l3.7,10h-1.6l-.9-2.5h-4.1l-.9,2.5h-1.6l3.7-10ZM1691.4,37.6l-1.6-4.6-1.6,4.6h3.2Z"/>
          <path d="M1695.4,31.4h1.8l4.3,8v-8h1.5v10h-1.8l-4.4-8v8h-1.5v-10Z"/>
          <path d="M1704.7,36.4c0-3.1,1.9-5.2,4.7-5.2s3.9,1.4,4.3,3.6h-1.5c-.4-1.4-1.3-2.2-2.8-2.2s-3.1,1.5-3.1,3.9,1.1,3.8,3.2,3.8,2.4-.8,2.8-2.3h1.5c-.3,2.2-1.9,3.6-4.3,3.6s-4.8-2.1-4.8-5.2Z"/>
          <path d="M1717.9,31.4h1.7l3.7,10h-1.6l-.9-2.5h-4.1l-.9,2.5h-1.6l3.7-10ZM1720.3,37.6l-1.6-4.6-1.6,4.6h3.2Z"/>
          <path d="M1724.5,31.4h1.5v10h-1.5v-10Z"/>
          <path d="M1728.2,31.4h3.8c2,0,3.1,1.1,3.1,2.8s-.6,2-1.4,2.4c.8.2,1.3.9,1.3,2v1.9c0,.5,0,.8.3,1h0s-1.6,0-1.6,0c-.2-.2-.2-.4-.2-.8v-2.2c0-.8-.4-1.1-1.1-1.1h-2.6v4.2h-1.5v-10ZM1733.6,34.3c0-1-.6-1.6-1.6-1.6h-2.2v3.2h2.2c1,0,1.6-.6,1.6-1.6Z"/>
          <path d="M1737.1,31.4h6.1v1.3h-4.6v2.9h4.3v1.3h-4.3v3.1h4.8v1.3h-6.3v-10Z"/>
          <path d="M1744.3,38.1h1.5c0,1.3.7,2.2,2.2,2.2s1.9-.6,1.9-1.6-.4-1.3-1.5-1.6l-1.3-.4c-1.6-.5-2.5-1.3-2.5-2.7s1.3-2.9,3.3-2.9,3.3,1.2,3.3,3.1h-1.5c0-1.2-.7-1.8-1.8-1.8s-1.8.6-1.8,1.5.4,1.1,1.4,1.4l1.4.4c1.9.5,2.5,1.5,2.5,2.9s-1.2,3-3.5,3-3.6-1.4-3.6-3.6Z"/>
        </g>
      </g>
    </g>
  </g>
  <g>
    <g>
      <polygon points="1685.5 218.4 1685.5 225.7 1685.5 225.7 1680.7 217.2 1678 218.5 1678 229.3 1680.4 229.3 1680.4 220.7 1680.4 220.7 1685.4 229.3 1687.9 229.3 1687.9 217.2 1685.5 218.4"/>
      <path d="M1696.3,217.2h0l-3.5,1.7-3.7,10.4h2.7l.8-2.5h4.5l.8,2.5h2.8l-4.3-12.1ZM1693.3,224.7l1.6-4.8h0l1.5,4.8h-3.1Z"/>
      <path d="M1745.8,217.2h0l-3.5,1.7-3.7,10.4h2.7l.8-2.5h4.5l.8,2.5h2.7l-4.3-12.1ZM1742.8,224.7l1.6-4.8h0l1.5,4.8h-3.1Z"/>
      <polygon points="1709 217.2 1700.3 217.2 1699.1 219.3 1699.1 219.4 1702.8 219.4 1702.8 229.3 1705.3 229.3 1705.3 219.4 1707.7 219.4 1709 217.2"/>
      <polygon points="1710 218.4 1710 229.3 1712.5 229.3 1712.5 217.2 1712.5 217.2 1710 218.4"/>
      <path d="M1720,216.9c-.1,0-.2,0-.4,0l-4.2,2c-.7,1-1.3,2.3-1.3,4.3,0,5.7,4.2,6.4,5.8,6.4s5.8-.7,5.8-6.4-4.2-6.4-5.8-6.4ZM1720,227.5c-1.4,0-3.3-.8-3.3-4.2s1.9-4.2,3.3-4.2,3.3.8,3.3,4.2-1.9,4.2-3.3,4.2Z"/>
      <polygon points="1735 218.4 1735 225.7 1734.9 225.7 1730.1 217.2 1727.5 218.5 1727.5 229.3 1729.8 229.3 1729.8 220.7 1729.9 220.7 1734.8 229.3 1737.3 229.3 1737.3 217.2 1735 218.4"/>
      <polygon points="1759.9 227.1 1753.9 227.1 1753.9 217.2 1751.3 218.5 1751.3 229.3 1758.6 229.3 1759.9 227.1"/>
      <path d="M1686.2,239.2c.5-.3,1.5-.7,1.5-2.5s-.8-3.1-3.7-3.1h-3.3l-2.6,1.2v10.9h5.1c2.5,0,3.1-.4,3.8-1.1.6-.6,1-1.5,1-2.5s-.4-2.4-1.9-2.9ZM1680.5,235.7h2.9c1.1,0,1.9.3,1.9,1.3s-.8,1.3-1.8,1.3h-3v-2.6ZM1683.6,243.6h-3.1v-3.2h3.2c.9,0,1.8.4,1.8,1.5s-.7,1.8-1.9,1.8Z"/>
      <polygon points="1708.4 234.7 1708.4 242 1708.4 242 1703.6 233.6 1700.9 234.9 1700.9 245.7 1703.3 245.7 1703.3 237 1703.3 237 1708.2 245.7 1710.8 245.7 1710.8 233.6 1708.4 234.7"/>
      <path d="M1695.6,233.6h0l-3.5,1.7-3.7,10.4h2.7l.8-2.5h4.5l.8,2.5h2.8l-4.3-12.1ZM1692.5,241.1l1.6-4.8h0l1.5,4.8h-3.1Z"/>
      <polygon points="1723.3 233.6 1719.4 234.3 1715.4 238.5 1715.4 233.6 1712.9 234.8 1712.9 245.7 1715.4 245.7 1715.4 241.6 1716.6 240.4 1720.3 245.7 1723.6 245.7 1718.4 238.5 1723.3 233.6"/>
    </g>
    <path class="st3" d="M1652.8,221.3c-.7.2-1.2.3-1.7,0-.4-.2-.7-.6-1-1l-4.7-6.5c-.3-.4-.6-.8-1-1-.5-.2-1,0-1.7,0l-15.3,4.1v28.5l15.3-4.1c.7-.2,1.2-.3,1.7,0,.4.2.7.6,1,1l4.7,6.5c.3.4.6.8,1,1,.5.2,1,0,1.7,0l15.3-4.1v-28.5l-15.3,4.1Z"/>
    <rect x="1678" y="251.3" width="159" height=".8"/>
    <g>
      <path d="M1678,257.8h1.5v9.9h-1.5v-9.9Z"/>
      <path d="M1681.8,257.8h1.8l4.3,7.9v-7.9h1.5v9.9h-1.8l-4.3-7.9v7.9h-1.5v-9.9Z"/>
      <path d="M1691.5,257.8h3.3c2.7,0,4.5,1.9,4.5,5s-1.8,5-4.5,5h-3.3v-9.9ZM1697.8,262.8c0-2.3-1.1-3.6-3.2-3.6h-1.5v7.3h1.5c2.1,0,3.2-1.3,3.2-3.6Z"/>
      <path d="M1701,257.8h6v1.3h-4.6v2.9h4.3v1.3h-4.3v3.1h4.8v1.3h-6.2v-9.9Z"/>
      <path d="M1708.9,257.8h3.5c1.9,0,3,1.2,3,3s-1.1,3-3,3h-2v3.9h-1.5v-9.9ZM1713.9,260.8c0-1.1-.6-1.7-1.8-1.7h-1.6v3.3h1.6c1.2,0,1.8-.6,1.8-1.7Z"/>
      <path d="M1716.9,257.8h6v1.3h-4.6v2.9h4.3v1.3h-4.3v3.1h4.8v1.3h-6.2v-9.9Z"/>
      <path d="M1724.9,257.8h1.8l4.3,7.9v-7.9h1.5v9.9h-1.8l-4.3-7.9v7.9h-1.5v-9.9Z"/>
      <path d="M1734.6,257.8h3.3c2.7,0,4.5,1.9,4.5,5s-1.8,5-4.5,5h-3.3v-9.9ZM1740.8,262.8c0-2.3-1.1-3.6-3.2-3.6h-1.5v7.3h1.5c2.1,0,3.2-1.3,3.2-3.6Z"/>
      <path d="M1744,257.8h6v1.3h-4.6v2.9h4.3v1.3h-4.3v3.1h4.8v1.3h-6.2v-9.9Z"/>
      <path d="M1752,257.8h1.8l4.3,7.9v-7.9h1.5v9.9h-1.8l-4.3-7.9v7.9h-1.5v-9.9Z"/>
      <path d="M1763.6,259.1h-2.7v-1.3h6.9v1.3h-2.7v8.6h-1.5v-8.6Z"/>
      <path d="M1772.3,257.8h1.8l4.3,7.9v-7.9h1.5v9.9h-1.8l-4.3-7.9v7.9h-1.5v-9.9Z"/>
      <path d="M1782.1,257.8h6v1.3h-4.6v2.9h4.3v1.3h-4.3v3.1h4.8v1.3h-6.2v-9.9Z"/>
      <path d="M1791.9,259.1h-2.7v-1.3h6.9v1.3h-2.7v8.6h-1.5v-8.6Z"/>
      <path d="M1796.5,257.8h1.6l1.8,8,2.2-8h1.7l2.1,8,1.8-8h1.6l-2.5,9.9h-1.7l-2.1-8-2.2,8h-1.8l-2.4-9.9Z"/>
      <path d="M1809.6,262.8c0-3.1,1.9-5.2,4.6-5.2s4.7,2.1,4.7,5.2-1.9,5.1-4.7,5.1-4.6-2-4.6-5.1ZM1817.4,262.8c0-2.4-1.1-3.8-3.1-3.8s-3.1,1.4-3.1,3.8,1.1,3.8,3.1,3.8,3.1-1.4,3.1-3.8Z"/>
      <path d="M1820.6,257.8h3.8c2,0,3,1.1,3,2.7s-.6,2-1.4,2.3c.8.2,1.3.9,1.3,1.9v1.9c0,.5,0,.8.3,1h0s-1.5,0-1.5,0c-.2-.2-.2-.4-.2-.8v-2.2c0-.7-.4-1.1-1.1-1.1h-2.6v4.1h-1.5v-9.9ZM1825.8,260.7c0-1-.6-1.6-1.6-1.6h-2.2v3.1h2.2c1,0,1.6-.6,1.6-1.6Z"/>
      <path d="M1829.4,257.8h1.5v5.1l3.9-5.1h1.9l-3.1,3.9,3.6,6h-1.8l-2.8-4.8-1.6,2v2.7h-1.5v-9.9Z"/>
    </g>
  </g>
  <path class="st3" d="M1903.5,221.4c-.7.2-1.2.3-1.8,0-.4-.2-.7-.6-1-1l-4.9-6.6c-.3-.4-.6-.8-1-1-.5-.2-1,0-1.8,0l-15.7,4.2v29.2l15.7-4.2c.7-.2,1.2-.3,1.8,0,.4.2.7.6,1,1l4.8,6.6c.3.4.6.8,1,1,.5.2,1,0,1.8,0l15.7-4.2v-29.2l-15.7,4.2Z"/>
  <rect x="1929.3" y="252.1" width="147.7" height=".8"/>
  <g>
    <path d="M1937.7,222.9c.5-.3,1.5-.8,1.5-2.5s-.8-3.2-3.8-3.2h-3.4l-2.6,1.3v11.1h5.3c2.5,0,3.2-.4,3.9-1.1.7-.6,1.1-1.6,1.1-2.6s-.4-2.4-1.9-3ZM1931.8,219.3h3c1.2,0,1.9.3,1.9,1.3s-.8,1.4-1.8,1.4h-3v-2.7ZM1935,227.4h-3.2v-3.3h3.3c.9,0,1.9.4,1.9,1.5s-.7,1.8-2,1.8Z"/>
    <polygon points="1999.5 227.4 1999.5 227.4 1992.6 227.4 1992.6 224.2 1997.4 224.2 1998.7 222 1992.6 222 1992.6 219.4 1997.9 219.4 1999.2 217.2 1992.9 217.2 1990.1 218.5 1990.1 229.6 1998.2 229.6 1999.5 227.4"/>
    <path d="M1975.2,227.8c.8-1,1.3-2.4,1.3-4.4,0-5.8-4.3-6.5-6-6.5s-.2,0-.4,0l-4.3,2.1c-.8,1-1.3,2.4-1.3,4.4,0,5.8,4.3,6.5,6,6.5s2-.1,3.2-.8l1.5,1.4,1.4-1.4-1.3-1.3ZM1973.3,226l-1.3-1.2-1.3,1.4,1.2,1.2c-.5.2-1,.3-1.4.3-1.4,0-3.4-.9-3.4-4.3s2-4.3,3.4-4.3,3.4.9,3.4,4.3-.2,2-.6,2.7Z"/>
    <path d="M1985.5,218.5v6.9c0,1.5-.7,2.4-2.5,2.4s-2.2-.8-2.2-2.5v-8h0l-2.6,1.3v6.9c0,1.2.3,2.2,1,3,1.1,1.2,2.8,1.5,3.9,1.5,3.1,0,5.1-1.4,5.1-4.7v-8.1h0l-2.6,1.3Z"/>
    <polygon points="1960.4 218.4 1960.4 225.8 1960.4 225.8 1955.5 217.2 1952.8 218.5 1952.8 229.6 1955.2 229.6 1955.2 220.7 1955.2 220.7 1960.3 229.6 1962.9 229.6 1962.9 217.2 1960.4 218.4"/>
    <path d="M1947.3,217.2h0l-3.6,1.8-3.8,10.6h2.7l.9-2.6h4.6l.8,2.6h2.8l-4.4-12.4ZM1944.2,224.9l1.6-4.9h0l1.5,4.9h-3.2Z"/>
    <polygon points="2023.6 244.1 2023.6 244.1 2016.7 244.1 2016.7 240.9 2021.5 240.9 2022.8 238.7 2016.7 238.7 2016.7 236.1 2022 236.1 2023.3 233.9 2017 233.9 2014.2 235.3 2014.2 246.3 2022.3 246.3 2023.6 244.1"/>
    <polygon points="1937 235.1 1937 242.6 1937 242.6 1932.1 233.9 1929.3 235.2 1929.3 246.3 1931.8 246.3 1931.8 237.5 1931.8 237.5 1936.8 246.3 1939.4 246.3 1939.4 233.9 1937 235.1"/>
    <path d="M1948.1,233.9h0l-3.6,1.8-3.8,10.6h2.7l.9-2.6h4.6l.8,2.6h2.8l-4.4-12.4ZM1945,241.6l1.6-4.9h0l1.5,4.9h-3.2Z"/>
    <path d="M1998.8,233.9h0l-3.6,1.8-3.8,10.6h2.7l.9-2.6h4.6l.8,2.6h2.8l-4.4-12.4ZM1995.6,241.6l1.6-4.9h0l1.5,4.9h-3.2Z"/>
    <polygon points="1961 233.9 1952.2 233.9 1950.9 236.1 1950.9 236.1 1954.7 236.1 1954.7 246.3 1957.3 246.3 1957.3 236.1 1959.7 236.1 1961 233.9"/>
    <polygon points="1962 235.2 1962 246.3 1964.6 246.3 1964.6 233.9 1964.6 233.9 1962 235.2"/>
    <path d="M1972.3,233.6c-.1,0-.2,0-.4,0l-4.3,2.1c-.8,1-1.3,2.4-1.3,4.4,0,5.8,4.3,6.5,6,6.5s6-.7,6-6.5-4.3-6.5-6-6.5ZM1972.3,244.5c-1.4,0-3.4-.9-3.4-4.3s2-4.3,3.4-4.3,3.4.9,3.4,4.3-2,4.3-3.4,4.3Z"/>
    <polygon points="1987.7 235.1 1987.7 242.6 1987.6 242.6 1982.7 233.9 1980 235.2 1980 246.3 1982.4 246.3 1982.4 237.5 1982.4 237.5 1987.5 246.3 1990.1 246.3 1990.1 233.9 1987.7 235.1"/>
    <polygon points="2013.2 244.1 2007 244.1 2007 233.9 2004.4 235.2 2004.4 246.3 2011.9 246.3 2013.2 244.1"/>
  </g>
  <g>
    <path d="M1929.3,258.7h3.8c2,0,3.1,1.1,3.1,2.8s-.6,2.1-1.5,2.4c.8.2,1.3.9,1.3,2v1.9c0,.5,0,.8.3,1.1h0s-1.6,0-1.6,0c-.2-.2-.3-.4-.3-.9v-2.3c0-.8-.4-1.1-1.1-1.1h-2.6v4.2h-1.5v-10.2ZM1934.7,261.7c0-1-.6-1.6-1.6-1.6h-2.2v3.2h2.2c1,0,1.6-.6,1.6-1.6Z"/>
    <path d="M1938.3,258.7h6.2v1.4h-4.7v2.9h4.4v1.4h-4.4v3.2h4.9v1.4h-6.4v-10.2ZM1941.6,256.1h1.9l-1.4,1.6h-1.3l.8-1.6Z"/>
    <path d="M1945.6,265.5h1.5c0,1.3.7,2.3,2.3,2.3s1.9-.6,1.9-1.6-.4-1.3-1.5-1.6l-1.4-.4c-1.6-.5-2.5-1.3-2.5-2.8s1.3-2.9,3.3-2.9,3.3,1.2,3.4,3.1h-1.5c0-1.2-.7-1.8-1.9-1.8s-1.8.6-1.8,1.5.4,1.2,1.4,1.4l1.4.4c1.9.5,2.6,1.6,2.6,2.9s-1.2,3-3.6,3-3.6-1.4-3.7-3.6Z"/>
    <path d="M1954.6,258.7h6.2v1.4h-4.7v2.9h4.4v1.4h-4.4v3.2h4.9v1.4h-6.4v-10.2Z"/>
    <path d="M1965.4,258.7h1.8l3.7,10.2h-1.6l-.9-2.6h-4.2l-.9,2.6h-1.6l3.7-10.2ZM1967.8,265l-1.6-4.6-1.6,4.6h3.2Z"/>
    <path d="M1971.6,265.2v-6.5h1.5v6.5c0,1.6.7,2.5,2.1,2.5s2.1-.8,2.1-2.5v-6.5h1.5v6.5c0,2.6-1.3,3.9-3.6,3.9s-3.6-1.3-3.6-3.9Z"/>
    <path d="M1984.3,258.7h1.5v10.2h-1.5v-10.2Z"/>
    <path d="M1988.1,258.7h1.8l4.4,8.1v-8.1h1.5v10.2h-1.8l-4.4-8.1v8.1h-1.5v-10.2Z"/>
    <path d="M1998.1,258.7h3.3c2.8,0,4.6,2,4.6,5.1s-1.8,5.1-4.6,5.1h-3.3v-10.2ZM2004.5,263.8c0-2.4-1.1-3.7-3.3-3.7h-1.6v7.4h1.6c2.1,0,3.3-1.4,3.3-3.7Z"/>
    <path d="M2007.8,258.7h6.2v1.4h-4.7v2.9h4.4v1.4h-4.4v3.2h4.9v1.4h-6.4v-10.2ZM2011,256.1h1.9l-1.4,1.6h-1.3l.8-1.6Z"/>
    <path d="M2015.9,258.7h3.6c2,0,3.1,1.3,3.1,3.1s-1.1,3.1-3.1,3.1h-2v4h-1.5v-10.2ZM2021,261.8c0-1.1-.6-1.7-1.9-1.7h-1.7v3.4h1.7c1.3,0,1.9-.6,1.9-1.7Z"/>
    <path d="M2024.1,258.7h6.2v1.4h-4.7v2.9h4.4v1.4h-4.4v3.2h4.9v1.4h-6.4v-10.2Z"/>
    <path d="M2032.2,258.7h1.8l4.4,8.1v-8.1h1.5v10.2h-1.8l-4.4-8.1v8.1h-1.5v-10.2Z"/>
    <path d="M2042.2,258.7h3.3c2.8,0,4.6,2,4.6,5.1s-1.8,5.1-4.6,5.1h-3.3v-10.2ZM2048.6,263.8c0-2.4-1.1-3.7-3.3-3.7h-1.6v7.4h1.6c2.1,0,3.3-1.4,3.3-3.7Z"/>
    <path d="M2054.2,258.7h1.8l3.7,10.2h-1.6l-.9-2.6h-4.2l-.9,2.6h-1.6l3.7-10.2ZM2056.7,265l-1.6-4.6-1.6,4.6h3.2Z"/>
    <path d="M2060.8,258.7h1.8l4.4,8.1v-8.1h1.5v10.2h-1.8l-4.4-8.1v8.1h-1.5v-10.2Z"/>
    <path d="M2072.7,260.1h-2.8v-1.4h7v1.4h-2.7v8.8h-1.5v-8.8Z"/>
  </g>
  <g>
    <g>
      <rect x="1761.8" y="362.7" width="68.5" height=".6"/>
      <g>
        <path class="st3" d="M1743.1,340.4c-.5.1-.9.2-1.3,0-.3-.1-.5-.4-.7-.7l-3.5-4.8c-.2-.3-.4-.6-.7-.7-.4-.1-.8,0-1.3,0l-11.4,3.1v21.2l11.4-3.1c.5-.1.9-.2,1.3,0,.3.1.5.4.7.7l3.5,4.8c.2.3.4.6.7.7.4.1.8,0,1.3,0l11.4-3v-21.2l-11.4,3.1Z"/>
        <g>
          <path d="M1767.9,341.5c.4-.2,1.1-.6,1.1-1.8s-.6-2.3-2.8-2.3h-2.5l-1.9.9v8.1h3.8c1.8,0,2.3-.3,2.8-.8.5-.5.8-1.1.8-1.9s-.3-1.8-1.4-2.2ZM1763.6,338.9h2.2c.9,0,1.4.2,1.4,1s-.6,1-1.3,1h-2.2v-2ZM1765.9,344.8h-2.3v-2.4h2.4c.7,0,1.4.3,1.4,1.1s-.5,1.3-1.4,1.3Z"/>
          <polygon points="1812.8 344.7 1812.8 344.7 1807.8 344.7 1807.8 342.4 1811.3 342.4 1812.2 340.8 1807.8 340.8 1807.8 338.9 1811.6 338.9 1812.6 337.3 1808 337.3 1805.9 338.3 1805.9 346.3 1811.9 346.3 1812.8 344.7"/>
          <path d="M1795.1,345c.6-.7.9-1.7.9-3.2,0-4.2-3.1-4.7-4.3-4.7s-.2,0-.3,0l-3.1,1.5c-.6.7-.9,1.7-.9,3.2,0,4.2,3.1,4.7,4.3,4.7s1.5-.1,2.3-.6l1.1,1,1-1-1-.9ZM1793.8,343.8l-1-.9-1,1,.9.9c-.3.2-.7.2-1,.2-1,0-2.4-.6-2.4-3.1s1.4-3.1,2.4-3.1,2.4.6,2.4,3.1-.2,1.5-.4,1.9Z"/>
          <path d="M1802.6,338.2v5c0,1.1-.5,1.7-1.8,1.7s-1.6-.6-1.6-1.8v-5.8h0l-1.9.9v5c0,.9.2,1.6.7,2.2.8.9,2,1.1,2.9,1.1,2.3,0,3.7-1,3.7-3.4v-5.9h0l-1.9.9Z"/>
          <polygon points="1784.4 338.2 1784.4 343.6 1784.4 343.6 1780.8 337.3 1778.8 338.3 1778.8 346.3 1780.6 346.3 1780.6 339.9 1780.6 339.9 1784.3 346.3 1786.2 346.3 1786.2 337.3 1784.4 338.2"/>
          <path d="M1774.9,337.3h0l-2.6,1.3-2.8,7.7h2l.6-1.9h3.3l.6,1.9h2l-3.2-9ZM1772.6,342.9l1.2-3.6h0l1.1,3.6h-2.3Z"/>
          <polygon points="1830.3 356.9 1830.3 356.9 1825.3 356.9 1825.3 354.6 1828.8 354.6 1829.7 353 1825.3 353 1825.3 351.1 1829.2 351.1 1830.1 349.5 1825.5 349.5 1823.4 350.5 1823.4 358.5 1829.4 358.5 1830.3 356.9"/>
          <polygon points="1767.4 350.3 1767.4 355.8 1767.4 355.8 1763.8 349.5 1761.8 350.4 1761.8 358.5 1763.6 358.5 1763.6 352.1 1763.6 352.1 1767.3 358.5 1769.1 358.5 1769.1 349.5 1767.4 350.3"/>
          <path d="M1775.4,349.5h0l-2.6,1.3-2.8,7.7h2l.6-1.9h3.3l.6,1.9h2l-3.2-9ZM1773.2,355.1l1.2-3.6h0l1.1,3.6h-2.3Z"/>
          <path d="M1812.2,349.5h0l-2.6,1.3-2.8,7.7h2l.6-1.9h3.3l.6,1.9h2l-3.2-9ZM1810,355.1l1.2-3.6h0l1.1,3.6h-2.3Z"/>
          <polygon points="1784.8 349.5 1778.4 349.5 1777.5 351.1 1777.5 351.1 1780.2 351.1 1780.2 358.5 1782.1 358.5 1782.1 351.1 1783.9 351.1 1784.8 349.5"/>
          <polygon points="1785.6 350.4 1785.6 358.5 1787.4 358.5 1787.4 349.5 1787.4 349.5 1785.6 350.4"/>
          <path d="M1793,349.2c0,0-.2,0-.3,0l-3.1,1.5c-.6.7-.9,1.7-.9,3.2,0,4.2,3.1,4.7,4.3,4.7s4.3-.5,4.3-4.7-3.1-4.7-4.3-4.7ZM1793,357.1c-1,0-2.4-.6-2.4-3.1s1.4-3.1,2.4-3.1,2.4.6,2.4,3.1-1.4,3.1-2.4,3.1Z"/>
          <polygon points="1804.2 350.3 1804.2 355.8 1804.1 355.8 1800.6 349.5 1798.6 350.4 1798.6 358.5 1800.3 358.5 1800.3 352.1 1800.4 352.1 1804 358.5 1805.9 358.5 1805.9 349.5 1804.2 350.3"/>
          <polygon points="1822.7 356.9 1818.2 356.9 1818.2 349.5 1816.3 350.4 1816.3 358.5 1821.8 358.5 1822.7 356.9"/>
        </g>
      </g>
    </g>
    <g>
      <path d="M1763.8,368.5h-2v-1h5.1v1h-2v6.4h-1.1v-6.4Z"/>
      <path d="M1768,367.5h2.8c1.5,0,2.3.8,2.3,2s-.4,1.5-1.1,1.7c.6.2,1,.6,1,1.4v1.4c0,.3,0,.6.2.8h0s-1.1,0-1.1,0c-.1-.1-.2-.3-.2-.6v-1.6c0-.6-.3-.8-.8-.8h-1.9v3.1h-1.1v-7.4ZM1771.9,369.7c0-.7-.4-1.2-1.2-1.2h-1.6v2.3h1.6c.7,0,1.2-.4,1.2-1.2Z"/>
      <path d="M1774.4,372.2v-4.7h1.1v4.7c0,1.2.5,1.8,1.5,1.8s1.5-.6,1.5-1.8v-4.7h1.1v4.7c0,1.9-.9,2.8-2.6,2.8s-2.6-1-2.6-2.8Z"/>
      <path d="M1780.8,372.4h1.1c0,1,.5,1.7,1.6,1.7s1.4-.4,1.4-1.1-.3-.9-1.1-1.2l-1-.3c-1.2-.3-1.8-1-1.8-2s1-2.1,2.4-2.1,2.4.9,2.5,2.3h-1.1c0-.9-.5-1.3-1.4-1.3s-1.3.4-1.3,1.1.3.8,1,1l1,.3c1.4.4,1.9,1.1,1.9,2.1s-.9,2.2-2.6,2.2-2.6-1-2.7-2.6Z"/>
      <path d="M1788.7,368.5h-2v-1h5.1v1h-2v6.4h-1.1v-6.4Z"/>
    </g>
  </g>
  <g>
    <path class="st3" d="M-237.2-217.2c-1,.2-1.7.4-2.4.1-.6-.2-1-.8-1.4-1.4l-6.7-9.2c-.4-.6-.9-1.2-1.4-1.4-.7-.3-1.4-.1-2.4.1l-21.7,5.8v40.5l21.8-5.8c1-.2,1.7-.4,2.4-.1.5.2,1,.8,1.4,1.4l6.7,9.2c.4.6.8,1.1,1.4,1.4.7.3,1.4.1,2.4-.1l21.7-5.8v-40.5l-21.8,5.8Z"/>
    <g>
      <path d="M-185.6-205.9h3.8l1.2-3.5h6.4l1.1,3.5h3.9l-6.1-17.2h0l-5,2.4-5.3,14.8ZM-177.5-219.2h0l2.1,6.8h-4.4l2.2-6.8Z"/>
      <path d="M-114.2-209.4h6.4l1.1,3.5h3.9l-6.1-17.2h0l-5,2.4-5.3,14.8h3.8l1.2-3.5ZM-111-219.2h0l2.1,6.8h-4.4l2.2-6.8Z"/>
      <polygon points="-166.2 -205.9 -162.6 -205.9 -162.6 -220 -159.2 -220 -157.4 -223.1 -169.6 -223.1 -171.4 -220.1 -171.4 -220 -166.2 -220 -166.2 -205.9"/>
      <polygon points="-84.9 -205.9 -81.3 -205.9 -81.3 -220 -77.9 -220 -76.1 -223.1 -88.4 -223.1 -90.1 -220 -90.1 -220 -84.9 -220 -84.9 -205.9"/>
      <polygon points="-198 -218.1 -198 -218.1 -190.9 -205.9 -187.3 -205.9 -187.3 -223.1 -190.7 -221.4 -190.7 -211.1 -190.7 -211.1 -197.6 -223.1 -201.4 -221.2 -201.4 -205.9 -198 -205.9 -198 -218.1"/>
      <polygon points="-34 -199.8 -46.2 -199.8 -48 -196.8 -48 -196.8 -42.8 -196.8 -42.8 -182.6 -39.2 -182.6 -39.2 -196.8 -35.8 -196.8 -34 -199.8"/>
      <polygon points="-150.7 -199.8 -154 -198.2 -154 -187.8 -154.1 -187.8 -160.9 -199.8 -164.7 -198 -164.7 -182.6 -161.3 -182.6 -161.3 -194.9 -161.3 -194.9 -154.2 -182.6 -150.7 -182.6 -150.7 -199.8"/>
      <polygon points="-88.9 -209 -97.5 -209 -97.5 -223.1 -101.1 -221.3 -101.1 -205.9 -90.7 -205.9 -88.9 -209"/>
      <path d="M-138.6-199.9h0l-5,2.4-5.3,14.8h3.8l1.2-3.6h6.4l1.1,3.6h3.9l-6.1-17.2ZM-142.9-189.2l2.2-6.8h0l2.1,6.8h-4.4Z"/>
      <path d="M-172.4-199.9h0l-5,2.4-5.3,14.8h3.8l1.2-3.6h6.4l1.1,3.6h3.9l-6.1-17.2ZM-176.8-189.2l2.2-6.8h0l2.1,6.8h-4.4Z"/>
      <polygon points="-49.9 -199.9 -53.3 -198.2 -53.3 -187.9 -53.3 -187.9 -60.2 -199.9 -64 -198 -64 -182.6 -60.6 -182.6 -60.6 -194.9 -60.6 -194.9 -53.5 -182.6 -49.9 -182.6 -49.9 -199.9"/>
      <path d="M-124.1-197c2.2,0,3.3,1.5,3.5,2.7h2.9c0-.9-.3-2.2-1.4-3.4-1.3-1.5-2.7-2.1-4.8-2.1,0,0-1,0-1.1,0l-5.6,2.7c-1.2,1.6-1.8,3.7-1.8,5.9,0,5.7,3.7,8.2,7.5,8.5,2.8.2,5.8-.4,7.2-1.3v-7.8h-6.3v2.5h3.3v3.3c-.7.3-1.8.5-3.1.4-2.3,0-5.1-1.2-5.1-5.6s2.4-5.9,4.8-5.9Z"/>
      <polygon points="-120 -208.9 -120 -208.9 -129.6 -208.9 -129.6 -213.4 -123 -213.4 -121.2 -216.4 -129.6 -216.4 -129.6 -220 -122.2 -220 -120.5 -223.1 -129.2 -223.1 -133.1 -221.2 -133.1 -205.9 -121.8 -205.9 -120 -208.9"/>
      <polygon points="-75.8 -190.1 -69.2 -190.1 -67.4 -193.2 -75.8 -193.2 -75.8 -196.8 -68.4 -196.8 -66.7 -199.8 -75.4 -199.8 -79.3 -197.9 -79.3 -182.6 -68 -182.6 -66.3 -185.7 -66.3 -185.7 -75.8 -185.7 -75.8 -190.1"/>
      <polygon points="-111.1 -190.1 -104.4 -190.1 -102.7 -193.2 -111.1 -193.2 -111.1 -196.8 -103.7 -196.8 -101.9 -199.8 -110.7 -199.8 -114.6 -197.9 -114.6 -182.6 -103.3 -182.6 -101.5 -185.7 -101.5 -185.7 -111.1 -185.7 -111.1 -190.1"/>
      <polygon points="-192.9 -187 -196.2 -199.8 -201.4 -197.1 -201.4 -182.6 -198 -182.6 -198 -195.7 -194.7 -182.6 -191 -182.6 -187.8 -195.7 -187.8 -182.6 -184.5 -182.6 -184.5 -199.8 -190.5 -196.8 -192.9 -187"/>
      <polygon points="-90.8 -187 -94 -199.8 -99.2 -197.1 -99.2 -182.6 -95.9 -182.6 -95.9 -195.7 -92.5 -182.6 -88.9 -182.6 -85.7 -195.7 -85.7 -182.6 -82.3 -182.6 -82.3 -199.8 -88.4 -196.8 -90.8 -187"/>
      <polygon points="-148.2 -205.9 -145.7 -217.5 -143.3 -205.9 -139.7 -205.9 -135 -223.1 -139 -221 -141.6 -211.4 -143.9 -223.1 -147.9 -221.1 -149.9 -211.4 -153 -223.1 -156 -221.5 -151.7 -205.9 -148.2 -205.9"/>
      <polygon points="-70.5 -213.4 -64.7 -213.4 -64.7 -205.9 -61.2 -205.9 -61.2 -223.1 -64.7 -221.3 -64.7 -216.3 -70.5 -216.3 -70.5 -223.1 -74.1 -221.3 -74.1 -205.9 -70.5 -205.9 -70.5 -213.4"/>
    </g>
  </g>
</svg>