<?xml version="1.0" encoding="UTF-8"?>
<svg xmlns="http://www.w3.org/2000/svg" xmlns:xlink="http://www.w3.org/1999/xlink" width="174px" height="25px" viewBox="0 0 202 29" version="1.1">
<g id="surface1">
<path style=" stroke:none;fill-rule:nonzero;fill:rgb(92.54902%,6.666667%,10.196078%);fill-opacity:1;" d="M 150.15625 6.863281 C 145.835938 6.863281 142.332031 10.371094 142.332031 14.695312 C 142.332031 19.019531 145.835938 22.527344 150.15625 22.527344 C 154.480469 22.527344 157.984375 19.019531 157.984375 14.695312 C 157.984375 10.371094 154.480469 6.863281 150.15625 6.863281 Z M 150.15625 18.175781 C 148.234375 18.175781 146.679688 16.617188 146.679688 14.695312 C 146.679688 12.773438 148.234375 11.214844 150.15625 11.214844 C 152.078125 11.214844 153.636719 12.773438 153.636719 14.695312 C 153.617188 16.605469 152.0625 18.140625 150.15625 18.140625 Z M 150.15625 18.175781 "/>
<path style=" stroke:none;fill-rule:nonzero;fill:rgb(92.54902%,6.666667%,10.196078%);fill-opacity:1;" d="M 167.949219 7.230469 L 165.808594 7.230469 L 165.808594 2.617188 L 161.128906 2.617188 L 161.128906 7.230469 L 159 7.230469 L 159 11.46875 L 161.128906 11.46875 L 161.128906 22.144531 L 165.808594 22.144531 L 165.808594 11.46875 L 167.949219 11.46875 Z M 167.949219 7.230469 "/>
<path style=" stroke:none;fill-rule:nonzero;fill:rgb(92.54902%,6.666667%,10.196078%);fill-opacity:1;" d="M 170.085938 7.238281 L 174.757812 7.238281 L 174.757812 22.152344 L 170.085938 22.152344 Z M 170.085938 7.238281 "/>
<path style=" stroke:none;fill-rule:nonzero;fill:rgb(92.54902%,6.666667%,10.196078%);fill-opacity:1;" d="M 172.425781 0 C 170.984375 0 169.816406 1.167969 169.816406 2.609375 C 169.816406 4.050781 170.984375 5.21875 172.425781 5.21875 C 173.867188 5.21875 175.035156 4.050781 175.035156 2.609375 C 175.035156 1.167969 173.867188 0 172.425781 0 Z M 172.425781 0 "/>
<path style=" stroke:none;fill-rule:nonzero;fill:rgb(92.54902%,6.666667%,10.196078%);fill-opacity:1;" d="M 44.738281 11.25 C 46.273438 11.253906 47.519531 12.496094 47.53125 14.035156 L 47.53125 22.144531 L 52.199219 22.144531 L 52.199219 13.441406 C 52.199219 9.476562 49.914062 6.910156 46.296875 6.910156 C 44.816406 6.910156 43.242188 7.5625 41.949219 9.640625 L 41.949219 7.230469 L 37.277344 7.230469 L 37.277344 22.144531 L 41.957031 22.144531 L 41.957031 14.035156 C 41.957031 12.496094 43.203125 11.25 44.738281 11.25 Z M 44.738281 11.25 "/>
<path style=" stroke:none;fill-rule:nonzero;fill:rgb(92.54902%,6.666667%,10.196078%);fill-opacity:1;" d="M 80.128906 18.125 C 78.59375 18.125 77.347656 16.878906 77.347656 15.339844 L 77.347656 7.230469 L 72.625 7.230469 L 72.625 15.984375 C 72.625 19.949219 74.914062 22.519531 78.53125 22.519531 C 80.015625 22.519531 81.582031 21.867188 82.878906 19.785156 L 82.878906 22.144531 L 87.546875 22.144531 L 87.546875 7.230469 L 82.878906 7.230469 L 82.878906 15.339844 C 82.875 16.863281 81.652344 18.101562 80.128906 18.125 Z M 80.128906 18.125 "/>
<path style=" stroke:none;fill-rule:nonzero;fill:rgb(92.54902%,6.666667%,10.196078%);fill-opacity:1;" d="M 126.21875 18.132812 C 126.566406 17.257812 126.730469 16.324219 126.703125 15.382812 C 126.746094 14 126.269531 12.652344 125.375 11.597656 C 123.949219 10.269531 122.203125 9.335938 120.304688 8.890625 C 119.847656 8.765625 119.402344 8.601562 118.972656 8.394531 C 118.597656 8.21875 118.261719 7.964844 117.984375 7.65625 C 117.6875 7.324219 117.539062 6.890625 117.566406 6.449219 C 117.574219 5.792969 117.949219 5.195312 118.539062 4.90625 C 119.714844 4.386719 121.058594 4.386719 122.234375 4.90625 C 122.757812 5.089844 123.261719 5.328125 123.738281 5.613281 L 125.730469 1.652344 C 124.847656 1.109375 123.894531 0.6875 122.894531 0.398438 C 121.863281 0.132812 120.796875 -0.00390625 119.730469 0 C 118.71875 -0.0078125 117.710938 0.15625 116.757812 0.488281 C 115.90625 0.824219 115.136719 1.332031 114.488281 1.976562 C 113.835938 2.621094 113.320312 3.390625 112.964844 4.238281 C 112.625 5.105469 112.453125 6.027344 112.460938 6.960938 C 112.511719 8.453125 113.136719 9.867188 114.199219 10.910156 C 115.210938 11.804688 116.394531 12.476562 117.679688 12.886719 C 118.296875 13.121094 118.984375 13.328125 119.417969 13.496094 C 119.867188 13.667969 120.292969 13.886719 120.695312 14.148438 C 120.988281 14.339844 121.222656 14.601562 121.382812 14.914062 C 121.519531 15.210938 121.570312 15.539062 121.53125 15.863281 C 121.484375 16.359375 121.246094 16.820312 120.871094 17.148438 C 120.246094 17.601562 119.480469 17.8125 118.714844 17.742188 C 117.808594 17.71875 116.921875 17.503906 116.105469 17.113281 C 115.394531 16.792969 114.707031 16.433594 114.042969 16.027344 L 111.695312 20.097656 C 113.582031 21.648438 115.949219 22.5 118.390625 22.507812 C 119.574219 22.511719 120.746094 22.324219 121.871094 21.953125 C 122.847656 21.621094 123.75 21.113281 124.539062 20.445312 C 125.253906 19.804688 125.828125 19.015625 126.21875 18.132812 Z M 126.21875 18.132812 "/>
<path style=" stroke:none;fill-rule:nonzero;fill:rgb(92.54902%,6.666667%,10.196078%);fill-opacity:1;" d="M 139.042969 16.855469 C 138.167969 17.960938 136.710938 18.429688 135.351562 18.039062 C 133.996094 17.648438 133.011719 16.476562 132.855469 15.074219 C 132.703125 13.667969 133.414062 12.3125 134.652344 11.636719 C 135.894531 10.964844 137.417969 11.105469 138.511719 12 C 138.710938 12.152344 138.890625 12.332031 139.042969 12.527344 L 142.140625 9.421875 C 140.65625 7.792969 138.558594 6.867188 136.355469 6.863281 C 132.007812 6.863281 128.285156 9.925781 128.285156 14.695312 C 128.285156 19.464844 132.042969 22.527344 136.355469 22.527344 C 138.558594 22.523438 140.660156 21.589844 142.140625 19.960938 Z M 139.042969 16.855469 "/>
<path style=" stroke:none;fill-rule:nonzero;fill:rgb(92.54902%,6.666667%,10.196078%);fill-opacity:1;" d="M 35.042969 22.144531 L 35.042969 7.230469 L 30.488281 7.230469 L 30.488281 8.824219 L 30.0625 8.441406 C 28.996094 7.4375 27.589844 6.882812 26.128906 6.882812 C 22.113281 6.882812 18.714844 10.46875 18.714844 14.714844 C 18.714844 18.960938 22.113281 22.542969 26.128906 22.542969 C 27.59375 22.546875 29 21.984375 30.0625 20.976562 L 30.488281 20.605469 L 30.488281 22.167969 Z M 26.859375 18.210938 C 24.914062 18.210938 23.339844 16.632812 23.339844 14.6875 C 23.339844 12.742188 24.914062 11.164062 26.859375 11.164062 C 28.804688 11.164062 30.382812 12.742188 30.382812 14.6875 C 30.394531 15.625 30.027344 16.527344 29.363281 17.191406 C 28.699219 17.855469 27.796875 18.222656 26.859375 18.210938 Z M 26.859375 18.210938 "/>
<path style=" stroke:none;fill-rule:nonzero;fill:rgb(92.54902%,6.666667%,10.196078%);fill-opacity:1;" d="M 65.859375 7.230469 L 65.859375 8.824219 L 65.453125 8.421875 C 64.394531 7.417969 62.988281 6.859375 61.53125 6.863281 C 57.503906 6.863281 54.113281 10.449219 54.113281 14.695312 C 54.113281 18.941406 57.503906 22.527344 61.53125 22.527344 C 62.992188 22.527344 64.394531 21.96875 65.453125 20.960938 L 65.878906 20.585938 L 65.878906 29.007812 L 70.417969 29.007812 L 70.417969 7.257812 Z M 65.757812 14.6875 C 65.757812 16.609375 64.199219 18.167969 62.277344 18.167969 C 60.355469 18.167969 58.800781 16.609375 58.800781 14.6875 C 58.800781 12.765625 60.355469 11.207031 62.277344 11.207031 C 64.199219 11.207031 65.757812 12.765625 65.757812 14.6875 Z M 65.757812 14.6875 "/>
<path style=" stroke:none;fill-rule:nonzero;fill:rgb(92.54902%,6.666667%,10.196078%);fill-opacity:1;" d="M 105.15625 14.6875 C 105.15625 10.363281 101.652344 6.855469 97.332031 6.855469 C 93.007812 6.855469 89.503906 10.363281 89.503906 14.6875 C 89.453125 16.777344 90.261719 18.800781 91.742188 20.28125 C 93.21875 21.757812 95.238281 22.570312 97.332031 22.519531 C 99.9375 22.519531 102.207031 21.976562 104.183594 19.90625 L 101.175781 17.296875 C 100.117188 18.238281 98.742188 18.742188 97.332031 18.707031 C 95.777344 18.71875 94.402344 17.699219 93.964844 16.210938 L 105.007812 16.210938 C 105.097656 15.707031 105.148438 15.199219 105.15625 14.6875 Z M 94.042969 13.050781 C 94.472656 11.558594 95.835938 10.53125 97.386719 10.53125 C 98.9375 10.53125 100.300781 11.558594 100.730469 13.050781 Z M 94.042969 13.050781 "/>
<path style=" stroke:none;fill-rule:nonzero;fill:rgb(92.54902%,6.666667%,10.196078%);fill-opacity:1;" d="M 17.15625 15.773438 C 17.15625 19.628906 14.015625 22.144531 10.140625 22.144531 L 1 22.144531 L 1 0.382812 L 9.511719 0.382812 C 13.304688 0.382812 16.382812 2.84375 16.382812 6.59375 C 16.417969 8.226562 15.722656 9.792969 14.488281 10.859375 C 16.1875 11.902344 17.207031 13.777344 17.15625 15.773438 Z M 5.679688 5.046875 L 5.679688 8.902344 L 9.511719 8.902344 C 10.511719 8.9375 11.355469 8.160156 11.410156 7.160156 L 11.410156 6.960938 C 11.464844 5.960938 10.695312 5.101562 9.695312 5.046875 Z M 12.183594 15.402344 C 12.214844 14.878906 12.039062 14.367188 11.695312 13.976562 C 11.347656 13.585938 10.859375 13.351562 10.339844 13.320312 L 5.679688 13.320312 L 5.679688 17.488281 L 10.140625 17.488281 C 11.222656 17.53125 12.140625 16.695312 12.191406 15.609375 C 12.191406 15.539062 12.191406 15.46875 12.183594 15.402344 Z M 12.183594 15.402344 "/>
<path style=" stroke:none;fill-rule:nonzero;fill:rgb(92.54902%,6.666667%,10.196078%);fill-opacity:1;" d="M 193.0625 22.144531 L 193.0625 7.230469 L 188.496094 7.230469 L 188.496094 8.824219 L 188.078125 8.441406 C 187.019531 7.429688 185.609375 6.867188 184.148438 6.863281 C 180.128906 6.863281 176.730469 10.449219 176.730469 14.695312 C 176.730469 18.941406 180.128906 22.527344 184.148438 22.527344 C 185.609375 22.527344 187.015625 21.96875 188.078125 20.960938 L 188.496094 20.585938 L 188.496094 22.152344 Z M 184.878906 18.210938 C 183.449219 18.230469 182.152344 17.382812 181.59375 16.066406 C 181.035156 14.75 181.324219 13.226562 182.328125 12.210938 C 183.332031 11.195312 184.851562 10.882812 186.171875 11.425781 C 187.492188 11.96875 188.355469 13.257812 188.355469 14.6875 C 188.367188 15.617188 188.007812 16.515625 187.351562 17.175781 C 186.699219 17.839844 185.808594 18.210938 184.878906 18.210938 Z M 184.878906 18.210938 "/>
<path style=" stroke:none;fill-rule:nonzero;fill:rgb(92.54902%,6.666667%,10.196078%);fill-opacity:1;" d="M 197.746094 19.296875 L 197.253906 19.296875 L 197.253906 19.308594 L 196.304688 21.402344 L 195.355469 19.308594 L 195.355469 19.296875 L 194.84375 19.296875 L 194.84375 22.144531 L 195.355469 22.144531 L 195.355469 20.414062 L 196.128906 22.144531 L 196.476562 22.144531 L 197.253906 20.414062 L 197.253906 22.144531 L 197.765625 22.144531 L 197.765625 19.296875 Z M 197.746094 19.296875 "/>
<path style=" stroke:none;fill-rule:nonzero;fill:rgb(92.54902%,6.666667%,10.196078%);fill-opacity:1;" d="M 201 20.714844 C 201.011719 21.078125 200.878906 21.429688 200.632812 21.695312 C 200.382812 21.960938 200.039062 22.113281 199.679688 22.125 L 198.453125 22.125 L 198.453125 19.296875 L 199.644531 19.296875 C 200.007812 19.300781 200.355469 19.449219 200.609375 19.707031 C 200.863281 19.96875 201.003906 20.316406 201 20.683594 Z M 200.511719 20.714844 C 200.53125 20.484375 200.457031 20.253906 200.304688 20.078125 C 200.152344 19.902344 199.9375 19.792969 199.703125 19.777344 L 198.972656 19.777344 L 198.972656 21.664062 L 199.625 21.664062 C 200.105469 21.664062 200.496094 21.277344 200.496094 20.796875 Z M 200.511719 20.714844 "/>
</g>
</svg>
