<?xml version="1.0" encoding="UTF-8"?><svg id="Layer_1" xmlns="http://www.w3.org/2000/svg" viewBox="0 0 231.4 73.91"><defs><style>.cls-1{fill:#0e2538;}.cls-2{fill:#76bc21;}.cls-3{fill:#4d9d34;}</style></defs><g><g><polygon class="cls-3" points="172.1 0 163.76 8.34 163.76 20.61 172.09 12.28 172.1 12.29 172.1 0"/><polygon class="cls-2" points="172.1 0 172.09 0 172.09 12.3 172.11 12.28 188.73 28.9 188.73 16.63 172.1 0"/></g><g><polygon class="cls-1" points="30.84 54.43 35.97 54.43 35.97 22.14 30.9 22.14 17.98 34.94 5.07 22.14 0 22.14 0 54.43 5.12 54.43 5.12 30.43 17.98 42.59 30.84 30.43 30.84 54.43"/><rect class="cls-1" x="70.16" y="22.11" width="5.12" height="32.32"/><path class="cls-1" d="M122.11,22.21V54.43h5.12v-8.96h6.07c7.11,0,12.07-4.78,12.07-11.63s-4.96-11.63-12.07-11.63h-11.19Zm18.03,11.63c0,4.22-2.94,6.83-7.66,6.83h-5.24v-13.66h5.24c4.72,0,7.66,2.61,7.66,6.83Z"/><path class="cls-1" d="M41.99,29.94v15.83c0,2.75,.93,5.09,2.69,6.76,1.61,1.53,3.81,2.38,6.18,2.38,.01,0,1.66,.02,2.21,.03,.55-.01,2.2-.03,2.2-.03,2.38,0,4.57-.84,6.18-2.38,1.76-1.67,2.69-4.01,2.69-6.76v-15.83h-5.12v14c0,3.87-1.73,5.97-5.15,6.25-.02,0-.42,.03-.8,.03s-.78-.03-.79-.03c-3.42-.28-5.16-2.38-5.16-6.25v-14h-5.13Z"/><path class="cls-1" d="M85.25,45.9c0,5.02,3.37,8.53,8.2,8.53h4.83v-4.68h-3.72c-2.66,0-4.18-1.79-4.18-4.9v-10.45h7.9v-4.46h-7.9v-7.79h-5.12v7.79h-5.14v4.46h5.14v11.5h-.01Z"/><path class="cls-1" d="M156.47,29.89c-2.37,0-4.56,.84-6.18,2.38-1.76,1.67-2.69,4.01-2.69,6.76v15.37h5.12v-13.54c0-4.34,1.69-5.94,5.15-6.25,.65-.06,4.73,0,4.73,0v-4.71h-6.13Z"/><path class="cls-1" d="M177.4,55.29c4.54,0,7.91-2.02,9.29-3.02l-3.21-3.21c-1.36,.82-3.41,1.65-6.08,1.65-4.71,0-7.56-3.45-8.09-5.9l-.2-.91h19.77c.02-.72,.02-1.37,.02-1.73,0-3.63-1.31-6.94-3.69-9.32-2.31-2.31-5.42-3.58-8.77-3.58s-6.58,1.34-8.87,3.76c-2.28,2.41-3.53,5.7-3.53,9.25,.02,7.3,5.88,13.01,13.36,13.01Zm-8.1-15.51c.27-2.88,2.63-5.99,7.16-5.99,2.74,0,4.45,1.1,5.41,2.01,1.13,1.09,1.85,2.59,1.92,4.01l.04,.79h-14.61l.08-.82Z"/><path class="cls-1" d="M220.71,55.29c6.09,0,10.69-3.15,10.69-7.32,0-4.79-3.04-6.38-8.3-7.5-4.66-.99-6.79-1.44-6.79-3.67,0-1.94,2.21-3.24,5.51-3.24,2.15,0,4.09,.75,5.47,1.49l3.22-3.22c-1.32-.85-4.5-2.56-8.69-2.56-6.83,0-10.52,3.83-10.52,7.43,0,3.78,2.99,6.25,9.13,7.55,3.86,.8,5.79,1.21,5.79,3.61,0,1.93-2.2,3.13-5.73,3.13-3.1,0-5.73-1.66-7.27-2.91l-3.24,3.24c1.3,1.17,4.99,3.97,10.73,3.97Z"/><path class="cls-1" d="M199.36,22.14h-5.12v7.79h-4.59l4.59,4.51v11.45c0,5.02,3.37,8.53,8.2,8.53h4.83v-4.68h-3.72c-2.66,0-4.18-1.79-4.18-4.9v-10.44h7.9v-4.46h-7.9v-7.8h-.01Z"/><rect class="cls-1" x="113.04" y="40.05" width="5.12" height="5.12"/><g><rect class="cls-1" x="103.97" y="29.94" width="5.12" height="24.5"/><path class="cls-1" d="M106.53,25.72c1.99,0,3.58-1.59,3.58-3.58h-7.16c0,2,1.59,3.58,3.58,3.58Z"/></g></g></g><g><path class="cls-2" d="M7.66,62.22h1.48v11.15h-1.48v-5.08H1.48v5.08H0v-11.15H1.48v4.8H7.66v-4.8Z"/><path class="cls-2" d="M14.17,68.99l-4.16-6.77h1.66l3.31,5.48,3.26-5.48h1.57l-4.16,6.77v4.38h-1.48v-4.38Z"/><path class="cls-2" d="M20.67,62.22h3.19c2.57,0,4.21,1.23,4.21,3.36s-1.64,3.36-4.21,3.36h-1.71v4.43h-1.48v-11.15Zm3.1,5.45c1.67,0,2.82-.67,2.82-2.09s-1.15-2.09-2.82-2.09h-1.62v4.17h1.62Z"/><path class="cls-2" d="M40.59,67.79c0,3.22-2.54,5.77-6.1,5.77s-6.1-2.55-6.1-5.77,2.54-5.77,6.1-5.77c3.57,.01,6.1,2.56,6.1,5.77Zm-1.58,0c0-2.37-1.81-4.49-4.51-4.49s-4.51,2.12-4.51,4.49,1.81,4.49,4.51,4.49,4.51-2.11,4.51-4.49Z"/><path class="cls-2" d="M43.87,63.49h-3.54v-1.27h8.56v1.27h-3.54v9.88h-1.48v-9.88Z"/><path class="cls-2" d="M57.46,62.22h1.48v11.15h-1.48v-5.08h-6.18v5.08h-1.48v-11.15h1.48v4.8h6.18v-4.8Z"/><path class="cls-2" d="M62.51,67.01h5.22v1.27h-5.22v3.81h5.74v1.27h-7.22v-11.14h7.12v1.27h-5.64v3.52Zm.83-8.6l2.63,2.37-.88,.75-2.66-2.29,.91-.83Z"/><path class="cls-2" d="M81.24,67.79c0,1.39-.48,2.63-1.29,3.62l1.9,1.53-.92,.97-1.96-1.56c-1.02,.76-2.34,1.21-3.84,1.21-3.56,0-6.1-2.55-6.1-5.77s2.54-5.77,6.1-5.77c3.58,0,6.11,2.56,6.11,5.77Zm-4.21,1.26l1.76,1.43c.56-.76,.88-1.7,.88-2.69,0-2.37-1.85-4.49-4.53-4.49s-4.51,2.12-4.51,4.49,1.83,4.49,4.51,4.49c1.04,0,1.96-.32,2.68-.84l-1.73-1.4,.94-.99Z"/><path class="cls-2" d="M90.48,62.22h1.48v7.04c0,2.53-1.67,4.3-4.49,4.3s-4.49-1.77-4.49-4.3v-7.04h1.48v6.9c0,1.8,.88,3.17,3.01,3.17s3.01-1.37,3.01-3.17c0-3.68,0-6.9,0-6.9Z"/><path class="cls-2" d="M95.53,67.01h5.22v1.27h-5.22v3.81h5.74v1.27h-7.22v-11.14h7.12v1.27h-5.64v3.52Z"/><path class="cls-2" d="M106.12,68.35c-1.8-.75-3.38-1.5-3.38-3.39,0-1.31,1.2-2.93,3.56-2.93s3.51,1.62,3.51,1.62l-1.11,.81s-.86-1.16-2.4-1.16c-1.36,0-2.08,.86-2.08,1.66,0,1.13,1.06,1.58,2.75,2.28,1.89,.78,3.07,1.5,3.07,3.3s-1.66,3.03-3.82,3.03c-2.92,0-3.93-2.33-3.93-2.33l1.23-.67s.74,1.72,2.7,1.72c1.18,0,2.31-.61,2.31-1.75,0-1.17-1.03-1.61-2.41-2.19Z"/></g><g><path class="cls-1" d="M125.49,63.2s-.42-.53-1.25-.53c-.98,0-1.66,.86-1.66,1.82s.67,1.82,1.66,1.82c.82,0,1.31-.6,1.31-.6l.37,.37s-.61,.74-1.67,.74c-1.31,0-2.24-1.03-2.24-2.34s.93-2.34,2.24-2.34c1.06,0,1.62,.69,1.62,.69l-.38,.37Z"/><path class="cls-1" d="M127.97,62.23h.5l1.77,4.53h-.57l-.47-1.22h-1.95l-.47,1.22h-.58l1.77-4.53Zm-.52,2.78h1.55l-.78-2.01-.77,2.01Z"/><path class="cls-1" d="M130.92,62.23h1.19c.93,0,1.45,.48,1.45,1.23,0,.61-.45,.87-.51,.89,.06,.01,.76,.21,.76,1.11,0,.79-.58,1.29-1.47,1.29h-1.42v-4.52Zm1.28,1.95c.51,0,.82-.28,.82-.72s-.31-.72-.82-.72h-.74v1.44h.74Zm1.06,1.28c0-.43-.28-.78-.93-.78h-.87v1.55h.87c.65,0,.93-.34,.93-.77Z"/><path class="cls-1" d="M134.75,62.23h.54v4.53h-.54v-4.53Z"/><path class="cls-1" d="M137.1,62.23l2.42,3.62v-3.62h.54v4.53h-.56l-2.42-3.62v3.62h-.54v-4.53h.56Z"/><path class="cls-1" d="M154.17,62.23l2.42,3.62v-3.62h.54v4.53h-.56l-2.42-3.62v3.62h-.54v-4.53h.56Z"/><path class="cls-1" d="M141.77,64.17h1.91v.52h-1.91v1.55h2.11v.52h-2.65v-4.53h2.61v.52h-2.07v1.42Z"/><path class="cls-1" d="M145.7,62.74h-1.3v-.52h3.14v.52h-1.3v4.01h-.54v-4.01Z"/><path class="cls-1" d="M150.88,64.17h1.91v.52h-1.91v1.55h2.11v.52h-2.65v-4.53h2.61v.52h-2.07v1.42Z"/><path class="cls-1" d="M163.3,63.2s-.42-.53-1.25-.53c-.98,0-1.66,.86-1.66,1.82s.67,1.82,1.66,1.82c.82,0,1.31-.6,1.31-.6l.37,.37s-.61,.74-1.67,.74c-1.31,0-2.24-1.03-2.24-2.34s.93-2.34,2.24-2.34c1.06,0,1.62,.69,1.62,.69l-.38,.37Z"/><path class="cls-1" d="M168.67,64.49c0,1.31-.93,2.34-2.24,2.34s-2.24-1.03-2.24-2.34,.93-2.34,2.24-2.34,2.24,1.03,2.24,2.34Zm-.58,0c0-.96-.67-1.82-1.66-1.82s-1.66,.86-1.66,1.82,.67,1.82,1.66,1.82,1.66-.86,1.66-1.82Z"/><path class="cls-1" d="M172.3,62.23h.54v2.86c0,1.03-.61,1.75-1.65,1.75s-1.65-.72-1.65-1.75v-2.86h.54v2.8c0,.73,.32,1.29,1.11,1.29s1.11-.56,1.11-1.29v-2.8Z"/><path class="cls-1" d="M174,62.23h1.18c.9,0,1.51,.53,1.51,1.34,0,1.07-.98,1.27-1.11,1.29l1.25,1.89h-.65l-1.22-1.85h-.42v1.85h-.54v-4.52Zm2.15,1.34c0-.5-.33-.82-.94-.82h-.67v1.64h.67c.61,0,.94-.33,.94-.82Z"/><path class="cls-1" d="M178.53,62.74h-1.3v-.52h3.14v.52h-1.3v4.01h-.54v-4.01Z"/><path class="cls-1" d="M182.17,62.23h.5l1.77,4.53h-.57l-.47-1.22h-1.95l-.47,1.22h-.58l1.77-4.53Zm-.53,2.78h1.55l-.78-2.01-.77,2.01Z"/><path class="cls-1" d="M187.12,64.27h1.67v1.97s-.6,.59-1.78,.59c-1.31,0-2.25-1.03-2.25-2.34s.94-2.34,2.25-2.34c1.17,0,1.66,.64,1.66,.64l-.39,.38s-.43-.5-1.27-.5c-.98,0-1.67,.86-1.67,1.82s.69,1.82,1.67,1.82c.83,0,1.24-.33,1.24-.33v-1.2h-1.13v-.51Z"/><path class="cls-1" d="M190.32,64.17h1.91v.52h-1.91v1.55h2.11v.52h-2.65v-4.53h2.61v.52h-2.07v1.42Z"/><path class="cls-1" d="M125.1,68.88h.54v4.53h-.54v-2.06h-2.27v2.06h-.54v-4.53h.54v1.95h2.27v-1.95Z"/><path class="cls-1" d="M127.87,71.63l-1.53-2.75h.61l1.22,2.22,1.2-2.22h.58l-1.53,2.75v1.78h-.54v-1.78h-.01Z"/><path class="cls-1" d="M130.65,68.88h1.17c.94,0,1.55,.5,1.55,1.36s-.6,1.36-1.55,1.36h-.63v1.8h-.54v-4.52Zm1.13,2.22c.61,0,1.03-.27,1.03-.85s-.42-.85-1.03-.85h-.59v1.69h.59Z"/><path class="cls-1" d="M138.35,71.15c0,1.31-.93,2.34-2.24,2.34s-2.24-1.03-2.24-2.34,.93-2.34,2.24-2.34,2.24,1.03,2.24,2.34Zm-.59,0c0-.96-.67-1.82-1.66-1.82s-1.66,.86-1.66,1.82,.67,1.82,1.66,1.82,1.66-.86,1.66-1.82Z"/><path class="cls-1" d="M139.94,69.4h-1.3v-.52h3.14v.52h-1.3v4.01h-.54v-4.01Z"/><path class="cls-1" d="M145.31,68.88h.54v4.53h-.54v-2.06h-2.27v2.06h-.54v-4.53h.54v1.95h2.27v-1.95Z"/><path class="cls-1" d="M147.55,70.83h1.91v.52h-1.91v1.55h2.11v.52h-2.65v-4.53h2.61v.52h-2.07v1.42Zm1.52-3.16l-.98,.93-.32-.3,.96-.96,.34,.33Z"/><path class="cls-1" d="M153.83,69.85s-.42-.53-1.25-.53c-.98,0-1.66,.86-1.66,1.82s.67,1.82,1.66,1.82c.82,0,1.31-.6,1.31-.6l.37,.37s-.61,.74-1.67,.74c-1.31,0-2.24-1.03-2.24-2.34s.93-2.34,2.24-2.34c1.06,0,1.62,.69,1.62,.69l-.38,.37Z"/><path class="cls-1" d="M156.31,68.88h.5l1.77,4.53h-.57l-.47-1.22h-1.95l-.47,1.22h-.59l1.78-4.53Zm-.52,2.79h1.55l-.78-2.01-.77,2.01Z"/><path class="cls-1" d="M159.35,68.88h.54v4.53h-.54v-4.53Z"/><path class="cls-1" d="M161.14,68.88h1.18c.9,0,1.51,.53,1.51,1.34,0,1.07-.98,1.27-1.11,1.29l1.25,1.89h-.65l-1.22-1.85h-.42v1.85h-.54v-4.52Zm2.15,1.34c0-.5-.33-.82-.94-.82h-.67v1.64h.67c.61,0,.94-.32,.94-.82Z"/><path class="cls-1" d="M165.36,70.83h1.91v.52h-1.91v1.55h2.11v.52h-2.65v-4.53h2.61v.52h-2.07v1.42Z"/></g></svg>