<?xml version="1.0" encoding="UTF-8"?><svg id="Layer_1" xmlns="http://www.w3.org/2000/svg" viewBox="-3 -3 234.72 80.01"><defs><style>.cls-1{fill:#003f35;}.cls-2{fill:#76b82a;}.cls-3{fill:#4d9d34;}</style></defs><g><path class="cls-1" d="M1.56,61.64l4.48,6.79,4.46-6.79h1.51v12.16h-1.56v-9.52l-4.44,6.76-4.44-6.74v9.5H0v-12.16H1.56Z"/><path class="cls-1" d="M27.5,67.72c0,3.51-2.68,6.29-6.43,6.29s-6.43-2.78-6.43-6.29,2.68-6.29,6.43-6.29,6.43,2.78,6.43,6.29Zm-1.68,0c0-2.59-1.91-4.9-4.76-4.9s-4.76,2.31-4.76,4.9,1.91,4.9,4.76,4.9,4.76-2.31,4.76-4.9Z"/><path class="cls-1" d="M30.12,61.64h3.38c2.58,0,4.35,1.42,4.35,3.6,0,2.88-2.81,3.42-3.18,3.47l3.61,5.09h-1.88l-3.51-4.97h-1.21v4.97h-1.56v-12.16Zm6.17,3.6c0-1.34-.95-2.21-2.7-2.21h-1.91v4.41h1.91c1.75,0,2.7-.86,2.7-2.2Z"/><path class="cls-1" d="M43.26,63.03h-3.74v-1.39h9.04v1.39h-3.74v10.77h-1.56s0-10.77,0-10.77Z"/><path class="cls-1" d="M56.29,67.13h4.8v5.28s-1.73,1.6-5.11,1.6c-3.76,0-6.47-2.78-6.47-6.29s2.71-6.29,6.47-6.29c3.37,0,4.76,1.72,4.76,1.72l-1.12,1.03s-1.25-1.36-3.64-1.36c-2.83,0-4.8,2.31-4.8,4.9s1.97,4.9,4.8,4.9c2.38,0,3.57-.89,3.57-.89v-3.21h-3.25v-1.39h-.01Z"/><path class="cls-1" d="M67.78,61.64h1.45l5.08,12.16h-1.64l-1.36-3.28h-5.62l-1.36,3.28h-1.67l5.12-12.16Zm-1.5,7.49h4.46l-2.23-5.4-2.23,5.4Z"/><path class="cls-1" d="M82.13,67.13h4.8v5.28s-1.73,1.6-5.11,1.6c-3.76,0-6.47-2.78-6.47-6.29s2.71-6.29,6.47-6.29c3.37,0,4.76,1.72,4.76,1.72l-1.12,1.03s-1.25-1.36-3.64-1.36c-2.83,0-4.8,2.31-4.8,4.9s1.97,4.9,4.8,4.9c2.38,0,3.57-.89,3.57-.89v-3.21h-3.25v-1.39h-.01Z"/><path class="cls-1" d="M91.45,66.87h5.5v1.39h-5.5v4.15h6.06v1.39h-7.62v-12.16h7.51v1.39h-5.95v3.84Z"/><path class="cls-1" d="M103.85,68.33c-1.9-.82-3.57-1.63-3.57-3.7,0-1.42,1.26-3.2,3.76-3.2s3.7,1.77,3.7,1.77l-1.17,.89s-.91-1.27-2.53-1.27c-1.43,0-2.19,.94-2.19,1.81,0,1.23,1.12,1.72,2.9,2.48,1.99,.85,3.24,1.63,3.24,3.6s-1.75,3.3-4.03,3.3c-3.09,0-4.15-2.54-4.15-2.54l1.3-.73s.78,1.88,2.84,1.88c1.25,0,2.44-.66,2.44-1.91,0-1.27-1.09-1.75-2.54-2.38Z"/></g><g><g><g><polygon class="cls-3" points="170.11 .01 161.87 8.25 161.87 20.37 170.1 12.14 170.11 12.14 170.11 .01"/><polygon class="cls-2" points="170.11 0 170.1 .01 170.1 12.15 170.12 12.14 186.54 28.56 186.54 16.44 170.11 0"/></g><g><polygon class="cls-1" points="30.48 53.8 35.55 53.8 35.55 21.89 30.54 21.89 17.77 34.54 5.01 21.89 0 21.89 0 53.8 5.06 53.8 5.06 30.08 17.77 42.1 30.48 30.08 30.48 53.8"/><rect class="cls-1" x="69.35" y="21.85" width="5.06" height="31.95"/><path class="cls-1" d="M120.7,21.96v31.84h5.06v-8.86h6c7.02,0,11.93-4.73,11.93-11.49s-4.91-11.49-11.93-11.49c0,0-11.06,0-11.06,0Zm17.82,11.49c0,4.17-2.9,6.76-7.57,6.76h-5.19v-13.52h5.19c4.66,0,7.57,2.59,7.57,6.76Z"/><path class="cls-1" d="M41.5,29.59v15.64c0,2.72,.92,5.03,2.66,6.68,1.6,1.51,3.76,2.35,6.1,2.35,.01,0,1.64,.02,2.19,.03,.54-.01,2.18-.03,2.18-.03,2.35,0,4.52-.83,6.11-2.35,1.74-1.65,2.66-3.96,2.66-6.68v-15.64h-5.07v13.84c0,3.82-1.71,5.9-5.09,6.17-.02,0-.41,.03-.79,.03s-.77-.03-.78-.03c-3.38-.27-5.1-2.35-5.1-6.17v-13.84h-5.07Z"/><path class="cls-1" d="M84.27,45.37c0,4.97,3.33,8.43,8.11,8.43h4.77v-4.63h-3.68c-2.63,0-4.13-1.77-4.13-4.84v-10.33h7.81v-4.41h-7.81v-7.7h-5.07v7.7h-5.08v4.41h5.08v11.37Z"/><path class="cls-1" d="M154.66,29.55c-2.34,0-4.51,.83-6.1,2.35-1.74,1.65-2.66,3.96-2.66,6.68v15.2h5.07v-13.4c0-4.29,1.67-5.87,5.09-6.18,.64-.06,4.67,0,4.67,0v-4.66h-6.07Z"/><path class="cls-1" d="M175.35,54.65c4.48,0,7.82-2,9.19-2.98l-3.17-3.17c-1.35,.81-3.37,1.63-6.01,1.63-4.65,0-7.48-3.41-7.99-5.83l-.19-.9h19.55c.02-.71,.02-1.36,.02-1.71,0-3.59-1.3-6.86-3.65-9.21-2.28-2.28-5.36-3.54-8.66-3.54s-6.5,1.32-8.77,3.72c-2.25,2.38-3.49,5.63-3.49,9.14-.02,7.2,5.78,12.85,13.17,12.85Zm-8.01-15.33c.27-2.85,2.6-5.92,7.08-5.92,2.71,0,4.4,1.08,5.34,1.99,1.12,1.08,1.83,2.56,1.9,3.96l.04,.78h-14.44l.08-.81Z"/><path class="cls-1" d="M218.16,54.65c6.02,0,10.56-3.11,10.56-7.23,0-4.74-3.01-6.31-8.21-7.41-4.61-.98-6.71-1.43-6.71-3.62,0-1.92,2.19-3.2,5.44-3.2,2.13,0,4.04,.75,5.41,1.47l3.18-3.18c-1.31-.84-4.45-2.53-8.59-2.53-6.75,0-10.4,3.78-10.4,7.34s2.95,6.17,9.03,7.47c3.81,.79,5.73,1.19,5.73,3.57,0,1.91-2.17,3.09-5.66,3.09-3.07,0-5.66-1.64-7.18-2.88l-3.2,3.2c1.27,1.14,4.92,3.91,10.6,3.91Z"/><path class="cls-1" d="M197.05,21.89h-5.07v7.7h-4.54l4.54,4.46v11.32c0,4.97,3.33,8.43,8.11,8.43h4.77v-4.63h-3.68c-2.63,0-4.13-1.77-4.13-4.84v-10.33h7.81v-4.41h-7.81v-7.7Z"/><rect class="cls-1" x="111.73" y="39.59" width="5.07" height="5.07"/><g><rect class="cls-1" x="102.77" y="29.59" width="5.07" height="24.21"/><path class="cls-1" d="M105.3,25.43c1.97,0,3.54-1.57,3.54-3.54h-7.08c0,1.97,1.57,3.54,3.54,3.54Z"/></g></g></g><g><path class="cls-1" d="M121.99,61.58l1.71,2.78,1.7-2.78h.58v4.97h-.6v-3.89l-1.7,2.76-1.7-2.76v3.89h-.6v-4.97h.61Z"/><path class="cls-1" d="M131.82,64.07c0,1.43-1.02,2.57-2.46,2.57s-2.46-1.14-2.46-2.57,1.02-2.57,2.46-2.57,2.46,1.13,2.46,2.57Zm-.64,0c0-1.06-.73-2-1.82-2s-1.82,.94-1.82,2,.73,2,1.82,2,1.82-.94,1.82-2Z"/><path class="cls-1" d="M132.75,61.58h1.29c.99,0,1.66,.58,1.66,1.47,0,1.18-1.07,1.4-1.22,1.42l1.38,2.08h-.72l-1.34-2.03h-.46v2.03h-.6v-4.97h.01Zm2.35,1.47c0-.55-.36-.9-1.03-.9h-.73v1.8h.73c.67,0,1.03-.35,1.03-.9Z"/><path class="cls-1" d="M137.69,62.15h-1.43v-.57h3.45v.57h-1.43v4.4h-.6v-4.4h0Z"/><path class="cls-1" d="M142.59,63.83h1.83v2.16s-.66,.65-1.95,.65c-1.43,0-2.47-1.14-2.47-2.57s1.04-2.57,2.47-2.57c1.29,0,1.82,.7,1.82,.7l-.43,.42s-.48-.55-1.39-.55c-1.08,0-1.83,.94-1.83,2s.75,2,1.83,2c.91,0,1.36-.36,1.36-.36v-1.31h-1.24v-.57h0Z"/><path class="cls-1" d="M146.9,61.58h.55l1.94,4.97h-.63l-.52-1.34h-2.15l-.52,1.34h-.64l1.97-4.97Zm-.57,3.06h1.7l-.85-2.21-.85,2.21Z"/><path class="cls-1" d="M152.31,63.83h1.83v2.16s-.66,.65-1.95,.65c-1.43,0-2.47-1.14-2.47-2.57s1.04-2.57,2.47-2.57c1.29,0,1.82,.7,1.82,.7l-.43,.42s-.48-.55-1.39-.55c-1.08,0-1.83,.94-1.83,2s.75,2,1.83,2c.91,0,1.36-.36,1.36-.36v-1.31h-1.24v-.57h0Z"/><path class="cls-1" d="M155.79,63.72h2.1v.57h-2.1v1.7h2.32v.57h-2.91v-4.98h2.87v.57h-2.27v1.57h0Z"/><path class="cls-1" d="M121.4,68.68h1.31c1.02,0,1.6,.53,1.6,1.36,0,.67-.49,.96-.56,.97,.07,.01,.83,.23,.83,1.22,0,.87-.64,1.42-1.62,1.42h-1.56v-4.97h0Zm1.4,2.15c.56,0,.9-.31,.9-.79s-.34-.79-.9-.79h-.81v1.58h.81Zm1.17,1.41c0-.47-.31-.85-1.02-.85h-.96v1.7h.96c.71,0,1.02-.39,1.02-.85Z"/><path class="cls-1" d="M125.46,68.68h1.29c.99,0,1.66,.58,1.66,1.47,0,1.18-1.07,1.4-1.22,1.42l1.38,2.08h-.72l-1.34-2.03h-.46v2.03h-.6v-4.97h.01Zm2.36,1.47c0-.55-.36-.9-1.03-.9h-.73v1.8h.73c.67,.01,1.03-.35,1.03-.9Z"/><path class="cls-1" d="M134.07,71.17c0,1.43-1.02,2.57-2.46,2.57s-2.46-1.14-2.46-2.57,1.02-2.57,2.46-2.57,2.46,1.14,2.46,2.57Zm-.64,0c0-1.06-.73-2-1.82-2s-1.82,.94-1.82,2,.73,2,1.82,2,1.82-.94,1.82-2Z"/><path class="cls-1" d="M135.59,71.02l2.01-2.34h.76l-2.1,2.43,2.34,2.54h-.81l-2.2-2.37v2.37h-.6v-4.97h.6v2.34h0Z"/><path class="cls-1" d="M139.84,70.82h2.1v.57h-2.1v1.7h2.32v.57h-2.91v-4.97h2.87v.57h-2.27v1.56h0Z"/><path class="cls-1" d="M143.18,68.68h1.29c.99,0,1.66,.58,1.66,1.47,0,1.18-1.07,1.4-1.21,1.42l1.38,2.08h-.72l-1.34-2.03h-.46v2.03h-.6v-4.97h0Zm2.36,1.47c0-.55-.36-.9-1.03-.9h-.73v1.8h.73c.67,.01,1.03-.35,1.03-.9Z"/><path class="cls-1" d="M148.61,68.68h.55l1.94,4.97h-.63l-.52-1.34h-2.15l-.52,1.34h-.64l1.97-4.97Zm-.58,3.07h1.7l-.85-2.21-.85,2.21Z"/><path class="cls-1" d="M154.01,70.93h1.83v2.16s-.66,.65-1.95,.65c-1.43,0-2.47-1.14-2.47-2.57s1.04-2.57,2.47-2.57c1.29,0,1.82,.7,1.82,.7l-.43,.42s-.48-.55-1.39-.55c-1.08,0-1.83,.94-1.83,2s.75,2,1.83,2c.91,0,1.36-.36,1.36-.36v-1.31h-1.24v-.57h0Z"/><path class="cls-1" d="M157.49,70.82h2.1v.57h-2.1v1.7h2.32v.57h-2.91v-4.97h2.87v.57h-2.27v1.56h0Z"/><path class="cls-1" d="M163.49,70.82h2.07v.57h-2.07v2.27h-.6v-4.97h2.81v.57h-2.21v1.56h0Z"/><path class="cls-1" d="M166.77,68.68h.6v4.97h-.6v-4.97Z"/><path class="cls-1" d="M168.71,68.68h1.29c.99,0,1.66,.58,1.66,1.47,0,1.18-1.07,1.4-1.22,1.42l1.38,2.08h-.72l-1.34-2.03h-.46v2.03h-.6v-4.97h.01Zm2.35,1.47c0-.55-.36-.9-1.03-.9h-.73v1.8h.73c.67,.01,1.03-.35,1.03-.9Z"/><path class="cls-1" d="M173.3,68.68l1.71,2.78,1.7-2.78h.57v4.97h-.6v-3.89l-1.7,2.76-1.7-2.76v3.89h-.6v-4.97h.62Z"/></g></g></svg>
